  0
SECTION
  2
HEADER
  9
$ACADVER
  1
AC1012
  9
$DWGCODEPAGE
  3
ansi_1252
  9
$INSBASE
 10
0.0
 20
0.0
 30
0.0
  9
$EXTMIN
 10
1.000000000000000E+20
 20
1.000000000000000E+20
 30
1.000000000000000E+20
  9
$EXTMAX
 10
-1.000000000000000E+20
 20
-1.000000000000000E+20
 30
-1.000000000000000E+20
  9
$LIMMIN
 10
0.0
 20
0.0
  9
$LIMMAX
 10
12.0
 20
9.0
  9
$ORTHOMODE
 70
     0
  9
$REGENMODE
 70
     1
  9
$FILLMODE
 70
     1
  9
$QTEXTMODE
 70
     0
  9
$MIRRTEXT
 70
     1
  9
$DRAGMODE
 70
     2
  9
$LTSCALE
 40
1.0
  9
$OSMODE
 70
    37
  9
$ATTMODE
 70
     1
  9
$TEXTSIZE
 40
0.2
  9
$TRACEWID
 40
0.05
  9
$TEXTSTYLE
  7
STANDARD
  9
$CLAYER
  8
0
  9
$CELTYPE
  6
BYLAYER
  9
$CECOLOR
 62
   256
  9
$CELTSCALE
 40
1.0
  9
$DELOBJ
 70
     1
  9
$DISPSILH
 70
     0
  9
$DIMSCALE
 40
1.0
  9
$DIMASZ
 40
0.18
  9
$DIMEXO
 40
0.0625
  9
$DIMDLI
 40
0.38
  9
$DIMRND
 40
0.0
  9
$DIMDLE
 40
0.0
  9
$DIMEXE
 40
0.18
  9
$DIMTP
 40
0.0
  9
$DIMTM
 40
0.0
  9
$DIMTXT
 40
0.18
  9
$DIMCEN
 40
0.09
  9
$DIMTSZ
 40
0.0
  9
$DIMTOL
 70
     0
  9
$DIMLIM
 70
     0
  9
$DIMTIH
 70
     1
  9
$DIMTOH
 70
     1
  9
$DIMSE1
 70
     0
  9
$DIMSE2
 70
     0
  9
$DIMTAD
 70
     0
  9
$DIMZIN
 70
     0
  9
$DIMBLK
  1

  9
$DIMASO
 70
     1
  9
$DIMSHO
 70
     1
  9
$DIMPOST
  1

  9
$DIMAPOST
  1

  9
$DIMALT
 70
     0
  9
$DIMALTD
 70
     2
  9
$DIMALTF
 40
25.4
  9
$DIMLFAC
 40
1.0
  9
$DIMTOFL
 70
     0
  9
$DIMTVP
 40
0.0
  9
$DIMTIX
 70
     0
  9
$DIMSOXD
 70
     0
  9
$DIMSAH
 70
     0
  9
$DIMBLK1
  1

  9
$DIMBLK2
  1

  9
$DIMSTYLE
  2
STANDARD
  9
$DIMCLRD
 70
     0
  9
$DIMCLRE
 70
     0
  9
$DIMCLRT
 70
     0
  9
$DIMTFAC
 40
1.0
  9
$DIMGAP
 40
0.09
  9
$DIMJUST
 70
     0
  9
$DIMSD1
 70
     0
  9
$DIMSD2
 70
     0
  9
$DIMTOLJ
 70
     1
  9
$DIMTZIN
 70
     0
  9
$DIMALTZ
 70
     0
  9
$DIMALTTZ
 70
     0
  9
$DIMFIT
 70
     3
  9
$DIMUPT
 70
     0
  9
$DIMUNIT
 70
     2
  9
$DIMDEC
 70
     4
  9
$DIMTDEC
 70
     4
  9
$DIMALTU
 70
     2
  9
$DIMALTTD
 70
     2
  9
$DIMTXSTY
  7
STANDARD
  9
$DIMAUNIT
 70
     0
  9
$LUNITS
 70
     2
  9
$LUPREC
 70
     4
  9
$SKETCHINC
 40
0.1
  9
$FILLETRAD
 40
0.5
  9
$AUNITS
 70
     0
  9
$AUPREC
 70
     0
  9
$MENU
  1
.
  9
$ELEVATION
 40
0.0
  9
$PELEVATION
 40
0.0
  9
$THICKNESS
 40
0.0
  9
$LIMCHECK
 70
     0
  9
$CHAMFERA
 40
0.0
  9
$CHAMFERB
 40
0.0
  9
$CHAMFERC
 40
0.0
  9
$CHAMFERD
 40
0.0
  9
$SKPOLY
 70
     0
  9
$TDCREATE
 40
2460750.696894942
  9
$TDUPDATE
 40
2460750.696894953
  9
$TDINDWG
 40
0.0000000116
  9
$TDUSRTIMER
 40
0.0000000116
  9
$USRTIMER
 70
     1
  9
$ANGBASE
 50
0.0
  9
$ANGDIR
 70
     0
  9
$PDMODE
 70
     0
  9
$PDSIZE
 40
0.0
  9
$PLINEWID
 40
0.0
  9
$COORDS
 70
     1
  9
$SPLFRAME
 70
     0
  9
$SPLINETYPE
 70
     6
  9
$SPLINESEGS
 70
     8
  9
$ATTDIA
 70
     0
  9
$ATTREQ
 70
     1
  9
$HANDLING
 70
     1
  9
$HANDSEED
  5
1000037C
  9
$SURFTAB1
 70
     6
  9
$SURFTAB2
 70
     6
  9
$SURFTYPE
 70
     6
  9
$SURFU
 70
     6
  9
$SURFV
 70
     6
  9
$UCSNAME
  2

  9
$UCSORG
 10
0.0
 20
0.0
 30
0.0
  9
$UCSXDIR
 10
1.0
 20
0.0
 30
0.0
  9
$UCSYDIR
 10
0.0
 20
1.0
 30
0.0
  9
$PUCSNAME
  2

  9
$PUCSORG
 10
0.0
 20
0.0
 30
0.0
  9
$PUCSXDIR
 10
1.0
 20
0.0
 30
0.0
  9
$PUCSYDIR
 10
0.0
 20
1.0
 30
0.0
  9
$USERI1
 70
     0
  9
$USERI2
 70
     0
  9
$USERI3
 70
     0
  9
$USERI4
 70
     0
  9
$USERI5
 70
     0
  9
$USERR1
 40
0.0
  9
$USERR2
 40
0.0
  9
$USERR3
 40
0.0
  9
$USERR4
 40
0.0
  9
$USERR5
 40
0.0
  9
$WORLDVIEW
 70
     1
  9
$SHADEDGE
 70
     3
  9
$SHADEDIF
 70
    70
  9
$TILEMODE
 70
     1
  9
$MAXACTVP
 70
    64
  9
$PINSBASE
 10
0.0
 20
0.0
 30
0.0
  9
$PLIMCHECK
 70
     0
  9
$PEXTMIN
 10
1.000000000000000E+20
 20
1.000000000000000E+20
 30
1.000000000000000E+20
  9
$PEXTMAX
 10
-1.000000000000000E+20
 20
-1.000000000000000E+20
 30
-1.000000000000000E+20
  9
$PLIMMIN
 10
0.0
 20
0.0
  9
$PLIMMAX
 10
12.0
 20
9.0
  9
$UNITMODE
 70
     0
  9
$VISRETAIN
 70
     1
  9
$PLINEGEN
 70
     0
  9
$PSLTSCALE
 70
     1
  9
$TREEDEPTH
 70
  3020
  9
$PICKSTYLE
 70
     1
  9
$CMLSTYLE
  2
STANDARD
  9
$CMLJUST
 70
     0
  9
$CMLSCALE
 40
1.0
  9
$SAVEIMAGES
 70
     1
  0
ENDSEC
  0
SECTION
  2
CLASSES
  0
CLASS
  1
ACDBDICTIONARYWDFLT
  2
AcDbDictionaryWithDefault
  3
ObjectDBX Classes
 90
    32768
280
     0
281
     0
  0
CLASS
  1
VISUALSTYLE
  2
AcDbVisualStyle
  3
ObjectDBX Classes
 90
     4095
280
     0
281
     0
  0
CLASS
  1
MATERIAL
  2
AcDbMaterial
  3
ObjectDBX Classes
 90
     1153
280
     0
281
     0
  0
CLASS
  1
SCALE
  2
AcDbScale
  3
ObjectDBX Classes
 90
     1153
280
     0
281
     0
  0
CLASS
  1
TABLESTYLE
  2
AcDbTableStyle
  3
ObjectDBX Classes
 90
     4095
280
     0
281
     0
  0
CLASS
  1
MLEADERSTYLE
  2
AcDbMLeaderStyle
  3
ACDB_MLEADERSTYLE_CLASS
 90
     4095
280
     0
281
     0
  0
CLASS
  1
SUN
  2
AcDbSun
  3
SCENEOE
 90
     1153
280
     0
281
     0
  0
CLASS
  1
SORTENTSTABLE
  2
AcDbSortentsTable
  3
ObjectDBX Classes
 90
    32768
280
     0
281
     0
  0
CLASS
  1
DICTIONARYVAR
  2
AcDbDictionaryVar
  3
ObjectDBX Classes
 90
        0
280
     0
281
     0
  0
CLASS
  1
XRECORD
  2
AcDbXrecord
  3
ObjectDBX Classes
 90
    32768
280
     0
281
     0
  0
CLASS
  1
LWPOLYLINE
  2
AcDbPolyline
  3
ObjectDBX Classes
 90
    32768
280
     0
281
     1
  0
CLASS
  1
HATCH
  2
AcDbHatch
  3
ObjectDBX Classes
 90
    32768
280
     0
281
     1
  0
CLASS
  1
ACDBPLACEHOLDER
  2
AcDbPlaceHolder
  3
ObjectDBX Classes
 90
        0
280
     0
281
     0
  0
CLASS
  1
LAYOUT
  2
AcDbLayout
  3
ObjectDBX Classes
 90
        0
280
     0
281
     0
  0
ENDSEC
  0
SECTION
  2
TABLES
  0
TABLE
  2
VPORT
  5
8
330
0
100
AcDbSymbolTable
 70
     1
  0
VPORT
  5
29
330
8
100
AcDbSymbolTableRecord
100
AcDbViewportTableRecord
  2
*ACTIVE
 70
     0
 10
0.0
 20
0.0
 11
1.0
 21
1.0
 12
10.42990654205607
 22
4.5
 13
0.0
 23
0.0
 14
0.5
 24
0.5
 15
0.5
 25
0.5
 16
0.0
 26
0.0
 36
1.0
 17
0.0
 27
0.0
 37
0.0
 40
9.0
 41
1.972972972850329
 42
50.0
 43
0.0
 44
0.0
 50
0.0
 51
0.0
 71
     0
 72
   100
 73
     1
 74
     3
 75
     0
 76
     0
 77
     0
 78
     0
  0
ENDTAB
  0
TABLE
  2
LTYPE
  5
5
330
0
100
AcDbSymbolTable
 70
     7
  0
LTYPE
  5
14
330
5
100
AcDbSymbolTableRecord
100
AcDbLinetypeTableRecord
  2
BYBLOCK
 70
     0
  3

 72
    65
 73
     0
 40
0.0
  0
LTYPE
  5
15
330
5
100
AcDbSymbolTableRecord
100
AcDbLinetypeTableRecord
  2
BYLAYER
 70
     0
  3

 72
    65
 73
     0
 40
0.0
  0
LTYPE
  5
16
330
5
100
AcDbSymbolTableRecord
100
AcDbLinetypeTableRecord
  2
CONTINUOUS
 70
     0
  3
Solid line
 72
    65
 73
     0
 40
0.0
  0
LTYPE
  5
10000024
330
5
100
AcDbSymbolTableRecord
100
AcDbLinetypeTableRecord
  2
ONS_PHANTOM
 70
     0
  3
Onshape Phantom line ______ __ __ ______
 72
    65
 73
     6
 40
0.4999999999999999
 49
0.25
 74
     0
 49
-0.05
 74
     0
 49
0.05
 74
     0
 49
-0.05
 74
     0
 49
0.05
 74
     0
 49
-0.05
 74
     0
  0
LTYPE
  5
10000025
330
5
100
AcDbSymbolTableRecord
100
AcDbLinetypeTableRecord
  2
CENTER
 70
     0
  3
Center line ____ _ ____ _ ____ _
 72
    65
 73
     4
 40
0.7199999999999999
 49
0.45
 74
     0
 49
-0.09
 74
     0
 49
0.09
 74
     0
 49
-0.09
 74
     0
  0
LTYPE
  5
10000026
330
5
100
AcDbSymbolTableRecord
100
AcDbLinetypeTableRecord
  2
DASHED
 70
     0
  3
Dashed line __ __ __ __ __
 72
    65
 73
     2
 40
0.75
 49
0.5
 74
     0
 49
-0.25
 74
     0
  0
LTYPE
  5
10000027
330
5
100
AcDbSymbolTableRecord
100
AcDbLinetypeTableRecord
  2
ONS_DASHDOT
 70
     0
  3
Onshape Dashed with Dot _ . ____ . ____
 72
    65
 73
     4
 40
0.71
 49
0.5
 74
     0
 49
-0.1
 74
     0
 49
0.01
 74
     0
 49
-0.1
 74
     0
  0
LTYPE
  5
10000028
330
5
100
AcDbSymbolTableRecord
100
AcDbLinetypeTableRecord
  2
ONS_DOTTED
 70
     0
  3
Onshape Dotted line . . . . . . .
 72
    65
 73
     2
 40
0.11
 49
0.01
 74
     0
 49
-0.1
 74
     0
  0
LTYPE
  5
10000029
330
5
100
AcDbSymbolTableRecord
100
AcDbLinetypeTableRecord
  2
HIDDEN
 70
     0
  3
Hidden line ____ ____ ____ ____ 
 72
    65
 73
     2
 40
0.15
 49
0.1
 74
     0
 49
-0.05
 74
     0
  0
ENDTAB
  0
TABLE
  2
LAYER
  5
2
330
0
100
AcDbSymbolTable
 70
    46
  0
LAYER
  5
10
330
2
100
AcDbSymbolTableRecord
100
AcDbLayerTableRecord
  2
0
 70
     0
 62
     7
  6
CONTINUOUS
  0
LAYER
  5
1000002A
330
2
100
AcDbSymbolTableRecord
100
AcDbLayerTableRecord
  2
SECTION_CUTTING_LINE
 70
     0
 62
     7
  6
ONS_PHANTOM
  0
LAYER
  5
1000002B
330
2
100
AcDbSymbolTableRecord
100
AcDbLayerTableRecord
  2
DETAIL_VIEW_BORDER
 70
     0
 62
     7
  6
CONTINUOUS
  0
LAYER
  5
1000002C
330
2
100
AcDbSymbolTableRecord
100
AcDbLayerTableRecord
  2
DETAIL_VIEW_PARENT_BORDER
 70
     0
 62
     7
  6
ONS_PHANTOM
  0
LAYER
  5
1000002D
330
2
100
AcDbSymbolTableRecord
100
AcDbLayerTableRecord
  2
TEXT
 70
     0
 62
     7
  6
CONTINUOUS
  0
LAYER
  5
1000002E
330
2
100
AcDbSymbolTableRecord
100
AcDbLayerTableRecord
  2
SKETCHED_GEOMETRY
 70
     0
 62
    -7
  6
CONTINUOUS
  0
LAYER
  5
1000002F
330
2
100
AcDbSymbolTableRecord
100
AcDbLayerTableRecord
  2
VIRTUAL_SHARPS
 70
     0
 62
    -7
  6
CONTINUOUS
  0
LAYER
  5
10000030
330
2
100
AcDbSymbolTableRecord
100
AcDbLayerTableRecord
  2
CENTERLINES
 70
     0
 62
    -7
  6
CENTER
  0
LAYER
  5
10000031
330
2
100
AcDbSymbolTableRecord
100
AcDbLayerTableRecord
  2
CENTERMARKS
 70
     0
 62
    -7
  6
CONTINUOUS
  0
LAYER
  5
10000032
330
2
100
AcDbSymbolTableRecord
100
AcDbLayerTableRecord
  2
TABLES
 70
     0
 62
     7
  6
CONTINUOUS
  0
LAYER
  5
10000033
330
2
100
AcDbSymbolTableRecord
100
AcDbLayerTableRecord
  2
IMAGES
 70
     0
 62
    -7
  6
CONTINUOUS
  0
LAYER
  5
10000034
330
2
100
AcDbSymbolTableRecord
100
AcDbLayerTableRecord
  2
ANNOTATION_LINES
 70
     0
 62
    -7
  6
CONTINUOUS
  0
LAYER
  5
10000035
330
2
100
AcDbSymbolTableRecord
100
AcDbLayerTableRecord
  2
ANNOTATION_TEXT
 70
     0
 62
    -7
  6
CONTINUOUS
  0
LAYER
  5
10000036
330
2
100
AcDbSymbolTableRecord
100
AcDbLayerTableRecord
  2
SIDE_THREAD_SYMBOLS
 70
     0
 62
     7
  6
HIDDEN
  0
LAYER
  5
10000037
330
2
100
AcDbSymbolTableRecord
100
AcDbLayerTableRecord
  2
SIDE_THREAD_SYMBOLS_HIDDEN
 70
     0
 62
    -7
  6
HIDDEN
  0
LAYER
  5
10000038
330
2
100
AcDbSymbolTableRecord
100
AcDbLayerTableRecord
  2
SURFACE_THREAD_SYMBOLS
 70
     0
 62
     7
  6
HIDDEN
  0
LAYER
  5
10000039
330
2
100
AcDbSymbolTableRecord
100
AcDbLayerTableRecord
  2
SURFACE_THREAD_SYMBOLS_ON_
 70
     0
 62
     7
  6
HIDDEN
  0
LAYER
  5
1000003A
330
2
100
AcDbSymbolTableRecord
100
AcDbLayerTableRecord
  2
SURFACE_THREAD_SYMBOLS_HID
 70
     0
 62
    -7
  6
HIDDEN
  0
LAYER
  5
1000003B
330
2
100
AcDbSymbolTableRecord
100
AcDbLayerTableRecord
  2
BLIND_THREAD_SYMBOLS
 70
     0
 62
     7
  6
CONTINUOUS
  0
LAYER
  5
1000003C
330
2
100
AcDbSymbolTableRecord
100
AcDbLayerTableRecord
  2
BLIND_THREAD_SYMBOLS_HIDDE
 70
     0
 62
    -7
  6
HIDDEN
  0
LAYER
  5
1000003D
330
2
100
AcDbSymbolTableRecord
100
AcDbLayerTableRecord
  2
EXPLODE_LINES
 70
     0
 62
     7
  6
ONS_PHANTOM
  0
LAYER
  5
1000003E
330
2
100
AcDbSymbolTableRecord
100
AcDbLayerTableRecord
  2
HIDDEN_EXPLODE_LINES
 70
     0
 62
    -7
  6
ONS_PHANTOM
  0
LAYER
  5
1000003F
330
2
100
AcDbSymbolTableRecord
100
AcDbLayerTableRecord
  2
BREAK_LINES
 70
     0
 62
    -7
  6
CONTINUOUS
  0
LAYER
  5
10000040
330
2
100
AcDbSymbolTableRecord
100
AcDbLayerTableRecord
  2
SHEETMETAL_BEND_LINES_UP
 70
     0
 62
     7
  6
CENTER
  0
LAYER
  5
10000041
330
2
100
AcDbSymbolTableRecord
100
AcDbLayerTableRecord
  2
SHEETMETAL_BEND_LINES_DOWN
 70
     0
 62
     7
  6
CENTER
  0
LAYER
  5
10000042
330
2
100
AcDbSymbolTableRecord
100
AcDbLayerTableRecord
  2
SHEETMETAL_BEND_TANGENT_LI
 70
     0
 62
     7
  6
CONTINUOUS
  0
LAYER
  5
10000043
330
2
100
AcDbSymbolTableRecord
100
AcDbLayerTableRecord
  2
SHEETMETAL_CUT_LINES
 70
     0
 62
     7
  6
CONTINUOUS
  0
LAYER
  5
10000044
330
2
100
AcDbSymbolTableRecord
100
AcDbLayerTableRecord
  2
SHEETMETAL_CBORE_CSINK_UP
 70
     0
 62
     7
  6
CONTINUOUS
  0
LAYER
  5
10000045
330
2
100
AcDbSymbolTableRecord
100
AcDbLayerTableRecord
  2
SHEETMETAL_CBORE_CSINK_DOW
 70
     0
 62
     7
  6
CONTINUOUS
  0
LAYER
  5
10000046
330
2
100
AcDbSymbolTableRecord
100
AcDbLayerTableRecord
  2
SHEETMETAL_FORM_TEAR
 70
     0
 62
     7
  6
CONTINUOUS
  0
LAYER
  5
10000047
330
2
100
AcDbSymbolTableRecord
100
AcDbLayerTableRecord
  2
SHEETMETAL_FORM_UP
 70
     0
 62
     7
  6
CENTER
  0
LAYER
  5
10000048
330
2
100
AcDbSymbolTableRecord
100
AcDbLayerTableRecord
  2
SHEETMETAL_FORM_DOWN
 70
     0
 62
     7
  6
CENTER
  0
LAYER
  5
10000049
330
2
100
AcDbSymbolTableRecord
100
AcDbLayerTableRecord
  2
SHEETMETAL_FORM_CENTERMARK
 70
     0
 62
     7
  6
CONTINUOUS
  0
LAYER
  5
1000004A
330
2
100
AcDbSymbolTableRecord
100
AcDbLayerTableRecord
  2
REGION_ASSOC_POINTS
 70
     0
 62
    -7
  6
CONTINUOUS
  0
LAYER
  5
1000004B
330
2
100
AcDbSymbolTableRecord
100
AcDbLayerTableRecord
  2
PATTERN_CENTERLINES
 70
     1
 62
    -7
  6
CENTER
  0
LAYER
  5
1000004C
330
2
100
AcDbSymbolTableRecord
100
AcDbLayerTableRecord
  2
HIDDEN
 70
     0
 62
    -7
  6
HIDDEN
  0
LAYER
  5
1000004D
330
2
100
AcDbSymbolTableRecord
100
AcDbLayerTableRecord
  2
VISIBLE
 70
     0
 62
     7
  6
CONTINUOUS
  0
LAYER
  5
1000004E
330
2
100
AcDbSymbolTableRecord
100
AcDbLayerTableRecord
  2
MODELSKETCH_VISIBLE
 70
     0
 62
     7
  6
CONTINUOUS
  0
LAYER
  5
1000004F
330
2
100
AcDbSymbolTableRecord
100
AcDbLayerTableRecord
  2
MODELSKETCH_POINT
 70
     0
 62
     7
  6
CONTINUOUS
  0
LAYER
  5
10000050
330
2
100
AcDbSymbolTableRecord
100
AcDbLayerTableRecord
  2
MODELSKETCH_CONSTRUCTION
 70
     0
 62
    -7
  6
CENTER
  0
LAYER
  5
10000051
330
2
100
AcDbSymbolTableRecord
100
AcDbLayerTableRecord
  2
HIDDEN_BASE_VIEW
 70
     0
 62
     7
  6
CONTINUOUS
  0
LAYER
  5
10000052
330
2
100
AcDbSymbolTableRecord
100
AcDbLayerTableRecord
  2
TANGENT_LINES
 70
     0
 62
    -7
  6
CONTINUOUS
  0
LAYER
  5
10000053
330
2
100
AcDbSymbolTableRecord
100
AcDbLayerTableRecord
  2
TANGENT_HIDDEN
 70
     0
 62
    -7
  6
HIDDEN
  0
LAYER
  5
10000054
330
2
100
AcDbSymbolTableRecord
100
AcDbLayerTableRecord
  2
INVISIBLE_LINES
 70
     0
 62
    -7
  6
CONTINUOUS
  0
LAYER
  5
10000055
330
2
100
AcDbSymbolTableRecord
100
AcDbLayerTableRecord
  2
VIEW_HATCHES
 70
     0
 62
    -7
  6
CONTINUOUS
  0
LAYER
  5
10000056
330
2
100
AcDbSymbolTableRecord
100
AcDbLayerTableRecord
  2
SECTION_JOG_LINES
 70
     0
 62
    -7
  6
CONTINUOUS
  0
ENDTAB
  0
TABLE
  2
STYLE
  5
3
330
0
100
AcDbSymbolTable
 70
     2
  0
STYLE
  5
11
330
3
100
AcDbSymbolTableRecord
100
AcDbTextStyleTableRecord
  2
STANDARD
 70
     0
 40
0.0
 41
1.0
 50
0.0
 71
     0
 42
0.2
  3
txt
  4

  0
STYLE
  5
10000004
330
3
100
AcDbSymbolTableRecord
100
AcDbTextStyleTableRecord
  2
TTFSTYLE
 70
     0
 40
0.0
 41
1.0
 50
0.0
 71
     0
 42
0.2
  3
Verdana.ttf
  4

1001
ACAD
1000
Verdana
1071
       34
  0
ENDTAB
  0
TABLE
  2
VIEW
  5
6
330
0
100
AcDbSymbolTable
 70
     0
  0
ENDTAB
  0
TABLE
  2
UCS
  5
7
330
0
100
AcDbSymbolTable
 70
     0
  0
ENDTAB
  0
TABLE
  2
APPID
  5
9
330
0
100
AcDbSymbolTable
 70
     2
  0
APPID
  5
12
330
9
100
AcDbSymbolTableRecord
100
AcDbRegAppTableRecord
  2
ACAD
 70
     0
  0
APPID
  5
10000336
330
9
100
AcDbSymbolTableRecord
100
AcDbRegAppTableRecord
  2
ACAD_MLEADERVER
 70
     0
  0
ENDTAB
  0
TABLE
  2
DIMSTYLE
  5
A
330
0
100
AcDbSymbolTable
 70
     1
  0
DIMSTYLE
105
27
330
A
100
AcDbSymbolTableRecord
100
AcDbDimStyleTableRecord
  2
STANDARD
 70
     0
  3

  4

  5

  6

  7

 40
1.0
 41
0.18
 42
0.0625
 43
0.38
 44
0.18
 45
0.0
 46
0.0
 47
0.0
 48
0.0
140
0.18
141
0.09
142
0.0
143
25.4
144
1.0
145
0.0
146
1.0
147
0.09
 71
     0
 72
     0
 73
     1
 74
     1
 75
     0
 76
     0
 77
     0
 78
     0
170
     0
171
     2
172
     0
173
     0
174
     0
175
     0
176
     0
177
     0
178
     0
270
     2
271
     4
272
     4
273
     2
274
     2
340
11
275
     0
280
     0
281
     0
282
     0
283
     1
284
     0
285
     0
286
     0
287
     3
288
     0
  0
ENDTAB
  0
TABLE
  2
BLOCK_RECORD
  5
1
330
0
100
AcDbSymbolTable
 70
     0
  0
BLOCK_RECORD
  5
1F
102
{ACAD_XDICTIONARY
360
10000255
102
}
330
1
100
AcDbSymbolTableRecord
100
AcDbBlockTableRecord
  2
*MODEL_SPACE
  0
BLOCK_RECORD
  5
1B
330
1
100
AcDbSymbolTableRecord
100
AcDbBlockTableRecord
  2
*PAPER_SPACE
  0
ENDTAB
  0
ENDSEC
  0
SECTION
  2
BLOCKS
  0
BLOCK
  5
20
330
1F
100
AcDbEntity
  8
0
100
AcDbBlockBegin
  2
*MODEL_SPACE
 70
     0
 10
0.0
 20
0.0
 30
0.0
  3
*MODEL_SPACE
  1

  0
ENDBLK
  5
21
330
1F
100
AcDbEntity
  8
0
100
AcDbBlockEnd
  0
BLOCK
  5
1C
330
1B
100
AcDbEntity
 67
     1
  8
0
100
AcDbBlockBegin
  2
*PAPER_SPACE
 70
     0
 10
0.0
 20
0.0
 30
0.0
  3
*PAPER_SPACE
  1

  0
ENDBLK
  5
1D
330
1B
100
AcDbEntity
 67
     1
  8
0
100
AcDbBlockEnd
  0
ENDSEC
  0
SECTION
  2
ENTITIES
  0
LINE
  5
10000057
102
{ACAD_XDICTIONARY
360
10000058
102
}
330
1F
100
AcDbEntity
  8
VISIBLE
100
AcDbLine
 10
-3.062992125984254
 20
3.993700787244088
 30
0.0
 11
2.985039370078745
 21
3.993700787244088
 31
0.0
  0
LINE
  5
1000005A
102
{ACAD_XDICTIONARY
360
1000005B
102
}
330
1F
100
AcDbEntity
  8
VISIBLE
100
AcDbLine
 10
2.985039370078745
 20
3.993700787244088
 30
0.0
 11
2.985039370078745
 21
-4.623622047244093
 31
0.0
  0
LINE
  5
1000005D
102
{ACAD_XDICTIONARY
360
1000005E
102
}
330
1F
100
AcDbEntity
  8
VISIBLE
100
AcDbLine
 10
-3.062992125984252
 20
-4.623622047244093
 30
0.0
 11
2.985039370078745
 21
-4.623622047244093
 31
0.0
  0
LINE
  5
10000060
102
{ACAD_XDICTIONARY
360
10000061
102
}
330
1F
100
AcDbEntity
  8
VISIBLE
100
AcDbLine
 10
-3.062992125984254
 20
3.993700787244088
 30
0.0
 11
-3.062992125984252
 21
-4.623622047244093
 31
0.0
  0
CIRCLE
  5
10000063
102
{ACAD_XDICTIONARY
360
10000064
102
}
330
1F
100
AcDbEntity
  8
VISIBLE
100
AcDbCircle
 10
1.822834645669294
 20
-5.135433070866138
 30
0.0
 40
0.0590551181102363
  0
CIRCLE
  5
10000068
102
{ACAD_XDICTIONARY
360
10000069
102
}
330
1F
100
AcDbEntity
  8
VISIBLE
100
AcDbCircle
 10
1.370078740157483
 20
-5.135433070866138
 30
0.0
 40
0.0590551181102363
  0
CIRCLE
  5
1000006D
102
{ACAD_XDICTIONARY
360
1000006E
102
}
330
1F
100
AcDbEntity
  8
VISIBLE
100
AcDbCircle
 10
-1.901574803149609
 20
-5.135433070866138
 30
0.0
 40
0.0590551181102363
  0
CIRCLE
  5
10000072
102
{ACAD_XDICTIONARY
360
10000073
102
}
330
1F
100
AcDbEntity
  8
VISIBLE
100
AcDbCircle
 10
-1.448818897637798
 20
-5.135433070866138
 30
0.0
 40
0.0590551181102363
  0
LINE
  5
10000077
102
{ACAD_XDICTIONARY
360
10000078
102
}
330
1F
100
AcDbEntity
  8
VISIBLE
100
AcDbLine
 10
-3.299212598425198
 20
4.308661417322829
 30
0.0
 11
3.221259842519682
 21
4.308661417322829
 31
0.0
  0
ARC
  5
1000007A
102
{ACAD_XDICTIONARY
360
1000007B
102
}
330
1F
100
AcDbEntity
  8
VISIBLE
100
AcDbCircle
 10
-3.299212598425199
 20
4.229921259842513
 30
0.0
 40
0.0787401574803156
100
AcDbArc
 50
89.99999999999935
 51
179.9999999999994
  0
LINE
  5
1000007F
102
{ACAD_XDICTIONARY
360
10000080
102
}
330
1F
100
AcDbEntity
  8
VISIBLE
100
AcDbLine
 10
-3.377952755905513
 20
4.229921259842514
 30
0.0
 11
-3.377952754409447
 21
-4.859842519527558
 31
0.0
  0
ARC
  5
10000082
102
{ACAD_XDICTIONARY
360
10000083
102
}
330
1F
100
AcDbEntity
  8
VISIBLE
100
AcDbCircle
 10
-3.299212596929131
 20
-4.859842519685039
 30
0.0
 40
0.0787401574803158
100
AcDbArc
 50
179.9999998854085
 51
270.0
  0
LINE
  5
10000087
102
{ACAD_XDICTIONARY
360
10000088
102
}
330
1F
100
AcDbEntity
  8
VISIBLE
100
AcDbLine
 10
-2.511811023622052
 20
-4.938582677165352
 30
0.0
 11
-3.299212596929131
 21
-4.938582677165354
 31
0.0
  0
ARC
  5
1000008A
102
{ACAD_XDICTIONARY
360
1000008B
102
}
330
1F
100
AcDbEntity
  8
VISIBLE
100
AcDbCircle
 10
-2.511811023622052
 20
-4.977952755905511
 30
0.0
 40
0.0393700787401583
100
AcDbArc
 50
0.0
 51
90.0
  0
LINE
  5
1000008F
102
{ACAD_XDICTIONARY
360
10000090
102
}
330
1F
100
AcDbEntity
  8
VISIBLE
100
AcDbLine
 10
-2.472440944881895
 20
-4.977952755905511
 30
0.0
 11
-2.472440944881896
 21
-5.450393700787398
 31
0.0
  0
ARC
  5
10000092
102
{ACAD_XDICTIONARY
360
10000093
102
}
330
1F
100
AcDbEntity
  8
VISIBLE
100
AcDbCircle
 10
-2.393700787401579
 20
-5.450393700787398
 30
0.0
 40
0.0787401574803161
100
AcDbArc
 50
180.0
 51
270.0
  0
LINE
  5
10000097
102
{ACAD_XDICTIONARY
360
10000098
102
}
330
1F
100
AcDbEntity
  8
VISIBLE
100
AcDbLine
 10
2.314960629921262
 20
-5.529133858267713
 30
0.0
 11
-2.393700787401579
 21
-5.529133858267714
 31
0.0
  0
ARC
  5
1000009A
102
{ACAD_XDICTIONARY
360
1000009B
102
}
330
1F
100
AcDbEntity
  8
VISIBLE
100
AcDbCircle
 10
2.314960629921262
 20
-5.450393700787398
 30
0.0
 40
0.078740157480315
100
AcDbArc
 50
270.0
 51
0.0
  0
LINE
  5
1000009F
102
{ACAD_XDICTIONARY
360
100000A0
102
}
330
1F
100
AcDbEntity
  8
VISIBLE
100
AcDbLine
 10
2.393700787401577
 20
-4.977952755905511
 30
0.0
 11
2.393700787401577
 21
-5.450393700787398
 31
0.0
  0
ARC
  5
100000A2
102
{ACAD_XDICTIONARY
360
100000A3
102
}
330
1F
100
AcDbEntity
  8
VISIBLE
100
AcDbCircle
 10
2.433070866141736
 20
-4.977952755905513
 30
0.0
 40
0.0393700787401607
100
AcDbArc
 50
90.0000000000026
 51
179.9999999999974
  0
LINE
  5
100000A7
102
{ACAD_XDICTIONARY
360
100000A8
102
}
330
1F
100
AcDbEntity
  8
VISIBLE
100
AcDbLine
 10
2.433070866141735
 20
-4.938582677165352
 30
0.0
 11
3.221259842519689
 21
-4.938582677165353
 31
0.0
  0
ARC
  5
100000AA
102
{ACAD_XDICTIONARY
360
100000AB
102
}
330
1F
100
AcDbEntity
  8
VISIBLE
100
AcDbCircle
 10
3.221259842519689
 20
-4.859842519685037
 30
0.0
 40
0.0787401574803161
100
AcDbArc
 50
270.0
 51
0.0
  0
LINE
  5
100000AF
102
{ACAD_XDICTIONARY
360
100000B0
102
}
330
1F
100
AcDbEntity
  8
VISIBLE
100
AcDbLine
 10
3.300000000000005
 20
-4.859842519685037
 30
0.0
 11
3.299999999999997
 21
4.229921259842515
 31
0.0
  0
ARC
  5
100000B2
102
{ACAD_XDICTIONARY
360
100000B3
102
}
330
1F
100
AcDbEntity
  8
VISIBLE
100
AcDbCircle
 10
3.221259842519682
 20
4.229921259842515
 30
0.0
 40
0.078740157480315
100
AcDbArc
 50
0.0
 51
90.0
  0
LINE
  5
100000B7
102
{ACAD_XDICTIONARY
360
100000B8
102
}
330
1F
100
AcDbEntity
  8
VISIBLE
100
AcDbLine
 10
-2.318641376513629
 20
4.200951430194741
 30
0.0
 11
-2.303099852021149
 21
4.122387820152723
 31
0.0
  0
LINE
  5
100000BA
102
{ACAD_XDICTIONARY
360
100000BB
102
}
330
1F
100
AcDbEntity
  8
VISIBLE
100
AcDbLine
 10
-2.303099852021149
 20
4.122387820152723
 30
0.0
 11
-2.285552106638935
 21
4.200951430194741
 31
0.0
  0
LINE
  5
100000BD
102
{ACAD_XDICTIONARY
360
100000BE
102
}
330
1F
100
AcDbEntity
  8
VISIBLE
100
AcDbLine
 10
-2.285552106638935
 20
4.200951430194741
 30
0.0
 11
-2.277848218422353
 21
4.200951430194741
 31
0.0
  0
LINE
  5
100000C0
102
{ACAD_XDICTIONARY
360
100000C1
102
}
330
1F
100
AcDbEntity
  8
VISIBLE
100
AcDbLine
 10
-2.277848218422353
 20
4.200951430194741
 30
0.0
 11
-2.277848218422353
 21
4.149966669983612
 31
0.0
  0
LINE
  5
100000C3
102
{ACAD_XDICTIONARY
360
100000C4
102
}
330
1F
100
AcDbEntity
  8
VISIBLE
100
AcDbLine
 10
-2.277848218422353
 20
4.149966669983612
 30
0.0
 11
-2.289885543760762
 21
4.105990308080623
 31
0.0
  0
LINE
  5
100000C6
102
{ACAD_XDICTIONARY
360
100000C7
102
}
330
1F
100
AcDbEntity
  8
VISIBLE
100
AcDbLine
 10
-2.289885543760762
 20
4.105990308080623
 30
0.0
 11
-2.316153662610358
 21
4.105990308080623
 31
0.0
  0
LINE
  5
100000C9
102
{ACAD_XDICTIONARY
360
100000CA
102
}
330
1F
100
AcDbEntity
  8
VISIBLE
100
AcDbLine
 10
-2.316153662610358
 20
4.105990308080623
 30
0.0
 11
-2.340388810958355
 21
4.200951430194741
 31
0.0
  0
LINE
  5
100000CC
102
{ACAD_XDICTIONARY
360
100000CD
102
}
330
1F
100
AcDbEntity
  8
VISIBLE
100
AcDbLine
 10
-2.340388810958355
 20
4.200951430194741
 30
0.0
 11
-2.318641376513629
 21
4.200951430194741
 31
0.0
  0
LINE
  5
100000CF
102
{ACAD_XDICTIONARY
360
100000D0
102
}
330
1F
100
AcDbEntity
  8
VISIBLE
100
AcDbLine
 10
-2.247754905076329
 20
4.122387820152723
 30
0.0
 11
-2.230207159694115
 21
4.200951430194741
 31
0.0
  0
LINE
  5
100000D2
102
{ACAD_XDICTIONARY
360
100000D3
102
}
330
1F
100
AcDbEntity
  8
VISIBLE
100
AcDbLine
 10
-2.230207159694115
 20
4.200951430194741
 30
0.0
 11
-2.20829922757821
 21
4.200951430194741
 31
0.0
  0
LINE
  5
100000D5
102
{ACAD_XDICTIONARY
360
100000D6
102
}
330
1F
100
AcDbEntity
  8
VISIBLE
100
AcDbLine
 10
-2.20829922757821
 20
4.200951430194741
 30
0.0
 11
-2.234888341770163
 21
4.105990308080623
 31
0.0
  0
LINE
  5
100000D8
102
{ACAD_XDICTIONARY
360
100000D9
102
}
330
1F
100
AcDbEntity
  8
VISIBLE
100
AcDbLine
 10
-2.234888341770163
 20
4.105990308080623
 30
0.0
 11
-2.260969213336717
 21
4.105990308080623
 31
0.0
  0
LINE
  5
100000DB
102
{ACAD_XDICTIONARY
360
100000DC
102
}
330
1F
100
AcDbEntity
  8
VISIBLE
100
AcDbLine
 10
-2.260969213336717
 20
4.105990308080623
 30
0.0
 11
-2.271000317785391
 21
4.144937742953343
 31
0.0
  0
LINE
  5
100000DE
102
{ACAD_XDICTIONARY
360
100000DF
102
}
330
1F
100
AcDbEntity
  8
VISIBLE
100
AcDbLine
 10
-2.271000317785391
 20
4.144937742953343
 30
0.0
 11
-2.271000317785391
 21
4.200951430194741
 31
0.0
  0
LINE
  5
100000E1
102
{ACAD_XDICTIONARY
360
100000E2
102
}
330
1F
100
AcDbEntity
  8
VISIBLE
100
AcDbLine
 10
-2.271000317785391
 20
4.200951430194741
 30
0.0
 11
-2.26364417452303
 21
4.200951430194741
 31
0.0
  0
LINE
  5
100000E4
102
{ACAD_XDICTIONARY
360
100000E5
102
}
330
1F
100
AcDbEntity
  8
VISIBLE
100
AcDbLine
 10
-2.26364417452303
 20
4.200951430194741
 30
0.0
 11
-2.247754905076329
 21
4.122387820152723
 31
0.0
  0
POLYLINE
  5
100000E7
102
{ACAD_XDICTIONARY
360
100000E8
102
}
330
1F
100
AcDbEntity
  8
VISIBLE
100
AcDb2dPolyline
 66
     1
 10
0.0
 20
0.0
 30
0.0
 70
   128
  0
VERTEX
  5
1000025F
330
100000E7
100
AcDbEntity
  8
VISIBLE
100
AcDbVertex
100
AcDb2dVertex
 10
-2.417869061719916
 20
4.124808660026337
 30
0.0
  0
VERTEX
  5
10000260
330
100000E7
100
AcDbEntity
  8
VISIBLE
100
AcDbVertex
100
AcDb2dVertex
 10
-2.411691399357797
 20
4.122856494752255
 30
0.0
  0
VERTEX
  5
10000261
330
100000E7
100
AcDbEntity
  8
VISIBLE
100
AcDbVertex
100
AcDb2dVertex
 10
-2.405925360023028
 20
4.122387820152723
 30
0.0
  0
SEQEND
  5
10000337
330
100000E7
100
AcDbEntity
  8
VISIBLE
  0
POLYLINE
  5
100000EA
102
{ACAD_XDICTIONARY
360
100000EB
102
}
330
1F
100
AcDbEntity
  8
VISIBLE
100
AcDb2dPolyline
 66
     1
 10
0.0
 20
0.0
 30
0.0
 70
   128
  0
VERTEX
  5
10000262
330
100000EA
100
AcDbEntity
  8
VISIBLE
100
AcDbVertex
100
AcDb2dVertex
 10
-2.405925360023028
 20
4.122387820152723
 30
0.0
  0
VERTEX
  5
10000263
330
100000EA
100
AcDbEntity
  8
VISIBLE
100
AcDbVertex
100
AcDb2dVertex
 10
-2.403572934956716
 20
4.122517844666067
 30
0.0
  0
VERTEX
  5
10000264
330
100000EA
100
AcDbEntity
  8
VISIBLE
100
AcDbVertex
100
AcDb2dVertex
 10
-2.40132442678257
 20
4.122802439136602
 30
0.0
  0
SEQEND
  5
10000338
330
100000EA
100
AcDbEntity
  8
VISIBLE
  0
POLYLINE
  5
100000ED
102
{ACAD_XDICTIONARY
360
100000EE
102
}
330
1F
100
AcDbEntity
  8
VISIBLE
100
AcDb2dPolyline
 66
     1
 10
0.0
 20
0.0
 30
0.0
 70
   128
  0
VERTEX
  5
10000265
330
100000ED
100
AcDbEntity
  8
VISIBLE
100
AcDbVertex
100
AcDb2dVertex
 10
-2.40132442678257
 20
4.122802439136602
 30
0.0
  0
VERTEX
  5
10000266
330
100000ED
100
AcDbEntity
  8
VISIBLE
100
AcDbVertex
100
AcDb2dVertex
 10
-2.398133733079535
 20
4.123476529355553
 30
0.0
  0
VERTEX
  5
10000267
330
100000ED
100
AcDbEntity
  8
VISIBLE
100
AcDbVertex
100
AcDb2dVertex
 10
-2.395479636590475
 20
4.124300417400937
 30
0.0
  0
SEQEND
  5
10000339
330
100000ED
100
AcDbEntity
  8
VISIBLE
  0
POLYLINE
  5
100000F0
102
{ACAD_XDICTIONARY
360
100000F1
102
}
330
1F
100
AcDbEntity
  8
VISIBLE
100
AcDb2dPolyline
 66
     1
 10
0.0
 20
0.0
 30
0.0
 70
   128
  0
VERTEX
  5
10000268
330
100000F0
100
AcDbEntity
  8
VISIBLE
100
AcDbVertex
100
AcDb2dVertex
 10
-2.395479636590475
 20
4.124300417400937
 30
0.0
  0
VERTEX
  5
10000269
330
100000F0
100
AcDbEntity
  8
VISIBLE
100
AcDbVertex
100
AcDb2dVertex
 10
-2.39201511246072
 20
4.125698330717214
 30
0.0
  0
VERTEX
  5
1000026A
330
100000F0
100
AcDbEntity
  8
VISIBLE
100
AcDbVertex
100
AcDb2dVertex
 10
-2.38928710144416
 20
4.127055627422839
 30
0.0
  0
SEQEND
  5
1000033A
330
100000F0
100
AcDbEntity
  8
VISIBLE
  0
POLYLINE
  5
100000F3
102
{ACAD_XDICTIONARY
360
100000F4
102
}
330
1F
100
AcDbEntity
  8
VISIBLE
100
AcDb2dPolyline
 66
     1
 10
0.0
 20
0.0
 30
0.0
 70
   128
  0
VERTEX
  5
1000026B
330
100000F3
100
AcDbEntity
  8
VISIBLE
100
AcDbVertex
100
AcDb2dVertex
 10
-2.38928710144416
 20
4.127055627422839
 30
0.0
  0
VERTEX
  5
1000026C
330
100000F3
100
AcDbEntity
  8
VISIBLE
100
AcDbVertex
100
AcDb2dVertex
 10
-2.38605506354103
 20
4.129142011549406
 30
0.0
  0
VERTEX
  5
1000026D
330
100000F3
100
AcDbEntity
  8
VISIBLE
100
AcDbVertex
100
AcDb2dVertex
 10
-2.383856930235944
 20
4.131081444008241
 30
0.0
  0
SEQEND
  5
1000033B
330
100000F3
100
AcDbEntity
  8
VISIBLE
  0
LINE
  5
100000F6
102
{ACAD_XDICTIONARY
360
100000F7
102
}
330
1F
100
AcDbEntity
  8
VISIBLE
100
AcDbLine
 10
-2.383856930235944
 20
4.131081444008241
 30
0.0
 11
-2.376500786973583
 21
4.119873356637589
 31
0.0
  0
POLYLINE
  5
100000F9
102
{ACAD_XDICTIONARY
360
100000FA
102
}
330
1F
100
AcDbEntity
  8
VISIBLE
100
AcDb2dPolyline
 66
     1
 10
0.0
 20
0.0
 30
0.0
 70
   128
  0
VERTEX
  5
1000026E
330
100000F9
100
AcDbEntity
  8
VISIBLE
100
AcDbVertex
100
AcDb2dVertex
 10
-2.376500786973583
 20
4.119873356637589
 30
0.0
  0
VERTEX
  5
1000026F
330
100000F9
100
AcDbEntity
  8
VISIBLE
100
AcDbVertex
100
AcDb2dVertex
 10
-2.383251276223984
 20
4.113248098370086
 30
0.0
  0
VERTEX
  5
10000270
330
100000F9
100
AcDbEntity
  8
VISIBLE
100
AcDbVertex
100
AcDb2dVertex
 10
-2.389367350279749
 20
4.109507882040625
 30
0.0
  0
SEQEND
  5
1000033C
330
100000F9
100
AcDbEntity
  8
VISIBLE
  0
POLYLINE
  5
100000FC
102
{ACAD_XDICTIONARY
360
100000FD
102
}
330
1F
100
AcDbEntity
  8
VISIBLE
100
AcDb2dPolyline
 66
     1
 10
0.0
 20
0.0
 30
0.0
 70
   128
  0
VERTEX
  5
10000271
330
100000FC
100
AcDbEntity
  8
VISIBLE
100
AcDbVertex
100
AcDb2dVertex
 10
-2.389367350279749
 20
4.109507882040625
 30
0.0
  0
VERTEX
  5
10000272
330
100000FC
100
AcDbEntity
  8
VISIBLE
100
AcDbVertex
100
AcDb2dVertex
 10
-2.398864532475636
 20
4.10667131039928
 30
0.0
  0
VERTEX
  5
10000273
330
100000FC
100
AcDbEntity
  8
VISIBLE
100
AcDbVertex
100
AcDb2dVertex
 10
-2.408092078583941
 20
4.105990308080623
 30
0.0
  0
SEQEND
  5
1000033D
330
100000FC
100
AcDbEntity
  8
VISIBLE
  0
POLYLINE
  5
100000FF
102
{ACAD_XDICTIONARY
360
10000100
102
}
330
1F
100
AcDbEntity
  8
VISIBLE
100
AcDb2dPolyline
 66
     1
 10
0.0
 20
0.0
 30
0.0
 70
   128
  0
VERTEX
  5
10000274
330
100000FF
100
AcDbEntity
  8
VISIBLE
100
AcDbVertex
100
AcDb2dVertex
 10
-2.408092078583941
 20
4.105990308080623
 30
0.0
  0
VERTEX
  5
10000275
330
100000FF
100
AcDbEntity
  8
VISIBLE
100
AcDbVertex
100
AcDb2dVertex
 10
-2.418029067198237
 20
4.107168917379003
 30
0.0
  0
VERTEX
  5
10000276
330
100000FF
100
AcDbEntity
  8
VISIBLE
100
AcDbVertex
100
AcDb2dVertex
 10
-2.425318828623798
 20
4.109748628547393
 30
0.0
  0
SEQEND
  5
1000033E
330
100000FF
100
AcDbEntity
  8
VISIBLE
  0
POLYLINE
  5
10000102
102
{ACAD_XDICTIONARY
360
10000103
102
}
330
1F
100
AcDbEntity
  8
VISIBLE
100
AcDb2dPolyline
 66
     1
 10
0.0
 20
0.0
 30
0.0
 70
   128
  0
VERTEX
  5
10000277
330
10000102
100
AcDbEntity
  8
VISIBLE
100
AcDbVertex
100
AcDb2dVertex
 10
-2.425318828623798
 20
4.109748628547393
 30
0.0
  0
VERTEX
  5
10000278
330
10000102
100
AcDbEntity
  8
VISIBLE
100
AcDbVertex
100
AcDb2dVertex
 10
-2.433572688860286
 20
4.114826175672184
 30
0.0
  0
VERTEX
  5
10000279
330
10000102
100
AcDbEntity
  8
VISIBLE
100
AcDbVertex
100
AcDb2dVertex
 10
-2.439028004703653
 20
4.120033854308767
 30
0.0
  0
SEQEND
  5
1000033F
330
10000102
100
AcDbEntity
  8
VISIBLE
  0
POLYLINE
  5
10000105
102
{ACAD_XDICTIONARY
360
10000106
102
}
330
1F
100
AcDbEntity
  8
VISIBLE
100
AcDb2dPolyline
 66
     1
 10
0.0
 20
0.0
 30
0.0
 70
   128
  0
VERTEX
  5
1000027A
330
10000105
100
AcDbEntity
  8
VISIBLE
100
AcDbVertex
100
AcDb2dVertex
 10
-2.439028004703653
 20
4.120033854308767
 30
0.0
  0
VERTEX
  5
1000027B
330
10000105
100
AcDbEntity
  8
VISIBLE
100
AcDbVertex
100
AcDb2dVertex
 10
-2.444660402977555
 20
4.128023471179426
 30
0.0
  0
VERTEX
  5
1000027C
330
10000105
100
AcDbEntity
  8
VISIBLE
100
AcDbVertex
100
AcDb2dVertex
 10
-2.44805599870746
 20
4.135254383458889
 30
0.0
  0
SEQEND
  5
10000340
330
10000105
100
AcDbEntity
  8
VISIBLE
  0
POLYLINE
  5
10000108
102
{ACAD_XDICTIONARY
360
10000109
102
}
330
1F
100
AcDbEntity
  8
VISIBLE
100
AcDb2dPolyline
 66
     1
 10
0.0
 20
0.0
 30
0.0
 70
   128
  0
VERTEX
  5
1000027D
330
10000108
100
AcDbEntity
  8
VISIBLE
100
AcDbVertex
100
AcDb2dVertex
 10
-2.44805599870746
 20
4.135254383458889
 30
0.0
  0
VERTEX
  5
1000027E
330
10000108
100
AcDbEntity
  8
VISIBLE
100
AcDbVertex
100
AcDb2dVertex
 10
-2.450752359583264
 20
4.145410676091084
 30
0.0
  0
VERTEX
  5
1000027F
330
10000108
100
AcDbEntity
  8
VISIBLE
100
AcDbVertex
100
AcDb2dVertex
 10
-2.451399700190352
 20
4.153979111763082
 30
0.0
  0
SEQEND
  5
10000341
330
10000108
100
AcDbEntity
  8
VISIBLE
  0
POLYLINE
  5
1000010B
102
{ACAD_XDICTIONARY
360
1000010C
102
}
330
1F
100
AcDbEntity
  8
VISIBLE
100
AcDb2dPolyline
 66
     1
 10
0.0
 20
0.0
 30
0.0
 70
   128
  0
VERTEX
  5
10000280
330
1000010B
100
AcDbEntity
  8
VISIBLE
100
AcDbVertex
100
AcDb2dVertex
 10
-2.451399700190352
 20
4.153979111763082
 30
0.0
  0
VERTEX
  5
10000281
330
1000010B
100
AcDbEntity
  8
VISIBLE
100
AcDbVertex
100
AcDb2dVertex
 10
-2.45043080784898
 20
4.164334335908779
 30
0.0
  0
VERTEX
  5
10000282
330
1000010B
100
AcDbEntity
  8
VISIBLE
100
AcDbVertex
100
AcDb2dVertex
 10
-2.44831012002016
 20
4.172035099770696
 30
0.0
  0
SEQEND
  5
10000342
330
1000010B
100
AcDbEntity
  8
VISIBLE
  0
POLYLINE
  5
1000010E
102
{ACAD_XDICTIONARY
360
1000010F
102
}
330
1F
100
AcDbEntity
  8
VISIBLE
100
AcDb2dPolyline
 66
     1
 10
0.0
 20
0.0
 30
0.0
 70
   128
  0
VERTEX
  5
10000283
330
1000010E
100
AcDbEntity
  8
VISIBLE
100
AcDbVertex
100
AcDb2dVertex
 10
-2.44831012002016
 20
4.172035099770696
 30
0.0
  0
VERTEX
  5
10000284
330
1000010E
100
AcDbEntity
  8
VISIBLE
100
AcDbVertex
100
AcDb2dVertex
 10
-2.444140946914862
 20
4.180933689852154
 30
0.0
  0
VERTEX
  5
10000285
330
1000010E
100
AcDbEntity
  8
VISIBLE
100
AcDbVertex
100
AcDb2dVertex
 10
-2.439870617477342
 20
4.187001507608118
 30
0.0
  0
SEQEND
  5
10000343
330
1000010E
100
AcDbEntity
  8
VISIBLE
  0
POLYLINE
  5
10000111
102
{ACAD_XDICTIONARY
360
10000112
102
}
330
1F
100
AcDbEntity
  8
VISIBLE
100
AcDb2dPolyline
 66
     1
 10
0.0
 20
0.0
 30
0.0
 70
   128
  0
VERTEX
  5
10000286
330
10000111
100
AcDbEntity
  8
VISIBLE
100
AcDbVertex
100
AcDb2dVertex
 10
-2.439870617477342
 20
4.187001507608118
 30
0.0
  0
VERTEX
  5
10000287
330
10000111
100
AcDbEntity
  8
VISIBLE
100
AcDbVertex
100
AcDb2dVertex
 10
-2.433325051653502
 20
4.193447607675206
 30
0.0
  0
VERTEX
  5
10000288
330
10000111
100
AcDbEntity
  8
VISIBLE
100
AcDbVertex
100
AcDb2dVertex
 10
-2.427405298349123
 20
4.197447231040671
 30
0.0
  0
SEQEND
  5
10000344
330
10000111
100
AcDbEntity
  8
VISIBLE
  0
POLYLINE
  5
10000114
102
{ACAD_XDICTIONARY
360
10000115
102
}
330
1F
100
AcDbEntity
  8
VISIBLE
100
AcDb2dPolyline
 66
     1
 10
0.0
 20
0.0
 30
0.0
 70
   128
  0
VERTEX
  5
10000289
330
10000114
100
AcDbEntity
  8
VISIBLE
100
AcDbVertex
100
AcDb2dVertex
 10
-2.427405298349123
 20
4.197447231040671
 30
0.0
  0
VERTEX
  5
1000028A
330
10000114
100
AcDbEntity
  8
VISIBLE
100
AcDbVertex
100
AcDb2dVertex
 10
-2.419100506851648
 20
4.200842248978961
 30
0.0
  0
VERTEX
  5
1000028B
330
10000114
100
AcDbEntity
  8
VISIBLE
100
AcDbVertex
100
AcDb2dVertex
 10
-2.412104520363411
 20
4.20196791544554
 30
0.0
  0
SEQEND
  5
10000345
330
10000114
100
AcDbEntity
  8
VISIBLE
  0
LINE
  5
10000117
102
{ACAD_XDICTIONARY
360
10000118
102
}
330
1F
100
AcDbEntity
  8
VISIBLE
100
AcDbLine
 10
-2.412104520363411
 20
4.20196791544554
 30
0.0
 11
-2.412104520363411
 21
4.185918148327661
 31
0.0
  0
POLYLINE
  5
1000011A
102
{ACAD_XDICTIONARY
360
1000011B
102
}
330
1F
100
AcDbEntity
  8
VISIBLE
100
AcDb2dPolyline
 66
     1
 10
0.0
 20
0.0
 30
0.0
 70
   128
  0
VERTEX
  5
1000028C
330
1000011A
100
AcDbEntity
  8
VISIBLE
100
AcDbVertex
100
AcDb2dVertex
 10
-2.412104520363411
 20
4.185918148327661
 30
0.0
  0
VERTEX
  5
1000028D
330
1000011A
100
AcDbEntity
  8
VISIBLE
100
AcDbVertex
100
AcDb2dVertex
 10
-2.418345697003938
 20
4.183761059627018
 30
0.0
  0
VERTEX
  5
1000028E
330
1000011A
100
AcDbEntity
  8
VISIBLE
100
AcDbVertex
100
AcDb2dVertex
 10
-2.422296122483265
 20
4.180889221297392
 30
0.0
  0
SEQEND
  5
10000346
330
1000011A
100
AcDbEntity
  8
VISIBLE
  0
POLYLINE
  5
1000011D
102
{ACAD_XDICTIONARY
360
1000011E
102
}
330
1F
100
AcDbEntity
  8
VISIBLE
100
AcDb2dPolyline
 66
     1
 10
0.0
 20
0.0
 30
0.0
 70
   128
  0
VERTEX
  5
1000028F
330
1000011D
100
AcDbEntity
  8
VISIBLE
100
AcDbVertex
100
AcDb2dVertex
 10
-2.422296122483265
 20
4.180889221297392
 30
0.0
  0
VERTEX
  5
10000290
330
1000011D
100
AcDbEntity
  8
VISIBLE
100
AcDbVertex
100
AcDb2dVertex
 10
-2.426240598848913
 20
4.176239496764896
 30
0.0
  0
VERTEX
  5
10000291
330
1000011D
100
AcDbEntity
  8
VISIBLE
100
AcDbVertex
100
AcDb2dVertex
 10
-2.428568906465169
 20
4.172115348606285
 30
0.0
  0
SEQEND
  5
10000347
330
1000011D
100
AcDbEntity
  8
VISIBLE
  0
POLYLINE
  5
10000120
102
{ACAD_XDICTIONARY
360
10000121
102
}
330
1F
100
AcDbEntity
  8
VISIBLE
100
AcDb2dPolyline
 66
     1
 10
0.0
 20
0.0
 30
0.0
 70
   128
  0
VERTEX
  5
10000292
330
10000120
100
AcDbEntity
  8
VISIBLE
100
AcDbVertex
100
AcDb2dVertex
 10
-2.428568906465169
 20
4.172115348606285
 30
0.0
  0
VERTEX
  5
10000293
330
10000120
100
AcDbEntity
  8
VISIBLE
100
AcDbVertex
100
AcDb2dVertex
 10
-2.430681055817882
 20
4.166518901810728
 30
0.0
  0
VERTEX
  5
10000294
330
10000120
100
AcDbEntity
  8
VISIBLE
100
AcDbVertex
100
AcDb2dVertex
 10
-2.431752110276882
 20
4.162003995322021
 30
0.0
  0
SEQEND
  5
10000348
330
10000120
100
AcDbEntity
  8
VISIBLE
  0
POLYLINE
  5
10000123
102
{ACAD_XDICTIONARY
360
10000124
102
}
330
1F
100
AcDbEntity
  8
VISIBLE
100
AcDb2dPolyline
 66
     1
 10
0.0
 20
0.0
 30
0.0
 70
   128
  0
VERTEX
  5
10000295
330
10000123
100
AcDbEntity
  8
VISIBLE
100
AcDbVertex
100
AcDb2dVertex
 10
-2.431752110276882
 20
4.162003995322021
 30
0.0
  0
VERTEX
  5
10000296
330
10000123
100
AcDbEntity
  8
VISIBLE
100
AcDbVertex
100
AcDb2dVertex
 10
-2.432496305878603
 20
4.156669994318376
 30
0.0
  0
VERTEX
  5
10000297
330
10000123
100
AcDbEntity
  8
VISIBLE
100
AcDbVertex
100
AcDb2dVertex
 10
-2.43267497188616
 20
4.153149873795324
 30
0.0
  0
SEQEND
  5
10000349
330
10000123
100
AcDbEntity
  8
VISIBLE
  0
POLYLINE
  5
10000126
102
{ACAD_XDICTIONARY
360
10000127
102
}
330
1F
100
AcDbEntity
  8
VISIBLE
100
AcDb2dPolyline
 66
     1
 10
0.0
 20
0.0
 30
0.0
 70
   128
  0
VERTEX
  5
10000298
330
10000126
100
AcDbEntity
  8
VISIBLE
100
AcDbVertex
100
AcDb2dVertex
 10
-2.43267497188616
 20
4.153149873795324
 30
0.0
  0
VERTEX
  5
10000299
330
10000126
100
AcDbEntity
  8
VISIBLE
100
AcDbVertex
100
AcDb2dVertex
 10
-2.432175845528483
 20
4.146129149266038
 30
0.0
  0
VERTEX
  5
1000029A
330
10000126
100
AcDbEntity
  8
VISIBLE
100
AcDbVertex
100
AcDb2dVertex
 10
-2.431083369980303
 20
4.141018924815394
 30
0.0
  0
SEQEND
  5
1000034A
330
10000126
100
AcDbEntity
  8
VISIBLE
  0
POLYLINE
  5
10000129
102
{ACAD_XDICTIONARY
360
1000012A
102
}
330
1F
100
AcDbEntity
  8
VISIBLE
100
AcDb2dPolyline
 66
     1
 10
0.0
 20
0.0
 30
0.0
 70
   128
  0
VERTEX
  5
1000029B
330
10000129
100
AcDbEntity
  8
VISIBLE
100
AcDbVertex
100
AcDb2dVertex
 10
-2.431083369980303
 20
4.141018924815394
 30
0.0
  0
VERTEX
  5
1000029C
330
10000129
100
AcDbEntity
  8
VISIBLE
100
AcDbVertex
100
AcDb2dVertex
 10
-2.428751317418386
 20
4.135216356210665
 30
0.0
  0
VERTEX
  5
1000029D
330
10000129
100
AcDbEntity
  8
VISIBLE
100
AcDbVertex
100
AcDb2dVertex
 10
-2.426148066591556
 20
4.131322190515009
 30
0.0
  0
SEQEND
  5
1000034B
330
10000129
100
AcDbEntity
  8
VISIBLE
  0
POLYLINE
  5
1000012C
102
{ACAD_XDICTIONARY
360
1000012D
102
}
330
1F
100
AcDbEntity
  8
VISIBLE
100
AcDb2dPolyline
 66
     1
 10
0.0
 20
0.0
 30
0.0
 70
   128
  0
VERTEX
  5
1000029E
330
1000012C
100
AcDbEntity
  8
VISIBLE
100
AcDbVertex
100
AcDb2dVertex
 10
-2.426148066591556
 20
4.131322190515009
 30
0.0
  0
VERTEX
  5
1000029F
330
1000012C
100
AcDbEntity
  8
VISIBLE
100
AcDbVertex
100
AcDb2dVertex
 10
-2.42190399457304
 20
4.12726266941866
 30
0.0
  0
VERTEX
  5
100002A0
330
1000012C
100
AcDbEntity
  8
VISIBLE
100
AcDbVertex
100
AcDb2dVertex
 10
-2.417869061719916
 20
4.124808660026337
 30
0.0
  0
SEQEND
  5
1000034C
330
1000012C
100
AcDbEntity
  8
VISIBLE
  0
LINE
  5
1000012F
102
{ACAD_XDICTIONARY
360
10000130
102
}
330
1F
100
AcDbEntity
  8
VISIBLE
100
AcDbLine
 10
-2.40525661972645
 20
4.186078645998839
 30
0.0
 11
-2.40525661972645
 21
4.201780668162498
 31
0.0
  0
POLYLINE
  5
10000132
102
{ACAD_XDICTIONARY
360
10000133
102
}
330
1F
100
AcDbEntity
  8
VISIBLE
100
AcDb2dPolyline
 66
     1
 10
0.0
 20
0.0
 30
0.0
 70
   128
  0
VERTEX
  5
100002A1
330
10000132
100
AcDbEntity
  8
VISIBLE
100
AcDbVertex
100
AcDb2dVertex
 10
-2.40525661972645
 20
4.201780668162498
 30
0.0
  0
VERTEX
  5
100002A2
330
10000132
100
AcDbEntity
  8
VISIBLE
100
AcDbVertex
100
AcDb2dVertex
 10
-2.395688133765181
 20
4.199853668923257
 30
0.0
  0
VERTEX
  5
100002A3
330
10000132
100
AcDbEntity
  8
VISIBLE
100
AcDbVertex
100
AcDb2dVertex
 10
-2.388952731295871
 20
4.196938988415272
 30
0.0
  0
SEQEND
  5
1000034D
330
10000132
100
AcDbEntity
  8
VISIBLE
  0
POLYLINE
  5
10000135
102
{ACAD_XDICTIONARY
360
10000136
102
}
330
1F
100
AcDbEntity
  8
VISIBLE
100
AcDb2dPolyline
 66
     1
 10
0.0
 20
0.0
 30
0.0
 70
   128
  0
VERTEX
  5
100002A4
330
10000135
100
AcDbEntity
  8
VISIBLE
100
AcDbVertex
100
AcDb2dVertex
 10
-2.388952731295871
 20
4.196938988415272
 30
0.0
  0
VERTEX
  5
100002A5
330
10000135
100
AcDbEntity
  8
VISIBLE
100
AcDbVertex
100
AcDb2dVertex
 10
-2.381468831887251
 20
4.191711044272742
 30
0.0
  0
VERTEX
  5
100002A6
330
10000135
100
AcDbEntity
  8
VISIBLE
100
AcDbVertex
100
AcDb2dVertex
 10
-2.376500786973583
 20
4.186573513818308
 30
0.0
  0
SEQEND
  5
1000034E
330
10000135
100
AcDbEntity
  8
VISIBLE
  0
POLYLINE
  5
10000138
102
{ACAD_XDICTIONARY
360
10000139
102
}
330
1F
100
AcDbEntity
  8
VISIBLE
100
AcDb2dPolyline
 66
     1
 10
0.0
 20
0.0
 30
0.0
 70
   128
  0
VERTEX
  5
100002A7
330
10000138
100
AcDbEntity
  8
VISIBLE
100
AcDbVertex
100
AcDb2dVertex
 10
-2.376500786973583
 20
4.186573513818308
 30
0.0
  0
VERTEX
  5
100002A8
330
10000138
100
AcDbEntity
  8
VISIBLE
100
AcDbVertex
100
AcDb2dVertex
 10
-2.371452001031467
 20
4.178883492600516
 30
0.0
  0
VERTEX
  5
100002A9
330
10000138
100
AcDbEntity
  8
VISIBLE
100
AcDbVertex
100
AcDb2dVertex
 10
-2.368556152250233
 20
4.172035099770696
 30
0.0
  0
SEQEND
  5
1000034F
330
10000138
100
AcDbEntity
  8
VISIBLE
  0
POLYLINE
  5
1000013B
102
{ACAD_XDICTIONARY
360
1000013C
102
}
330
1F
100
AcDbEntity
  8
VISIBLE
100
AcDb2dPolyline
 66
     1
 10
0.0
 20
0.0
 30
0.0
 70
   128
  0
VERTEX
  5
100002AA
330
1000013B
100
AcDbEntity
  8
VISIBLE
100
AcDbVertex
100
AcDb2dVertex
 10
-2.368556152250233
 20
4.172035099770696
 30
0.0
  0
VERTEX
  5
100002AB
330
1000013B
100
AcDbEntity
  8
VISIBLE
100
AcDbVertex
100
AcDb2dVertex
 10
-2.36633435088857
 20
4.162649367157676
 30
0.0
  0
VERTEX
  5
100002AC
330
1000013B
100
AcDbEntity
  8
VISIBLE
100
AcDbVertex
100
AcDb2dVertex
 10
-2.36580094222833
 20
4.154968847402018
 30
0.0
  0
SEQEND
  5
10000350
330
1000013B
100
AcDbEntity
  8
VISIBLE
  0
POLYLINE
  5
1000013E
102
{ACAD_XDICTIONARY
360
1000013F
102
}
330
1F
100
AcDbEntity
  8
VISIBLE
100
AcDb2dPolyline
 66
     1
 10
0.0
 20
0.0
 30
0.0
 70
   128
  0
VERTEX
  5
100002AD
330
1000013E
100
AcDbEntity
  8
VISIBLE
100
AcDbVertex
100
AcDb2dVertex
 10
-2.36580094222833
 20
4.154968847402018
 30
0.0
  0
VERTEX
  5
100002AE
330
1000013E
100
AcDbEntity
  8
VISIBLE
100
AcDbVertex
100
AcDb2dVertex
 10
-2.365960327115655
 20
4.150474912609011
 30
0.0
  0
VERTEX
  5
100002AF
330
1000013E
100
AcDbEntity
  8
VISIBLE
100
AcDbVertex
100
AcDb2dVertex
 10
-2.36630918485373
 20
4.146943963843078
 30
0.0
  0
SEQEND
  5
10000351
330
1000013E
100
AcDbEntity
  8
VISIBLE
  0
LINE
  5
10000141
102
{ACAD_XDICTIONARY
360
10000142
102
}
330
1F
100
AcDbEntity
  8
VISIBLE
100
AcDbLine
 10
-2.36630918485373
 20
4.146943963843078
 30
0.0
 11
-2.423633603076421
 21
4.146943963843079
 31
0.0
  0
LINE
  5
10000144
102
{ACAD_XDICTIONARY
360
10000145
102
}
330
1F
100
AcDbEntity
  8
VISIBLE
100
AcDbLine
 10
-2.423633603076421
 20
4.146943963843079
 30
0.0
 11
-2.423633603076421
 21
4.161656250367801
 31
0.0
  0
LINE
  5
10000147
102
{ACAD_XDICTIONARY
360
10000148
102
}
330
1F
100
AcDbEntity
  8
VISIBLE
100
AcDbLine
 10
-2.423633603076421
 20
4.161656250367801
 30
0.0
 11
-2.385033913157922
 21
4.161656250367801
 31
0.0
  0
POLYLINE
  5
1000014A
102
{ACAD_XDICTIONARY
360
1000014B
102
}
330
1F
100
AcDbEntity
  8
VISIBLE
100
AcDb2dPolyline
 66
     1
 10
0.0
 20
0.0
 30
0.0
 70
   128
  0
VERTEX
  5
100002B0
330
1000014A
100
AcDbEntity
  8
VISIBLE
100
AcDbVertex
100
AcDb2dVertex
 10
-2.385033913157922
 20
4.161656250367801
 30
0.0
  0
VERTEX
  5
100002B1
330
1000014A
100
AcDbEntity
  8
VISIBLE
100
AcDbVertex
100
AcDb2dVertex
 10
-2.385478513106777
 20
4.166430606691891
 30
0.0
  0
VERTEX
  5
100002B2
330
1000014A
100
AcDbEntity
  8
VISIBLE
100
AcDbVertex
100
AcDb2dVertex
 10
-2.386451642586668
 20
4.170028878880961
 30
0.0
  0
SEQEND
  5
10000352
330
1000014A
100
AcDbEntity
  8
VISIBLE
  0
POLYLINE
  5
1000014D
102
{ACAD_XDICTIONARY
360
1000014E
102
}
330
1F
100
AcDbEntity
  8
VISIBLE
100
AcDb2dPolyline
 66
     1
 10
0.0
 20
0.0
 30
0.0
 70
   128
  0
VERTEX
  5
100002B3
330
1000014D
100
AcDbEntity
  8
VISIBLE
100
AcDbVertex
100
AcDb2dVertex
 10
-2.386451642586668
 20
4.170028878880961
 30
0.0
  0
VERTEX
  5
100002B4
330
1000014D
100
AcDbEntity
  8
VISIBLE
100
AcDbVertex
100
AcDb2dVertex
 10
-2.388458933460878
 20
4.174338262751801
 30
0.0
  0
VERTEX
  5
100002B5
330
1000014D
100
AcDbEntity
  8
VISIBLE
100
AcDbVertex
100
AcDb2dVertex
 10
-2.390624582037316
 20
4.177465270978912
 30
0.0
  0
SEQEND
  5
10000353
330
1000014D
100
AcDbEntity
  8
VISIBLE
  0
POLYLINE
  5
10000150
102
{ACAD_XDICTIONARY
360
10000151
102
}
330
1F
100
AcDbEntity
  8
VISIBLE
100
AcDb2dPolyline
 66
     1
 10
0.0
 20
0.0
 30
0.0
 70
   128
  0
VERTEX
  5
100002B6
330
10000150
100
AcDbEntity
  8
VISIBLE
100
AcDbVertex
100
AcDb2dVertex
 10
-2.390624582037316
 20
4.177465270978912
 30
0.0
  0
VERTEX
  5
100002B7
330
10000150
100
AcDbEntity
  8
VISIBLE
100
AcDbVertex
100
AcDb2dVertex
 10
-2.393999826662517
 20
4.180960353865259
 30
0.0
  0
VERTEX
  5
100002B8
330
10000150
100
AcDbEntity
  8
VISIBLE
100
AcDbVertex
100
AcDb2dVertex
 10
-2.3970578636904
 20
4.183229812335417
 30
0.0
  0
SEQEND
  5
10000354
330
10000150
100
AcDbEntity
  8
VISIBLE
  0
POLYLINE
  5
10000153
102
{ACAD_XDICTIONARY
360
10000154
102
}
330
1F
100
AcDbEntity
  8
VISIBLE
100
AcDb2dPolyline
 66
     1
 10
0.0
 20
0.0
 30
0.0
 70
   128
  0
VERTEX
  5
100002B9
330
10000153
100
AcDbEntity
  8
VISIBLE
100
AcDbVertex
100
AcDb2dVertex
 10
-2.3970578636904
 20
4.183229812335417
 30
0.0
  0
VERTEX
  5
100002BA
330
10000153
100
AcDbEntity
  8
VISIBLE
100
AcDbVertex
100
AcDb2dVertex
 10
-2.401441547283151
 20
4.185276649835804
 30
0.0
  0
VERTEX
  5
100002BB
330
10000153
100
AcDbEntity
  8
VISIBLE
100
AcDbVertex
100
AcDb2dVertex
 10
-2.40525661972645
 20
4.186078645998839
 30
0.0
  0
SEQEND
  5
10000355
330
10000153
100
AcDbEntity
  8
VISIBLE
  0
POLYLINE
  5
10000156
102
{ACAD_XDICTIONARY
360
10000157
102
}
330
1F
100
AcDbEntity
  8
VISIBLE
100
AcDb2dPolyline
 66
     1
 10
0.0
 20
0.0
 30
0.0
 70
   128
  0
VERTEX
  5
100002BC
330
10000156
100
AcDbEntity
  8
VISIBLE
100
AcDbVertex
100
AcDb2dVertex
 10
-2.479152422498351
 20
4.239577869725104
 30
0.0
  0
VERTEX
  5
100002BD
330
10000156
100
AcDbEntity
  8
VISIBLE
100
AcDbVertex
100
AcDb2dVertex
 10
-2.476315850857005
 20
4.235175012010568
 30
0.0
  0
VERTEX
  5
100002BE
330
10000156
100
AcDbEntity
  8
VISIBLE
100
AcDbVertex
100
AcDb2dVertex
 10
-2.475634848538349
 20
4.231044743540765
 30
0.0
  0
SEQEND
  5
10000356
330
10000156
100
AcDbEntity
  8
VISIBLE
  0
POLYLINE
  5
10000159
102
{ACAD_XDICTIONARY
360
1000015A
102
}
330
1F
100
AcDbEntity
  8
VISIBLE
100
AcDb2dPolyline
 66
     1
 10
0.0
 20
0.0
 30
0.0
 70
   128
  0
VERTEX
  5
100002BF
330
10000159
100
AcDbEntity
  8
VISIBLE
100
AcDbVertex
100
AcDb2dVertex
 10
-2.475634848538349
 20
4.231044743540765
 30
0.0
  0
VERTEX
  5
100002C0
330
10000159
100
AcDbEntity
  8
VISIBLE
100
AcDbVertex
100
AcDb2dVertex
 10
-2.476737959732206
 20
4.225933042511547
 30
0.0
  0
VERTEX
  5
100002C1
330
10000159
100
AcDbEntity
  8
VISIBLE
100
AcDbVertex
100
AcDb2dVertex
 10
-2.479152422498351
 20
4.222605240997947
 30
0.0
  0
SEQEND
  5
10000357
330
10000159
100
AcDbEntity
  8
VISIBLE
  0
POLYLINE
  5
1000015C
102
{ACAD_XDICTIONARY
360
1000015D
102
}
330
1F
100
AcDbEntity
  8
VISIBLE
100
AcDb2dPolyline
 66
     1
 10
0.0
 20
0.0
 30
0.0
 70
   128
  0
VERTEX
  5
100002C2
330
1000015C
100
AcDbEntity
  8
VISIBLE
100
AcDbVertex
100
AcDb2dVertex
 10
-2.479152422498351
 20
4.222605240997947
 30
0.0
  0
VERTEX
  5
100002C3
330
1000015C
100
AcDbEntity
  8
VISIBLE
100
AcDbVertex
100
AcDb2dVertex
 10
-2.483557676978109
 20
4.21983338201762
 30
0.0
  0
VERTEX
  5
100002C4
330
1000015C
100
AcDbEntity
  8
VISIBLE
100
AcDbVertex
100
AcDb2dVertex
 10
-2.487672173876759
 20
4.219167915873534
 30
0.0
  0
SEQEND
  5
10000358
330
1000015C
100
AcDbEntity
  8
VISIBLE
  0
POLYLINE
  5
1000015F
102
{ACAD_XDICTIONARY
360
10000160
102
}
330
1F
100
AcDbEntity
  8
VISIBLE
100
AcDb2dPolyline
 66
     1
 10
0.0
 20
0.0
 30
0.0
 70
   128
  0
VERTEX
  5
100002C5
330
1000015F
100
AcDbEntity
  8
VISIBLE
100
AcDbVertex
100
AcDb2dVertex
 10
-2.487672173876759
 20
4.219167915873534
 30
0.0
  0
VERTEX
  5
100002C6
330
1000015F
100
AcDbEntity
  8
VISIBLE
100
AcDbVertex
100
AcDb2dVertex
 10
-2.492801251453843
 20
4.22027102706739
 30
0.0
  0
VERTEX
  5
100002C7
330
1000015F
100
AcDbEntity
  8
VISIBLE
100
AcDbVertex
100
AcDb2dVertex
 10
-2.496125051225508
 20
4.222685489833536
 30
0.0
  0
SEQEND
  5
10000359
330
1000015F
100
AcDbEntity
  8
VISIBLE
  0
POLYLINE
  5
10000162
102
{ACAD_XDICTIONARY
360
10000163
102
}
330
1F
100
AcDbEntity
  8
VISIBLE
100
AcDb2dPolyline
 66
     1
 10
0.0
 20
0.0
 30
0.0
 70
   128
  0
VERTEX
  5
100002C8
330
10000162
100
AcDbEntity
  8
VISIBLE
100
AcDbVertex
100
AcDb2dVertex
 10
-2.496125051225508
 20
4.222685489833536
 30
0.0
  0
VERTEX
  5
100002C9
330
10000162
100
AcDbEntity
  8
VISIBLE
100
AcDbVertex
100
AcDb2dVertex
 10
-2.498886124762331
 20
4.227040412243612
 30
0.0
  0
VERTEX
  5
100002CA
330
10000162
100
AcDbEntity
  8
VISIBLE
100
AcDbVertex
100
AcDb2dVertex
 10
-2.499549001543989
 20
4.231044743540765
 30
0.0
  0
SEQEND
  5
1000035A
330
10000162
100
AcDbEntity
  8
VISIBLE
  0
POLYLINE
  5
10000165
102
{ACAD_XDICTIONARY
360
10000166
102
}
330
1F
100
AcDbEntity
  8
VISIBLE
100
AcDb2dPolyline
 66
     1
 10
0.0
 20
0.0
 30
0.0
 70
   128
  0
VERTEX
  5
100002CB
330
10000165
100
AcDbEntity
  8
VISIBLE
100
AcDbVertex
100
AcDb2dVertex
 10
-2.499549001543989
 20
4.231044743540765
 30
0.0
  0
VERTEX
  5
100002CC
330
10000165
100
AcDbEntity
  8
VISIBLE
100
AcDbVertex
100
AcDb2dVertex
 10
-2.498450084689273
 20
4.23619898715269
 30
0.0
  0
VERTEX
  5
100002CD
330
10000165
100
AcDbEntity
  8
VISIBLE
100
AcDbVertex
100
AcDb2dVertex
 10
-2.496044802389919
 20
4.239577869725104
 30
0.0
  0
SEQEND
  5
1000035B
330
10000165
100
AcDbEntity
  8
VISIBLE
  0
POLYLINE
  5
10000168
102
{ACAD_XDICTIONARY
360
10000169
102
}
330
1F
100
AcDbEntity
  8
VISIBLE
100
AcDb2dPolyline
 66
     1
 10
0.0
 20
0.0
 30
0.0
 70
   128
  0
VERTEX
  5
100002CE
330
10000168
100
AcDbEntity
  8
VISIBLE
100
AcDbVertex
100
AcDb2dVertex
 10
-2.496044802389919
 20
4.239577869725104
 30
0.0
  0
VERTEX
  5
100002CF
330
10000168
100
AcDbEntity
  8
VISIBLE
100
AcDbVertex
100
AcDb2dVertex
 10
-2.491692276745066
 20
4.242403655922946
 30
0.0
  0
VERTEX
  5
100002D0
330
10000168
100
AcDbEntity
  8
VISIBLE
100
AcDbVertex
100
AcDb2dVertex
 10
-2.487672173876759
 20
4.243082068879174
 30
0.0
  0
SEQEND
  5
1000035C
330
10000168
100
AcDbEntity
  8
VISIBLE
  0
POLYLINE
  5
1000016B
102
{ACAD_XDICTIONARY
360
1000016C
102
}
330
1F
100
AcDbEntity
  8
VISIBLE
100
AcDb2dPolyline
 66
     1
 10
0.0
 20
0.0
 30
0.0
 70
   128
  0
VERTEX
  5
100002D1
330
1000016B
100
AcDbEntity
  8
VISIBLE
100
AcDbVertex
100
AcDb2dVertex
 10
-2.487672173876759
 20
4.243082068879174
 30
0.0
  0
VERTEX
  5
100002D2
330
1000016B
100
AcDbEntity
  8
VISIBLE
100
AcDbVertex
100
AcDb2dVertex
 10
-2.482535306812701
 20
4.241983152024457
 30
0.0
  0
VERTEX
  5
100002D3
330
1000016B
100
AcDbEntity
  8
VISIBLE
100
AcDbVertex
100
AcDb2dVertex
 10
-2.479152422498351
 20
4.239577869725104
 30
0.0
  0
SEQEND
  5
1000035D
330
1000016B
100
AcDbEntity
  8
VISIBLE
  0
LINE
  5
1000016E
102
{ACAD_XDICTIONARY
360
1000016F
102
}
330
1F
100
AcDbEntity
  8
VISIBLE
100
AcDbLine
 10
-2.477480571756905
 20
4.200951430194741
 30
0.0
 11
-2.477480571756905
 21
4.106659048377201
 31
0.0
  0
LINE
  5
10000171
102
{ACAD_XDICTIONARY
360
10000172
102
}
330
1F
100
AcDbEntity
  8
VISIBLE
100
AcDbLine
 10
-2.477480571756905
 20
4.106659048377201
 30
0.0
 11
-2.497890525608475
 21
4.106659048377201
 31
0.0
  0
LINE
  5
10000174
102
{ACAD_XDICTIONARY
360
10000175
102
}
330
1F
100
AcDbEntity
  8
VISIBLE
100
AcDbLine
 10
-2.497890525608475
 20
4.106659048377201
 30
0.0
 11
-2.497890525608476
 21
4.200951430194741
 31
0.0
  0
LINE
  5
10000177
102
{ACAD_XDICTIONARY
360
10000178
102
}
330
1F
100
AcDbEntity
  8
VISIBLE
100
AcDbLine
 10
-2.497890525608476
 20
4.200951430194741
 30
0.0
 11
-2.477480571756905
 21
4.200951430194741
 31
0.0
  0
LINE
  5
1000017A
102
{ACAD_XDICTIONARY
360
1000017B
102
}
330
1F
100
AcDbEntity
  8
VISIBLE
100
AcDbLine
 10
-2.570622720264331
 20
4.138598084941782
 30
0.0
 11
-2.544541848697777
 21
4.229867760618787
 31
0.0
  0
LINE
  5
1000017D
102
{ACAD_XDICTIONARY
360
1000017E
102
}
330
1F
100
AcDbEntity
  8
VISIBLE
100
AcDbLine
 10
-2.544541848697777
 20
4.229867760618787
 30
0.0
 11
-2.521804678614116
 21
4.229867760618786
 31
0.0
  0
LINE
  5
10000180
102
{ACAD_XDICTIONARY
360
10000181
102
}
330
1F
100
AcDbEntity
  8
VISIBLE
100
AcDbLine
 10
-2.521804678614116
 20
4.229867760618786
 30
0.0
 11
-2.561929096408813
 21
4.105990308080623
 31
0.0
  0
LINE
  5
10000183
102
{ACAD_XDICTIONARY
360
10000184
102
}
330
1F
100
AcDbEntity
  8
VISIBLE
100
AcDbLine
 10
-2.561929096408813
 20
4.105990308080623
 30
0.0
 11
-2.570622720264331
 21
4.105990308080623
 31
0.0
  0
LINE
  5
10000186
102
{ACAD_XDICTIONARY
360
10000187
102
}
330
1F
100
AcDbEntity
  8
VISIBLE
100
AcDbLine
 10
-2.570622720264331
 20
4.105990308080623
 30
0.0
 11
-2.570622720264331
 21
4.138598084941782
 31
0.0
  0
LINE
  5
10000189
102
{ACAD_XDICTIONARY
360
1000018A
102
}
330
1F
100
AcDbEntity
  8
VISIBLE
100
AcDbLine
 10
-2.588009967975367
 20
4.105990308080623
 30
0.0
 11
-2.626288662551509
 21
4.229867760618786
 31
0.0
  0
LINE
  5
1000018C
102
{ACAD_XDICTIONARY
360
1000018D
102
}
330
1F
100
AcDbEntity
  8
VISIBLE
100
AcDbLine
 10
-2.626288662551509
 20
4.229867760618786
 30
0.0
 11
-2.603390994796668
 21
4.229867760618787
 31
0.0
  0
LINE
  5
1000018F
102
{ACAD_XDICTIONARY
360
10000190
102
}
330
1F
100
AcDbEntity
  8
VISIBLE
100
AcDbLine
 10
-2.603390994796668
 20
4.229867760618787
 30
0.0
 11
-2.577470620901293
 21
4.133248162569155
 31
0.0
  0
LINE
  5
10000192
102
{ACAD_XDICTIONARY
360
10000193
102
}
330
1F
100
AcDbEntity
  8
VISIBLE
100
AcDbLine
 10
-2.577470620901293
 20
4.133248162569155
 30
0.0
 11
-2.577470620901293
 21
4.105990308080623
 31
0.0
  0
LINE
  5
10000195
102
{ACAD_XDICTIONARY
360
10000196
102
}
330
1F
100
AcDbEntity
  8
VISIBLE
100
AcDbLine
 10
-2.577470620901293
 20
4.105990308080623
 30
0.0
 11
-2.588009967975367
 21
4.105990308080623
 31
0.0
  0
POLYLINE
  5
10000198
102
{ACAD_XDICTIONARY
360
10000199
102
}
330
1F
100
AcDbEntity
  8
VISIBLE
100
AcDb2dPolyline
 66
     1
 10
0.0
 20
0.0
 30
0.0
 70
   128
  0
VERTEX
  5
100002D4
330
10000198
100
AcDbEntity
  8
VISIBLE
100
AcDbVertex
100
AcDb2dVertex
 10
-2.652035163969773
 20
4.239577869725104
 30
0.0
  0
VERTEX
  5
100002D5
330
10000198
100
AcDbEntity
  8
VISIBLE
100
AcDbVertex
100
AcDb2dVertex
 10
-2.649198592328427
 20
4.235175012010568
 30
0.0
  0
VERTEX
  5
100002D6
330
10000198
100
AcDbEntity
  8
VISIBLE
100
AcDbVertex
100
AcDb2dVertex
 10
-2.648517590009771
 20
4.231044743540765
 30
0.0
  0
SEQEND
  5
1000035E
330
10000198
100
AcDbEntity
  8
VISIBLE
  0
POLYLINE
  5
1000019B
102
{ACAD_XDICTIONARY
360
1000019C
102
}
330
1F
100
AcDbEntity
  8
VISIBLE
100
AcDb2dPolyline
 66
     1
 10
0.0
 20
0.0
 30
0.0
 70
   128
  0
VERTEX
  5
100002D7
330
1000019B
100
AcDbEntity
  8
VISIBLE
100
AcDbVertex
100
AcDb2dVertex
 10
-2.648517590009771
 20
4.231044743540765
 30
0.0
  0
VERTEX
  5
100002D8
330
1000019B
100
AcDbEntity
  8
VISIBLE
100
AcDbVertex
100
AcDb2dVertex
 10
-2.649620701203628
 20
4.225933042511547
 30
0.0
  0
VERTEX
  5
100002D9
330
1000019B
100
AcDbEntity
  8
VISIBLE
100
AcDbVertex
100
AcDb2dVertex
 10
-2.652035163969773
 20
4.222605240997947
 30
0.0
  0
SEQEND
  5
1000035F
330
1000019B
100
AcDbEntity
  8
VISIBLE
  0
POLYLINE
  5
1000019E
102
{ACAD_XDICTIONARY
360
1000019F
102
}
330
1F
100
AcDbEntity
  8
VISIBLE
100
AcDb2dPolyline
 66
     1
 10
0.0
 20
0.0
 30
0.0
 70
   128
  0
VERTEX
  5
100002DA
330
1000019E
100
AcDbEntity
  8
VISIBLE
100
AcDbVertex
100
AcDb2dVertex
 10
-2.652035163969773
 20
4.222605240997947
 30
0.0
  0
VERTEX
  5
100002DB
330
1000019E
100
AcDbEntity
  8
VISIBLE
100
AcDbVertex
100
AcDb2dVertex
 10
-2.65644041844953
 20
4.21983338201762
 30
0.0
  0
VERTEX
  5
100002DC
330
1000019E
100
AcDbEntity
  8
VISIBLE
100
AcDbVertex
100
AcDb2dVertex
 10
-2.66055491534818
 20
4.219167915873534
 30
0.0
  0
SEQEND
  5
10000360
330
1000019E
100
AcDbEntity
  8
VISIBLE
  0
POLYLINE
  5
100001A1
102
{ACAD_XDICTIONARY
360
100001A2
102
}
330
1F
100
AcDbEntity
  8
VISIBLE
100
AcDb2dPolyline
 66
     1
 10
0.0
 20
0.0
 30
0.0
 70
   128
  0
VERTEX
  5
100002DD
330
100001A1
100
AcDbEntity
  8
VISIBLE
100
AcDbVertex
100
AcDb2dVertex
 10
-2.66055491534818
 20
4.219167915873534
 30
0.0
  0
VERTEX
  5
100002DE
330
100001A1
100
AcDbEntity
  8
VISIBLE
100
AcDbVertex
100
AcDb2dVertex
 10
-2.665683992925264
 20
4.22027102706739
 30
0.0
  0
VERTEX
  5
100002DF
330
100001A1
100
AcDbEntity
  8
VISIBLE
100
AcDbVertex
100
AcDb2dVertex
 10
-2.66900779269693
 20
4.222685489833536
 30
0.0
  0
SEQEND
  5
10000361
330
100001A1
100
AcDbEntity
  8
VISIBLE
  0
POLYLINE
  5
100001A4
102
{ACAD_XDICTIONARY
360
100001A5
102
}
330
1F
100
AcDbEntity
  8
VISIBLE
100
AcDb2dPolyline
 66
     1
 10
0.0
 20
0.0
 30
0.0
 70
   128
  0
VERTEX
  5
100002E0
330
100001A4
100
AcDbEntity
  8
VISIBLE
100
AcDbVertex
100
AcDb2dVertex
 10
-2.66900779269693
 20
4.222685489833536
 30
0.0
  0
VERTEX
  5
100002E1
330
100001A4
100
AcDbEntity
  8
VISIBLE
100
AcDbVertex
100
AcDb2dVertex
 10
-2.671768866233753
 20
4.227040412243612
 30
0.0
  0
VERTEX
  5
100002E2
330
100001A4
100
AcDbEntity
  8
VISIBLE
100
AcDbVertex
100
AcDb2dVertex
 10
-2.672431743015411
 20
4.231044743540765
 30
0.0
  0
SEQEND
  5
10000362
330
100001A4
100
AcDbEntity
  8
VISIBLE
  0
POLYLINE
  5
100001A7
102
{ACAD_XDICTIONARY
360
100001A8
102
}
330
1F
100
AcDbEntity
  8
VISIBLE
100
AcDb2dPolyline
 66
     1
 10
0.0
 20
0.0
 30
0.0
 70
   128
  0
VERTEX
  5
100002E3
330
100001A7
100
AcDbEntity
  8
VISIBLE
100
AcDbVertex
100
AcDb2dVertex
 10
-2.672431743015411
 20
4.231044743540765
 30
0.0
  0
VERTEX
  5
100002E4
330
100001A7
100
AcDbEntity
  8
VISIBLE
100
AcDbVertex
100
AcDb2dVertex
 10
-2.671332826160695
 20
4.23619898715269
 30
0.0
  0
VERTEX
  5
100002E5
330
100001A7
100
AcDbEntity
  8
VISIBLE
100
AcDbVertex
100
AcDb2dVertex
 10
-2.66892754386134
 20
4.239577869725104
 30
0.0
  0
SEQEND
  5
10000363
330
100001A7
100
AcDbEntity
  8
VISIBLE
  0
POLYLINE
  5
100001AA
102
{ACAD_XDICTIONARY
360
100001AB
102
}
330
1F
100
AcDbEntity
  8
VISIBLE
100
AcDb2dPolyline
 66
     1
 10
0.0
 20
0.0
 30
0.0
 70
   128
  0
VERTEX
  5
100002E6
330
100001AA
100
AcDbEntity
  8
VISIBLE
100
AcDbVertex
100
AcDb2dVertex
 10
-2.66892754386134
 20
4.239577869725104
 30
0.0
  0
VERTEX
  5
100002E7
330
100001AA
100
AcDbEntity
  8
VISIBLE
100
AcDbVertex
100
AcDb2dVertex
 10
-2.664575018216487
 20
4.242403655922946
 30
0.0
  0
VERTEX
  5
100002E8
330
100001AA
100
AcDbEntity
  8
VISIBLE
100
AcDbVertex
100
AcDb2dVertex
 10
-2.66055491534818
 20
4.243082068879174
 30
0.0
  0
SEQEND
  5
10000364
330
100001AA
100
AcDbEntity
  8
VISIBLE
  0
POLYLINE
  5
100001AD
102
{ACAD_XDICTIONARY
360
100001AE
102
}
330
1F
100
AcDbEntity
  8
VISIBLE
100
AcDb2dPolyline
 66
     1
 10
0.0
 20
0.0
 30
0.0
 70
   128
  0
VERTEX
  5
100002E9
330
100001AD
100
AcDbEntity
  8
VISIBLE
100
AcDbVertex
100
AcDb2dVertex
 10
-2.66055491534818
 20
4.243082068879174
 30
0.0
  0
VERTEX
  5
100002EA
330
100001AD
100
AcDbEntity
  8
VISIBLE
100
AcDbVertex
100
AcDb2dVertex
 10
-2.655418048284121
 20
4.241983152024457
 30
0.0
  0
VERTEX
  5
100002EB
330
100001AD
100
AcDbEntity
  8
VISIBLE
100
AcDbVertex
100
AcDb2dVertex
 10
-2.652035163969773
 20
4.239577869725104
 30
0.0
  0
SEQEND
  5
10000365
330
100001AD
100
AcDbEntity
  8
VISIBLE
  0
LINE
  5
100001B0
102
{ACAD_XDICTIONARY
360
100001B1
102
}
330
1F
100
AcDbEntity
  8
VISIBLE
100
AcDbLine
 10
-2.650363313228327
 20
4.200951430194741
 30
0.0
 11
-2.650363313228327
 21
4.106659048377201
 31
0.0
  0
LINE
  5
100001B3
102
{ACAD_XDICTIONARY
360
100001B4
102
}
330
1F
100
AcDbEntity
  8
VISIBLE
100
AcDbLine
 10
-2.650363313228327
 20
4.106659048377201
 30
0.0
 11
-2.670773267079896
 21
4.106659048377201
 31
0.0
  0
LINE
  5
100001B6
102
{ACAD_XDICTIONARY
360
100001B7
102
}
330
1F
100
AcDbEntity
  8
VISIBLE
100
AcDbLine
 10
-2.670773267079896
 20
4.106659048377201
 30
0.0
 11
-2.670773267079896
 21
4.200951430194741
 31
0.0
  0
LINE
  5
100001B9
102
{ACAD_XDICTIONARY
360
100001BA
102
}
330
1F
100
AcDbEntity
  8
VISIBLE
100
AcDbLine
 10
-2.670773267079896
 20
4.200951430194741
 30
0.0
 11
-2.650363313228327
 21
4.200951430194741
 31
0.0
  0
POLYLINE
  5
100001BC
102
{ACAD_XDICTIONARY
360
100001BD
102
}
330
1F
100
AcDbEntity
  8
VISIBLE
100
AcDb2dPolyline
 66
     1
 10
0.0
 20
0.0
 30
0.0
 70
   128
  0
VERTEX
  5
100002EC
330
100001BC
100
AcDbEntity
  8
VISIBLE
100
AcDbVertex
100
AcDb2dVertex
 10
-2.71675584987262
 20
4.198864960469416
 30
0.0
  0
VERTEX
  5
100002ED
330
100001BC
100
AcDbEntity
  8
VISIBLE
100
AcDbVertex
100
AcDb2dVertex
 10
-2.710943694206998
 20
4.194743722668578
 30
0.0
  0
VERTEX
  5
100002EE
330
100001BC
100
AcDbEntity
  8
VISIBLE
100
AcDbVertex
100
AcDb2dVertex
 10
-2.706377000469725
 20
4.190599330403709
 30
0.0
  0
SEQEND
  5
10000366
330
100001BC
100
AcDbEntity
  8
VISIBLE
  0
POLYLINE
  5
100001BF
102
{ACAD_XDICTIONARY
360
100001C0
102
}
330
1F
100
AcDbEntity
  8
VISIBLE
100
AcDb2dPolyline
 66
     1
 10
0.0
 20
0.0
 30
0.0
 70
   128
  0
VERTEX
  5
100002EF
330
100001BF
100
AcDbEntity
  8
VISIBLE
100
AcDbVertex
100
AcDb2dVertex
 10
-2.706377000469725
 20
4.190599330403709
 30
0.0
  0
VERTEX
  5
100002F0
330
100001BF
100
AcDbEntity
  8
VISIBLE
100
AcDbVertex
100
AcDb2dVertex
 10
-2.703591360089367
 20
4.187112636195642
 30
0.0
  0
VERTEX
  5
100002F1
330
100001BF
100
AcDbEntity
  8
VISIBLE
100
AcDbVertex
100
AcDb2dVertex
 10
-2.701949939706377
 20
4.183978801467584
 30
0.0
  0
SEQEND
  5
10000367
330
100001BF
100
AcDbEntity
  8
VISIBLE
  0
POLYLINE
  5
100001C2
102
{ACAD_XDICTIONARY
360
100001C3
102
}
330
1F
100
AcDbEntity
  8
VISIBLE
100
AcDb2dPolyline
 66
     1
 10
0.0
 20
0.0
 30
0.0
 70
   128
  0
VERTEX
  5
100002F2
330
100001C2
100
AcDbEntity
  8
VISIBLE
100
AcDbVertex
100
AcDb2dVertex
 10
-2.701949939706377
 20
4.183978801467584
 30
0.0
  0
VERTEX
  5
100002F3
330
100001C2
100
AcDbEntity
  8
VISIBLE
100
AcDbVertex
100
AcDb2dVertex
 10
-2.700431588937646
 20
4.179664624066298
 30
0.0
  0
VERTEX
  5
100002F4
330
100001C2
100
AcDbEntity
  8
VISIBLE
100
AcDbVertex
100
AcDb2dVertex
 10
-2.699609348668352
 20
4.176127790385754
 30
0.0
  0
SEQEND
  5
10000368
330
100001C2
100
AcDbEntity
  8
VISIBLE
  0
POLYLINE
  5
100001C5
102
{ACAD_XDICTIONARY
360
100001C6
102
}
330
1F
100
AcDbEntity
  8
VISIBLE
100
AcDb2dPolyline
 66
     1
 10
0.0
 20
0.0
 30
0.0
 70
   128
  0
VERTEX
  5
100002F5
330
100001C5
100
AcDbEntity
  8
VISIBLE
100
AcDbVertex
100
AcDb2dVertex
 10
-2.699609348668352
 20
4.176127790385754
 30
0.0
  0
VERTEX
  5
100002F6
330
100001C5
100
AcDbEntity
  8
VISIBLE
100
AcDbVertex
100
AcDb2dVertex
 10
-2.698955031762491
 20
4.171514616522908
 30
0.0
  0
VERTEX
  5
100002F7
330
100001C5
100
AcDbEntity
  8
VISIBLE
100
AcDbVertex
100
AcDb2dVertex
 10
-2.698699861865006
 20
4.167848785514115
 30
0.0
  0
SEQEND
  5
10000369
330
100001C5
100
AcDbEntity
  8
VISIBLE
  0
POLYLINE
  5
100001C8
102
{ACAD_XDICTIONARY
360
100001C9
102
}
330
1F
100
AcDbEntity
  8
VISIBLE
100
AcDb2dPolyline
 66
     1
 10
0.0
 20
0.0
 30
0.0
 70
   128
  0
VERTEX
  5
100002F8
330
100001C8
100
AcDbEntity
  8
VISIBLE
100
AcDbVertex
100
AcDb2dVertex
 10
-2.698699861865006
 20
4.167848785514115
 30
0.0
  0
VERTEX
  5
100002F9
330
100001C8
100
AcDbEntity
  8
VISIBLE
100
AcDbVertex
100
AcDb2dVertex
 10
-2.698570436542968
 20
4.163214639955568
 30
0.0
  0
VERTEX
  5
100002FA
330
100001C8
100
AcDbEntity
  8
VISIBLE
100
AcDbVertex
100
AcDb2dVertex
 10
-2.698539364193827
 20
4.159650029478066
 30
0.0
  0
SEQEND
  5
1000036A
330
100001C8
100
AcDbEntity
  8
VISIBLE
  0
LINE
  5
100001CB
102
{ACAD_XDICTIONARY
360
100001CC
102
}
330
1F
100
AcDbEntity
  8
VISIBLE
100
AcDbLine
 10
-2.698539364193827
 20
4.159650029478066
 30
0.0
 11
-2.698539364193827
 21
4.106659048377201
 31
0.0
  0
LINE
  5
100001CE
102
{ACAD_XDICTIONARY
360
100001CF
102
}
330
1F
100
AcDbEntity
  8
VISIBLE
100
AcDbLine
 10
-2.698539364193827
 20
4.106659048377201
 30
0.0
 11
-2.718922568433534
 21
4.106659048377201
 31
0.0
  0
LINE
  5
100001D1
102
{ACAD_XDICTIONARY
360
100001D2
102
}
330
1F
100
AcDbEntity
  8
VISIBLE
100
AcDbLine
 10
-2.718922568433534
 20
4.106659048377201
 30
0.0
 11
-2.718922568433534
 21
4.157991553542551
 31
0.0
  0
POLYLINE
  5
100001D4
102
{ACAD_XDICTIONARY
360
100001D5
102
}
330
1F
100
AcDbEntity
  8
VISIBLE
100
AcDb2dPolyline
 66
     1
 10
0.0
 20
0.0
 30
0.0
 70
   128
  0
VERTEX
  5
100002FB
330
100001D4
100
AcDbEntity
  8
VISIBLE
100
AcDbVertex
100
AcDb2dVertex
 10
-2.718922568433534
 20
4.157991553542551
 30
0.0
  0
VERTEX
  5
100002FC
330
100001D4
100
AcDbEntity
  8
VISIBLE
100
AcDbVertex
100
AcDb2dVertex
 10
-2.719081953320859
 20
4.164191985174289
 30
0.0
  0
VERTEX
  5
100002FD
330
100001D4
100
AcDbEntity
  8
VISIBLE
100
AcDbVertex
100
AcDb2dVertex
 10
-2.719430811058933
 20
4.168851895958983
 30
0.0
  0
SEQEND
  5
1000036B
330
100001D4
100
AcDbEntity
  8
VISIBLE
  0
POLYLINE
  5
100001D7
102
{ACAD_XDICTIONARY
360
100001D8
102
}
330
1F
100
AcDbEntity
  8
VISIBLE
100
AcDb2dPolyline
 66
     1
 10
0.0
 20
0.0
 30
0.0
 70
   128
  0
VERTEX
  5
100002FE
330
100001D7
100
AcDbEntity
  8
VISIBLE
100
AcDbVertex
100
AcDb2dVertex
 10
-2.719430811058933
 20
4.168851895958983
 30
0.0
  0
VERTEX
  5
100002FF
330
100001D7
100
AcDbEntity
  8
VISIBLE
100
AcDbVertex
100
AcDb2dVertex
 10
-2.720415282374254
 20
4.174294949780272
 30
0.0
  0
VERTEX
  5
10000300
330
100001D7
100
AcDbEntity
  8
VISIBLE
100
AcDbVertex
100
AcDb2dVertex
 10
-2.721771402096957
 20
4.1780537624399
 30
0.0
  0
SEQEND
  5
1000036C
330
100001D7
100
AcDbEntity
  8
VISIBLE
  0
POLYLINE
  5
100001DA
102
{ACAD_XDICTIONARY
360
100001DB
102
}
330
1F
100
AcDbEntity
  8
VISIBLE
100
AcDb2dPolyline
 66
     1
 10
0.0
 20
0.0
 30
0.0
 70
   128
  0
VERTEX
  5
10000301
330
100001DA
100
AcDbEntity
  8
VISIBLE
100
AcDbVertex
100
AcDb2dVertex
 10
-2.721771402096957
 20
4.1780537624399
 30
0.0
  0
VERTEX
  5
10000302
330
100001DA
100
AcDbEntity
  8
VISIBLE
100
AcDbVertex
100
AcDb2dVertex
 10
-2.724247260572251
 20
4.181998238805549
 30
0.0
  0
VERTEX
  5
10000303
330
100001DA
100
AcDbEntity
  8
VISIBLE
100
AcDbVertex
100
AcDb2dVertex
 10
-2.726786954321295
 20
4.184326546421804
 30
0.0
  0
SEQEND
  5
1000036D
330
100001DA
100
AcDbEntity
  8
VISIBLE
  0
POLYLINE
  5
100001DD
102
{ACAD_XDICTIONARY
360
100001DE
102
}
330
1F
100
AcDbEntity
  8
VISIBLE
100
AcDb2dPolyline
 66
     1
 10
0.0
 20
0.0
 30
0.0
 70
   128
  0
VERTEX
  5
10000304
330
100001DD
100
AcDbEntity
  8
VISIBLE
100
AcDbVertex
100
AcDb2dVertex
 10
-2.726786954321295
 20
4.184326546421804
 30
0.0
  0
VERTEX
  5
10000305
330
100001DD
100
AcDbEntity
  8
VISIBLE
100
AcDbVertex
100
AcDb2dVertex
 10
-2.731132289670478
 20
4.186149286373848
 30
0.0
  0
VERTEX
  5
10000306
330
100001DD
100
AcDbEntity
  8
VISIBLE
100
AcDbVertex
100
AcDb2dVertex
 10
-2.735641075847991
 20
4.186586888624239
 30
0.0
  0
SEQEND
  5
1000036E
330
100001DD
100
AcDbEntity
  8
VISIBLE
  0
POLYLINE
  5
100001E0
102
{ACAD_XDICTIONARY
360
100001E1
102
}
330
1F
100
AcDbEntity
  8
VISIBLE
100
AcDb2dPolyline
 66
     1
 10
0.0
 20
0.0
 30
0.0
 70
   128
  0
VERTEX
  5
10000307
330
100001E0
100
AcDbEntity
  8
VISIBLE
100
AcDbVertex
100
AcDb2dVertex
 10
-2.735641075847991
 20
4.186586888624239
 30
0.0
  0
VERTEX
  5
10000308
330
100001E0
100
AcDbEntity
  8
VISIBLE
100
AcDbVertex
100
AcDb2dVertex
 10
-2.738768255272618
 20
4.186347811293252
 30
0.0
  0
VERTEX
  5
10000309
330
100001E0
100
AcDbEntity
  8
VISIBLE
100
AcDbVertex
100
AcDb2dVertex
 10
-2.741913859829895
 20
4.18582452468614
 30
0.0
  0
SEQEND
  5
1000036F
330
100001E0
100
AcDbEntity
  8
VISIBLE
  0
POLYLINE
  5
100001E3
102
{ACAD_XDICTIONARY
360
100001E4
102
}
330
1F
100
AcDbEntity
  8
VISIBLE
100
AcDb2dPolyline
 66
     1
 10
0.0
 20
0.0
 30
0.0
 70
   128
  0
VERTEX
  5
1000030A
330
100001E3
100
AcDbEntity
  8
VISIBLE
100
AcDbVertex
100
AcDb2dVertex
 10
-2.741913859829895
 20
4.18582452468614
 30
0.0
  0
VERTEX
  5
1000030B
330
100001E3
100
AcDbEntity
  8
VISIBLE
100
AcDbVertex
100
AcDb2dVertex
 10
-2.746231632379016
 20
4.18468965635308
 30
0.0
  0
VERTEX
  5
1000030C
330
100001E3
100
AcDbEntity
  8
VISIBLE
100
AcDbVertex
100
AcDb2dVertex
 10
-2.749524124404957
 20
4.183403684812527
 30
0.0
  0
SEQEND
  5
10000370
330
100001E3
100
AcDbEntity
  8
VISIBLE
  0
LINE
  5
100001E6
102
{ACAD_XDICTIONARY
360
100001E7
102
}
330
1F
100
AcDbEntity
  8
VISIBLE
100
AcDbLine
 10
-2.749524124404957
 20
4.183403684812527
 30
0.0
 11
-2.749524124404957
 21
4.196270248118694
 31
0.0
  0
POLYLINE
  5
100001E9
102
{ACAD_XDICTIONARY
360
100001EA
102
}
330
1F
100
AcDbEntity
  8
VISIBLE
100
AcDb2dPolyline
 66
     1
 10
0.0
 20
0.0
 30
0.0
 70
   128
  0
VERTEX
  5
1000030D
330
100001E9
100
AcDbEntity
  8
VISIBLE
100
AcDbVertex
100
AcDb2dVertex
 10
-2.749524124404957
 20
4.196270248118694
 30
0.0
  0
VERTEX
  5
1000030E
330
100001E9
100
AcDbEntity
  8
VISIBLE
100
AcDbVertex
100
AcDb2dVertex
 10
-2.744226074879655
 20
4.198692778567776
 30
0.0
  0
VERTEX
  5
1000030F
330
100001E9
100
AcDbEntity
  8
VISIBLE
100
AcDbVertex
100
AcDb2dVertex
 10
-2.73973376646305
 20
4.200296064704094
 30
0.0
  0
SEQEND
  5
10000371
330
100001E9
100
AcDbEntity
  8
VISIBLE
  0
POLYLINE
  5
100001EC
102
{ACAD_XDICTIONARY
360
100001ED
102
}
330
1F
100
AcDbEntity
  8
VISIBLE
100
AcDb2dPolyline
 66
     1
 10
0.0
 20
0.0
 30
0.0
 70
   128
  0
VERTEX
  5
10000310
330
100001EC
100
AcDbEntity
  8
VISIBLE
100
AcDbVertex
100
AcDb2dVertex
 10
-2.73973376646305
 20
4.200296064704094
 30
0.0
  0
VERTEX
  5
10000311
330
100001EC
100
AcDbEntity
  8
VISIBLE
100
AcDbVertex
100
AcDb2dVertex
 10
-2.733915618884371
 20
4.201644245141996
 30
0.0
  0
VERTEX
  5
10000312
330
100001EC
100
AcDbEntity
  8
VISIBLE
100
AcDbVertex
100
AcDb2dVertex
 10
-2.729461915507608
 20
4.20196791544554
 30
0.0
  0
SEQEND
  5
10000372
330
100001EC
100
AcDbEntity
  8
VISIBLE
  0
POLYLINE
  5
100001EF
102
{ACAD_XDICTIONARY
360
100001F0
102
}
330
1F
100
AcDbEntity
  8
VISIBLE
100
AcDb2dPolyline
 66
     1
 10
0.0
 20
0.0
 30
0.0
 70
   128
  0
VERTEX
  5
10000313
330
100001EF
100
AcDbEntity
  8
VISIBLE
100
AcDbVertex
100
AcDb2dVertex
 10
-2.729461915507608
 20
4.20196791544554
 30
0.0
  0
VERTEX
  5
10000314
330
100001EF
100
AcDbEntity
  8
VISIBLE
100
AcDbVertex
100
AcDb2dVertex
 10
-2.721773092672427
 20
4.200994828765028
 30
0.0
  0
VERTEX
  5
10000315
330
100001EF
100
AcDbEntity
  8
VISIBLE
100
AcDbVertex
100
AcDb2dVertex
 10
-2.71675584987262
 20
4.198864960469416
 30
0.0
  0
SEQEND
  5
10000373
330
100001EF
100
AcDbEntity
  8
VISIBLE
  0
LINE
  5
100001F2
102
{ACAD_XDICTIONARY
360
100001F3
102
}
330
1F
100
AcDbEntity
  8
VISIBLE
100
AcDbLine
 10
-2.776594731610446
 20
4.200951430194741
 30
0.0
 11
-2.758538743602832
 21
4.200951430194741
 31
0.0
  0
LINE
  5
100001F5
102
{ACAD_XDICTIONARY
360
100001F6
102
}
330
1F
100
AcDbEntity
  8
VISIBLE
100
AcDbLine
 10
-2.758538743602832
 20
4.200951430194741
 30
0.0
 11
-2.756372025041919
 21
4.191428568371466
 31
0.0
  0
LINE
  5
100001F8
102
{ACAD_XDICTIONARY
360
100001F9
102
}
330
1F
100
AcDbEntity
  8
VISIBLE
100
AcDbLine
 10
-2.756372025041919
 20
4.191428568371466
 30
0.0
 11
-2.756372025041919
 21
4.106659048377201
 31
0.0
  0
LINE
  5
100001FB
102
{ACAD_XDICTIONARY
360
100001FC
102
}
330
1F
100
AcDbEntity
  8
VISIBLE
100
AcDbLine
 10
-2.756372025041919
 20
4.106659048377201
 30
0.0
 11
-2.776594731610446
 21
4.106659048377201
 31
0.0
  0
LINE
  5
100001FE
102
{ACAD_XDICTIONARY
360
100001FF
102
}
330
1F
100
AcDbEntity
  8
VISIBLE
100
AcDbLine
 10
-2.776594731610446
 20
4.106659048377201
 30
0.0
 11
-2.776594731610446
 21
4.200951430194741
 31
0.0
  0
POLYLINE
  5
10000201
102
{ACAD_XDICTIONARY
360
10000202
102
}
330
1F
100
AcDbEntity
  8
VISIBLE
100
AcDb2dPolyline
 66
     1
 10
0.0
 20
0.0
 30
0.0
 70
   128
  0
VERTEX
  5
10000316
330
10000201
100
AcDbEntity
  8
VISIBLE
100
AcDbVertex
100
AcDb2dVertex
 10
-2.806701419762401
 20
4.239577869725104
 30
0.0
  0
VERTEX
  5
10000317
330
10000201
100
AcDbEntity
  8
VISIBLE
100
AcDbVertex
100
AcDb2dVertex
 10
-2.803864848121055
 20
4.235175012010568
 30
0.0
  0
VERTEX
  5
10000318
330
10000201
100
AcDbEntity
  8
VISIBLE
100
AcDbVertex
100
AcDb2dVertex
 10
-2.803183845802399
 20
4.231044743540765
 30
0.0
  0
SEQEND
  5
10000374
330
10000201
100
AcDbEntity
  8
VISIBLE
  0
POLYLINE
  5
10000204
102
{ACAD_XDICTIONARY
360
10000205
102
}
330
1F
100
AcDbEntity
  8
VISIBLE
100
AcDb2dPolyline
 66
     1
 10
0.0
 20
0.0
 30
0.0
 70
   128
  0
VERTEX
  5
10000319
330
10000204
100
AcDbEntity
  8
VISIBLE
100
AcDbVertex
100
AcDb2dVertex
 10
-2.803183845802399
 20
4.231044743540765
 30
0.0
  0
VERTEX
  5
1000031A
330
10000204
100
AcDbEntity
  8
VISIBLE
100
AcDbVertex
100
AcDb2dVertex
 10
-2.804286956996255
 20
4.225933042511547
 30
0.0
  0
VERTEX
  5
1000031B
330
10000204
100
AcDbEntity
  8
VISIBLE
100
AcDbVertex
100
AcDb2dVertex
 10
-2.806701419762401
 20
4.222605240997947
 30
0.0
  0
SEQEND
  5
10000375
330
10000204
100
AcDbEntity
  8
VISIBLE
  0
POLYLINE
  5
10000207
102
{ACAD_XDICTIONARY
360
10000208
102
}
330
1F
100
AcDbEntity
  8
VISIBLE
100
AcDb2dPolyline
 66
     1
 10
0.0
 20
0.0
 30
0.0
 70
   128
  0
VERTEX
  5
1000031C
330
10000207
100
AcDbEntity
  8
VISIBLE
100
AcDbVertex
100
AcDb2dVertex
 10
-2.806701419762401
 20
4.222605240997947
 30
0.0
  0
VERTEX
  5
1000031D
330
10000207
100
AcDbEntity
  8
VISIBLE
100
AcDbVertex
100
AcDb2dVertex
 10
-2.811106674242159
 20
4.21983338201762
 30
0.0
  0
VERTEX
  5
1000031E
330
10000207
100
AcDbEntity
  8
VISIBLE
100
AcDbVertex
100
AcDb2dVertex
 10
-2.815221171140808
 20
4.219167915873534
 30
0.0
  0
SEQEND
  5
10000376
330
10000207
100
AcDbEntity
  8
VISIBLE
  0
POLYLINE
  5
1000020A
102
{ACAD_XDICTIONARY
360
1000020B
102
}
330
1F
100
AcDbEntity
  8
VISIBLE
100
AcDb2dPolyline
 66
     1
 10
0.0
 20
0.0
 30
0.0
 70
   128
  0
VERTEX
  5
1000031F
330
1000020A
100
AcDbEntity
  8
VISIBLE
100
AcDbVertex
100
AcDb2dVertex
 10
-2.815221171140808
 20
4.219167915873534
 30
0.0
  0
VERTEX
  5
10000320
330
1000020A
100
AcDbEntity
  8
VISIBLE
100
AcDbVertex
100
AcDb2dVertex
 10
-2.820350248717893
 20
4.22027102706739
 30
0.0
  0
VERTEX
  5
10000321
330
1000020A
100
AcDbEntity
  8
VISIBLE
100
AcDbVertex
100
AcDb2dVertex
 10
-2.823674048489558
 20
4.222685489833536
 30
0.0
  0
SEQEND
  5
10000377
330
1000020A
100
AcDbEntity
  8
VISIBLE
  0
POLYLINE
  5
1000020D
102
{ACAD_XDICTIONARY
360
1000020E
102
}
330
1F
100
AcDbEntity
  8
VISIBLE
100
AcDb2dPolyline
 66
     1
 10
0.0
 20
0.0
 30
0.0
 70
   128
  0
VERTEX
  5
10000322
330
1000020D
100
AcDbEntity
  8
VISIBLE
100
AcDbVertex
100
AcDb2dVertex
 10
-2.823674048489558
 20
4.222685489833536
 30
0.0
  0
VERTEX
  5
10000323
330
1000020D
100
AcDbEntity
  8
VISIBLE
100
AcDbVertex
100
AcDb2dVertex
 10
-2.826435122026381
 20
4.227040412243612
 30
0.0
  0
VERTEX
  5
10000324
330
1000020D
100
AcDbEntity
  8
VISIBLE
100
AcDbVertex
100
AcDb2dVertex
 10
-2.827097998808039
 20
4.231044743540765
 30
0.0
  0
SEQEND
  5
10000378
330
1000020D
100
AcDbEntity
  8
VISIBLE
  0
POLYLINE
  5
10000210
102
{ACAD_XDICTIONARY
360
10000211
102
}
330
1F
100
AcDbEntity
  8
VISIBLE
100
AcDb2dPolyline
 66
     1
 10
0.0
 20
0.0
 30
0.0
 70
   128
  0
VERTEX
  5
10000325
330
10000210
100
AcDbEntity
  8
VISIBLE
100
AcDbVertex
100
AcDb2dVertex
 10
-2.827097998808039
 20
4.231044743540765
 30
0.0
  0
VERTEX
  5
10000326
330
10000210
100
AcDbEntity
  8
VISIBLE
100
AcDbVertex
100
AcDb2dVertex
 10
-2.825999081953323
 20
4.23619898715269
 30
0.0
  0
VERTEX
  5
10000327
330
10000210
100
AcDbEntity
  8
VISIBLE
100
AcDbVertex
100
AcDb2dVertex
 10
-2.823593799653969
 20
4.239577869725104
 30
0.0
  0
SEQEND
  5
10000379
330
10000210
100
AcDbEntity
  8
VISIBLE
  0
POLYLINE
  5
10000213
102
{ACAD_XDICTIONARY
360
10000214
102
}
330
1F
100
AcDbEntity
  8
VISIBLE
100
AcDb2dPolyline
 66
     1
 10
0.0
 20
0.0
 30
0.0
 70
   128
  0
VERTEX
  5
10000328
330
10000213
100
AcDbEntity
  8
VISIBLE
100
AcDbVertex
100
AcDb2dVertex
 10
-2.823593799653969
 20
4.239577869725104
 30
0.0
  0
VERTEX
  5
10000329
330
10000213
100
AcDbEntity
  8
VISIBLE
100
AcDbVertex
100
AcDb2dVertex
 10
-2.819241274009116
 20
4.242403655922946
 30
0.0
  0
VERTEX
  5
1000032A
330
10000213
100
AcDbEntity
  8
VISIBLE
100
AcDbVertex
100
AcDb2dVertex
 10
-2.815221171140808
 20
4.243082068879174
 30
0.0
  0
SEQEND
  5
1000037A
330
10000213
100
AcDbEntity
  8
VISIBLE
  0
POLYLINE
  5
10000216
102
{ACAD_XDICTIONARY
360
10000217
102
}
330
1F
100
AcDbEntity
  8
VISIBLE
100
AcDb2dPolyline
 66
     1
 10
0.0
 20
0.0
 30
0.0
 70
   128
  0
VERTEX
  5
1000032B
330
10000216
100
AcDbEntity
  8
VISIBLE
100
AcDbVertex
100
AcDb2dVertex
 10
-2.815221171140808
 20
4.243082068879174
 30
0.0
  0
VERTEX
  5
1000032C
330
10000216
100
AcDbEntity
  8
VISIBLE
100
AcDbVertex
100
AcDb2dVertex
 10
-2.81008430407675
 20
4.241983152024457
 30
0.0
  0
VERTEX
  5
1000032D
330
10000216
100
AcDbEntity
  8
VISIBLE
100
AcDbVertex
100
AcDb2dVertex
 10
-2.806701419762401
 20
4.239577869725104
 30
0.0
  0
SEQEND
  5
1000037B
330
10000216
100
AcDbEntity
  8
VISIBLE
  0
LINE
  5
10000219
102
{ACAD_XDICTIONARY
360
1000021A
102
}
330
1F
100
AcDbEntity
  8
VISIBLE
100
AcDbLine
 10
-2.805029569020955
 20
4.200951430194741
 30
0.0
 11
-2.805029569020955
 21
4.106659048377201
 31
0.0
  0
LINE
  5
1000021C
102
{ACAD_XDICTIONARY
360
1000021D
102
}
330
1F
100
AcDbEntity
  8
VISIBLE
100
AcDbLine
 10
-2.805029569020955
 20
4.106659048377201
 30
0.0
 11
-2.825439522872525
 21
4.106659048377201
 31
0.0
  0
LINE
  5
1000021F
102
{ACAD_XDICTIONARY
360
10000220
102
}
330
1F
100
AcDbEntity
  8
VISIBLE
100
AcDbLine
 10
-2.825439522872525
 20
4.106659048377201
 30
0.0
 11
-2.825439522872524
 21
4.200951430194741
 31
0.0
  0
LINE
  5
10000222
102
{ACAD_XDICTIONARY
360
10000223
102
}
330
1F
100
AcDbEntity
  8
VISIBLE
100
AcDbLine
 10
-2.825439522872524
 20
4.200951430194741
 30
0.0
 11
-2.805029569020955
 21
4.200951430194741
 31
0.0
  0
LINE
  5
10000225
102
{ACAD_XDICTIONARY
360
10000226
102
}
330
1F
100
AcDbEntity
  8
VISIBLE
100
AcDbLine
 10
-2.908523817319412
 20
4.153470869137682
 30
0.0
 11
-2.875407797832855
 21
4.229867760618787
 31
0.0
  0
LINE
  5
10000228
102
{ACAD_XDICTIONARY
360
10000229
102
}
330
1F
100
AcDbEntity
  8
VISIBLE
100
AcDbLine
 10
-2.875407797832855
 20
4.229867760618787
 30
0.0
 11
-2.855024593593149
 21
4.229867760618786
 31
0.0
  0
LINE
  5
1000022B
102
{ACAD_XDICTIONARY
360
1000022C
102
}
330
1F
100
AcDbEntity
  8
VISIBLE
100
AcDbLine
 10
-2.855024593593149
 20
4.229867760618786
 30
0.0
 11
-2.855024593593149
 21
4.106659048377201
 31
0.0
  0
LINE
  5
1000022E
102
{ACAD_XDICTIONARY
360
1000022F
102
}
330
1F
100
AcDbEntity
  8
VISIBLE
100
AcDbLine
 10
-2.855024593593149
 20
4.106659048377201
 30
0.0
 11
-2.875407797832855
 21
4.106659048377201
 31
0.0
  0
LINE
  5
10000231
102
{ACAD_XDICTIONARY
360
10000232
102
}
330
1F
100
AcDbEntity
  8
VISIBLE
100
AcDbLine
 10
-2.875407797832855
 20
4.106659048377201
 30
0.0
 11
-2.875407797832855
 21
4.191428568371466
 31
0.0
  0
LINE
  5
10000234
102
{ACAD_XDICTIONARY
360
10000235
102
}
330
1F
100
AcDbEntity
  8
VISIBLE
100
AcDbLine
 10
-2.875407797832855
 20
4.191428568371466
 30
0.0
 11
-2.902986647663744
 21
4.122869313166259
 31
0.0
  0
LINE
  5
10000237
102
{ACAD_XDICTIONARY
360
10000238
102
}
330
1F
100
AcDbEntity
  8
VISIBLE
100
AcDbLine
 10
-2.902986647663744
 20
4.122869313166259
 30
0.0
 11
-2.908523817319412
 21
4.122869313166259
 31
0.0
  0
LINE
  5
1000023A
102
{ACAD_XDICTIONARY
360
1000023B
102
}
330
1F
100
AcDbEntity
  8
VISIBLE
100
AcDbLine
 10
-2.908523817319412
 20
4.122869313166259
 30
0.0
 11
-2.908523817319412
 21
4.153470869137682
 31
0.0
  0
LINE
  5
1000023D
102
{ACAD_XDICTIONARY
360
1000023E
102
}
330
1F
100
AcDbEntity
  8
VISIBLE
100
AcDbLine
 10
-2.968870941682638
 20
4.106659048377201
 30
0.0
 11
-2.968870941682638
 21
4.229867760618786
 31
0.0
  0
LINE
  5
10000240
102
{ACAD_XDICTIONARY
360
10000241
102
}
330
1F
100
AcDbEntity
  8
VISIBLE
100
AcDbLine
 10
-2.968870941682638
 20
4.229867760618786
 30
0.0
 11
-2.948460987831068
 21
4.229867760618787
 31
0.0
  0
LINE
  5
10000243
102
{ACAD_XDICTIONARY
360
10000244
102
}
330
1F
100
AcDbEntity
  8
VISIBLE
100
AcDbLine
 10
-2.948460987831068
 20
4.229867760618787
 30
0.0
 11
-2.915371717956374
 21
4.153818614091903
 31
0.0
  0
LINE
  5
10000246
102
{ACAD_XDICTIONARY
360
10000247
102
}
330
1F
100
AcDbEntity
  8
VISIBLE
100
AcDbLine
 10
-2.915371717956374
 20
4.153818614091903
 30
0.0
 11
-2.915371717956374
 21
4.122869313166259
 31
0.0
  0
LINE
  5
10000249
102
{ACAD_XDICTIONARY
360
1000024A
102
}
330
1F
100
AcDbEntity
  8
VISIBLE
100
AcDbLine
 10
-2.915371717956374
 20
4.122869313166259
 30
0.0
 11
-2.920721640329
 21
4.122869313166259
 31
0.0
  0
LINE
  5
1000024C
102
{ACAD_XDICTIONARY
360
1000024D
102
}
330
1F
100
AcDbEntity
  8
VISIBLE
100
AcDbLine
 10
-2.920721640329
 20
4.122869313166259
 30
0.0
 11
-2.948460987831068
 21
4.191428568371466
 31
0.0
  0
LINE
  5
1000024F
102
{ACAD_XDICTIONARY
360
10000250
102
}
330
1F
100
AcDbEntity
  8
VISIBLE
100
AcDbLine
 10
-2.948460987831068
 20
4.191428568371466
 30
0.0
 11
-2.948460987831068
 21
4.106659048377201
 31
0.0
  0
LINE
  5
10000252
102
{ACAD_XDICTIONARY
360
10000253
102
}
330
1F
100
AcDbEntity
  8
VISIBLE
100
AcDbLine
 10
-2.948460987831068
 20
4.106659048377201
 30
0.0
 11
-2.968870941682638
 21
4.106659048377201
 31
0.0
  0
ENDSEC
  0
SECTION
  2
OBJECTS
  0
DICTIONARY
  5
C
330
0
100
AcDbDictionary
  3
ACAD_GROUP
350
D
  3
ACAD_LAYOUT
350
1A
  3
ACAD_MATERIAL
350
43
  3
ACAD_MLEADERSTYLE
350
6B
  3
ACAD_MLINESTYLE
350
17
  3
ACAD_PLOTSETTINGS
350
19
  3
ACAD_SCALELIST
350
47
  3
ACAD_VISUALSTYLE
350
2A
  3
ACDBVARIABLEDICTIONARY
350
10000257
  3
DWGPROPS
350
1000025E
  3
ONSHAPE_DATA
350
10000001
1001
ACAD
1000
TREAT_AS_HARD
1070
     0
  0
DICTIONARY
  5
10000255
330
1F
100
AcDbDictionary
  3
ACAD_SORTENTS
360
10000256
1001
ACAD
1000
TREAT_AS_HARD
1070
     1
  0
DICTIONARY
  5
10000058
330
10000057
100
AcDbDictionary
  3
BTDETID
360
10000059
1001
ACAD
1000
TREAT_AS_HARD
1070
     1
  0
DICTIONARY
  5
1000005B
330
1000005A
100
AcDbDictionary
  3
BTDETID
360
1000005C
1001
ACAD
1000
TREAT_AS_HARD
1070
     1
  0
DICTIONARY
  5
1000005E
330
1000005D
100
AcDbDictionary
  3
BTDETID
360
1000005F
1001
ACAD
1000
TREAT_AS_HARD
1070
     1
  0
DICTIONARY
  5
10000061
330
10000060
100
AcDbDictionary
  3
BTDETID
360
10000062
1001
ACAD
1000
TREAT_AS_HARD
1070
     1
  0
DICTIONARY
  5
10000064
330
10000063
100
AcDbDictionary
  3
BTARCONSURFACERADIUS
360
10000067
  3
BTDETID
360
10000065
  3
BTOWNERFACEID_
360
10000066
1001
ACAD
1000
TREAT_AS_HARD
1070
     1
  0
DICTIONARY
  5
10000069
330
10000068
100
AcDbDictionary
  3
BTARCONSURFACERADIUS
360
1000006C
  3
BTDETID
360
1000006A
  3
BTOWNERFACEID_
360
1000006B
1001
ACAD
1000
TREAT_AS_HARD
1070
     1
  0
DICTIONARY
  5
1000006E
330
1000006D
100
AcDbDictionary
  3
BTARCONSURFACERADIUS
360
10000071
  3
BTDETID
360
1000006F
  3
BTOWNERFACEID_
360
10000070
1001
ACAD
1000
TREAT_AS_HARD
1070
     1
  0
DICTIONARY
  5
10000073
330
10000072
100
AcDbDictionary
  3
BTARCONSURFACERADIUS
360
10000076
  3
BTDETID
360
10000074
  3
BTOWNERFACEID_
360
10000075
1001
ACAD
1000
TREAT_AS_HARD
1070
     1
  0
DICTIONARY
  5
10000078
330
10000077
100
AcDbDictionary
  3
BTDETID
360
10000079
1001
ACAD
1000
TREAT_AS_HARD
1070
     1
  0
DICTIONARY
  5
1000007B
330
1000007A
100
AcDbDictionary
  3
BTARCONSURFACERADIUS
360
1000007E
  3
BTDETID
360
1000007C
  3
BTOWNERFACEID_
360
1000007D
1001
ACAD
1000
TREAT_AS_HARD
1070
     1
  0
DICTIONARY
  5
10000080
330
1000007F
100
AcDbDictionary
  3
BTDETID
360
10000081
1001
ACAD
1000
TREAT_AS_HARD
1070
     1
  0
DICTIONARY
  5
10000083
330
10000082
100
AcDbDictionary
  3
BTARCONSURFACERADIUS
360
10000086
  3
BTDETID
360
10000084
  3
BTOWNERFACEID_
360
10000085
1001
ACAD
1000
TREAT_AS_HARD
1070
     1
  0
DICTIONARY
  5
10000088
330
10000087
100
AcDbDictionary
  3
BTDETID
360
10000089
1001
ACAD
1000
TREAT_AS_HARD
1070
     1
  0
DICTIONARY
  5
1000008B
330
1000008A
100
AcDbDictionary
  3
BTARCONSURFACERADIUS
360
1000008E
  3
BTDETID
360
1000008C
  3
BTOWNERFACEID_
360
1000008D
1001
ACAD
1000
TREAT_AS_HARD
1070
     1
  0
DICTIONARY
  5
10000090
330
1000008F
100
AcDbDictionary
  3
BTDETID
360
10000091
1001
ACAD
1000
TREAT_AS_HARD
1070
     1
  0
DICTIONARY
  5
10000093
330
10000092
100
AcDbDictionary
  3
BTARCONSURFACERADIUS
360
10000096
  3
BTDETID
360
10000094
  3
BTOWNERFACEID_
360
10000095
1001
ACAD
1000
TREAT_AS_HARD
1070
     1
  0
DICTIONARY
  5
10000098
330
10000097
100
AcDbDictionary
  3
BTDETID
360
10000099
1001
ACAD
1000
TREAT_AS_HARD
1070
     1
  0
DICTIONARY
  5
1000009B
330
1000009A
100
AcDbDictionary
  3
BTARCONSURFACERADIUS
360
1000009E
  3
BTDETID
360
1000009C
  3
BTOWNERFACEID_
360
1000009D
1001
ACAD
1000
TREAT_AS_HARD
1070
     1
  0
DICTIONARY
  5
100000A0
330
1000009F
100
AcDbDictionary
  3
BTDETID
360
100000A1
1001
ACAD
1000
TREAT_AS_HARD
1070
     1
  0
DICTIONARY
  5
100000A3
330
100000A2
100
AcDbDictionary
  3
BTARCONSURFACERADIUS
360
100000A6
  3
BTDETID
360
100000A4
  3
BTOWNERFACEID_
360
100000A5
1001
ACAD
1000
TREAT_AS_HARD
1070
     1
  0
DICTIONARY
  5
100000A8
330
100000A7
100
AcDbDictionary
  3
BTDETID
360
100000A9
1001
ACAD
1000
TREAT_AS_HARD
1070
     1
  0
DICTIONARY
  5
100000AB
330
100000AA
100
AcDbDictionary
  3
BTARCONSURFACERADIUS
360
100000AE
  3
BTDETID
360
100000AC
  3
BTOWNERFACEID_
360
100000AD
1001
ACAD
1000
TREAT_AS_HARD
1070
     1
  0
DICTIONARY
  5
100000B0
330
100000AF
100
AcDbDictionary
  3
BTDETID
360
100000B1
1001
ACAD
1000
TREAT_AS_HARD
1070
     1
  0
DICTIONARY
  5
100000B3
330
100000B2
100
AcDbDictionary
  3
BTARCONSURFACERADIUS
360
100000B6
  3
BTDETID
360
100000B4
  3
BTOWNERFACEID_
360
100000B5
1001
ACAD
1000
TREAT_AS_HARD
1070
     1
  0
DICTIONARY
  5
100000B8
330
100000B7
100
AcDbDictionary
  3
BTDETID
360
100000B9
1001
ACAD
1000
TREAT_AS_HARD
1070
     1
  0
DICTIONARY
  5
100000BB
330
100000BA
100
AcDbDictionary
  3
BTDETID
360
100000BC
1001
ACAD
1000
TREAT_AS_HARD
1070
     1
  0
DICTIONARY
  5
100000BE
330
100000BD
100
AcDbDictionary
  3
BTDETID
360
100000BF
1001
ACAD
1000
TREAT_AS_HARD
1070
     1
  0
DICTIONARY
  5
100000C1
330
100000C0
100
AcDbDictionary
  3
BTDETID
360
100000C2
1001
ACAD
1000
TREAT_AS_HARD
1070
     1
  0
DICTIONARY
  5
100000C4
330
100000C3
100
AcDbDictionary
  3
BTDETID
360
100000C5
1001
ACAD
1000
TREAT_AS_HARD
1070
     1
  0
DICTIONARY
  5
100000C7
330
100000C6
100
AcDbDictionary
  3
BTDETID
360
100000C8
1001
ACAD
1000
TREAT_AS_HARD
1070
     1
  0
DICTIONARY
  5
100000CA
330
100000C9
100
AcDbDictionary
  3
BTDETID
360
100000CB
1001
ACAD
1000
TREAT_AS_HARD
1070
     1
  0
DICTIONARY
  5
100000CD
330
100000CC
100
AcDbDictionary
  3
BTDETID
360
100000CE
1001
ACAD
1000
TREAT_AS_HARD
1070
     1
  0
DICTIONARY
  5
100000D0
330
100000CF
100
AcDbDictionary
  3
BTDETID
360
100000D1
1001
ACAD
1000
TREAT_AS_HARD
1070
     1
  0
DICTIONARY
  5
100000D3
330
100000D2
100
AcDbDictionary
  3
BTDETID
360
100000D4
1001
ACAD
1000
TREAT_AS_HARD
1070
     1
  0
DICTIONARY
  5
100000D6
330
100000D5
100
AcDbDictionary
  3
BTDETID
360
100000D7
1001
ACAD
1000
TREAT_AS_HARD
1070
     1
  0
DICTIONARY
  5
100000D9
330
100000D8
100
AcDbDictionary
  3
BTDETID
360
100000DA
1001
ACAD
1000
TREAT_AS_HARD
1070
     1
  0
DICTIONARY
  5
100000DC
330
100000DB
100
AcDbDictionary
  3
BTDETID
360
100000DD
1001
ACAD
1000
TREAT_AS_HARD
1070
     1
  0
DICTIONARY
  5
100000DF
330
100000DE
100
AcDbDictionary
  3
BTDETID
360
100000E0
1001
ACAD
1000
TREAT_AS_HARD
1070
     1
  0
DICTIONARY
  5
100000E2
330
100000E1
100
AcDbDictionary
  3
BTDETID
360
100000E3
1001
ACAD
1000
TREAT_AS_HARD
1070
     1
  0
DICTIONARY
  5
100000E5
330
100000E4
100
AcDbDictionary
  3
BTDETID
360
100000E6
1001
ACAD
1000
TREAT_AS_HARD
1070
     1
  0
DICTIONARY
  5
100000E8
330
100000E7
100
AcDbDictionary
  3
BTDETID
360
100000E9
1001
ACAD
1000
TREAT_AS_HARD
1070
     1
  0
DICTIONARY
  5
100000EB
330
100000EA
100
AcDbDictionary
  3
BTDETID
360
100000EC
1001
ACAD
1000
TREAT_AS_HARD
1070
     1
  0
DICTIONARY
  5
100000EE
330
100000ED
100
AcDbDictionary
  3
BTDETID
360
100000EF
1001
ACAD
1000
TREAT_AS_HARD
1070
     1
  0
DICTIONARY
  5
100000F1
330
100000F0
100
AcDbDictionary
  3
BTDETID
360
100000F2
1001
ACAD
1000
TREAT_AS_HARD
1070
     1
  0
DICTIONARY
  5
100000F4
330
100000F3
100
AcDbDictionary
  3
BTDETID
360
100000F5
1001
ACAD
1000
TREAT_AS_HARD
1070
     1
  0
DICTIONARY
  5
100000F7
330
100000F6
100
AcDbDictionary
  3
BTDETID
360
100000F8
1001
ACAD
1000
TREAT_AS_HARD
1070
     1
  0
DICTIONARY
  5
100000FA
330
100000F9
100
AcDbDictionary
  3
BTDETID
360
100000FB
1001
ACAD
1000
TREAT_AS_HARD
1070
     1
  0
DICTIONARY
  5
100000FD
330
100000FC
100
AcDbDictionary
  3
BTDETID
360
100000FE
1001
ACAD
1000
TREAT_AS_HARD
1070
     1
  0
DICTIONARY
  5
10000100
330
100000FF
100
AcDbDictionary
  3
BTDETID
360
10000101
1001
ACAD
1000
TREAT_AS_HARD
1070
     1
  0
DICTIONARY
  5
10000103
330
10000102
100
AcDbDictionary
  3
BTDETID
360
10000104
1001
ACAD
1000
TREAT_AS_HARD
1070
     1
  0
DICTIONARY
  5
10000106
330
10000105
100
AcDbDictionary
  3
BTDETID
360
10000107
1001
ACAD
1000
TREAT_AS_HARD
1070
     1
  0
DICTIONARY
  5
10000109
330
10000108
100
AcDbDictionary
  3
BTDETID
360
1000010A
1001
ACAD
1000
TREAT_AS_HARD
1070
     1
  0
DICTIONARY
  5
1000010C
330
1000010B
100
AcDbDictionary
  3
BTDETID
360
1000010D
1001
ACAD
1000
TREAT_AS_HARD
1070
     1
  0
DICTIONARY
  5
1000010F
330
1000010E
100
AcDbDictionary
  3
BTDETID
360
10000110
1001
ACAD
1000
TREAT_AS_HARD
1070
     1
  0
DICTIONARY
  5
10000112
330
10000111
100
AcDbDictionary
  3
BTDETID
360
10000113
1001
ACAD
1000
TREAT_AS_HARD
1070
     1
  0
DICTIONARY
  5
10000115
330
10000114
100
AcDbDictionary
  3
BTDETID
360
10000116
1001
ACAD
1000
TREAT_AS_HARD
1070
     1
  0
DICTIONARY
  5
10000118
330
10000117
100
AcDbDictionary
  3
BTDETID
360
10000119
1001
ACAD
1000
TREAT_AS_HARD
1070
     1
  0
DICTIONARY
  5
1000011B
330
1000011A
100
AcDbDictionary
  3
BTDETID
360
1000011C
1001
ACAD
1000
TREAT_AS_HARD
1070
     1
  0
DICTIONARY
  5
1000011E
330
1000011D
100
AcDbDictionary
  3
BTDETID
360
1000011F
1001
ACAD
1000
TREAT_AS_HARD
1070
     1
  0
DICTIONARY
  5
10000121
330
10000120
100
AcDbDictionary
  3
BTDETID
360
10000122
1001
ACAD
1000
TREAT_AS_HARD
1070
     1
  0
DICTIONARY
  5
10000124
330
10000123
100
AcDbDictionary
  3
BTDETID
360
10000125
1001
ACAD
1000
TREAT_AS_HARD
1070
     1
  0
DICTIONARY
  5
10000127
330
10000126
100
AcDbDictionary
  3
BTDETID
360
10000128
1001
ACAD
1000
TREAT_AS_HARD
1070
     1
  0
DICTIONARY
  5
1000012A
330
10000129
100
AcDbDictionary
  3
BTDETID
360
1000012B
1001
ACAD
1000
TREAT_AS_HARD
1070
     1
  0
DICTIONARY
  5
1000012D
330
1000012C
100
AcDbDictionary
  3
BTDETID
360
1000012E
1001
ACAD
1000
TREAT_AS_HARD
1070
     1
  0
DICTIONARY
  5
10000130
330
1000012F
100
AcDbDictionary
  3
BTDETID
360
10000131
1001
ACAD
1000
TREAT_AS_HARD
1070
     1
  0
DICTIONARY
  5
10000133
330
10000132
100
AcDbDictionary
  3
BTDETID
360
10000134
1001
ACAD
1000
TREAT_AS_HARD
1070
     1
  0
DICTIONARY
  5
10000136
330
10000135
100
AcDbDictionary
  3
BTDETID
360
10000137
1001
ACAD
1000
TREAT_AS_HARD
1070
     1
  0
DICTIONARY
  5
10000139
330
10000138
100
AcDbDictionary
  3
BTDETID
360
1000013A
1001
ACAD
1000
TREAT_AS_HARD
1070
     1
  0
DICTIONARY
  5
1000013C
330
1000013B
100
AcDbDictionary
  3
BTDETID
360
1000013D
1001
ACAD
1000
TREAT_AS_HARD
1070
     1
  0
DICTIONARY
  5
1000013F
330
1000013E
100
AcDbDictionary
  3
BTDETID
360
10000140
1001
ACAD
1000
TREAT_AS_HARD
1070
     1
  0
DICTIONARY
  5
10000142
330
10000141
100
AcDbDictionary
  3
BTDETID
360
10000143
1001
ACAD
1000
TREAT_AS_HARD
1070
     1
  0
DICTIONARY
  5
10000145
330
10000144
100
AcDbDictionary
  3
BTDETID
360
10000146
1001
ACAD
1000
TREAT_AS_HARD
1070
     1
  0
DICTIONARY
  5
10000148
330
10000147
100
AcDbDictionary
  3
BTDETID
360
10000149
1001
ACAD
1000
TREAT_AS_HARD
1070
     1
  0
DICTIONARY
  5
1000014B
330
1000014A
100
AcDbDictionary
  3
BTDETID
360
1000014C
1001
ACAD
1000
TREAT_AS_HARD
1070
     1
  0
DICTIONARY
  5
1000014E
330
1000014D
100
AcDbDictionary
  3
BTDETID
360
1000014F
1001
ACAD
1000
TREAT_AS_HARD
1070
     1
  0
DICTIONARY
  5
10000151
330
10000150
100
AcDbDictionary
  3
BTDETID
360
10000152
1001
ACAD
1000
TREAT_AS_HARD
1070
     1
  0
DICTIONARY
  5
10000154
330
10000153
100
AcDbDictionary
  3
BTDETID
360
10000155
1001
ACAD
1000
TREAT_AS_HARD
1070
     1
  0
DICTIONARY
  5
10000157
330
10000156
100
AcDbDictionary
  3
BTDETID
360
10000158
1001
ACAD
1000
TREAT_AS_HARD
1070
     1
  0
DICTIONARY
  5
1000015A
330
10000159
100
AcDbDictionary
  3
BTDETID
360
1000015B
1001
ACAD
1000
TREAT_AS_HARD
1070
     1
  0
DICTIONARY
  5
1000015D
330
1000015C
100
AcDbDictionary
  3
BTDETID
360
1000015E
1001
ACAD
1000
TREAT_AS_HARD
1070
     1
  0
DICTIONARY
  5
10000160
330
1000015F
100
AcDbDictionary
  3
BTDETID
360
10000161
1001
ACAD
1000
TREAT_AS_HARD
1070
     1
  0
DICTIONARY
  5
10000163
330
10000162
100
AcDbDictionary
  3
BTDETID
360
10000164
1001
ACAD
1000
TREAT_AS_HARD
1070
     1
  0
DICTIONARY
  5
10000166
330
10000165
100
AcDbDictionary
  3
BTDETID
360
10000167
1001
ACAD
1000
TREAT_AS_HARD
1070
     1
  0
DICTIONARY
  5
10000169
330
10000168
100
AcDbDictionary
  3
BTDETID
360
1000016A
1001
ACAD
1000
TREAT_AS_HARD
1070
     1
  0
DICTIONARY
  5
1000016C
330
1000016B
100
AcDbDictionary
  3
BTDETID
360
1000016D
1001
ACAD
1000
TREAT_AS_HARD
1070
     1
  0
DICTIONARY
  5
1000016F
330
1000016E
100
AcDbDictionary
  3
BTDETID
360
10000170
1001
ACAD
1000
TREAT_AS_HARD
1070
     1
  0
DICTIONARY
  5
10000172
330
10000171
100
AcDbDictionary
  3
BTDETID
360
10000173
1001
ACAD
1000
TREAT_AS_HARD
1070
     1
  0
DICTIONARY
  5
10000175
330
10000174
100
AcDbDictionary
  3
BTDETID
360
10000176
1001
ACAD
1000
TREAT_AS_HARD
1070
     1
  0
DICTIONARY
  5
10000178
330
10000177
100
AcDbDictionary
  3
BTDETID
360
10000179
1001
ACAD
1000
TREAT_AS_HARD
1070
     1
  0
DICTIONARY
  5
1000017B
330
1000017A
100
AcDbDictionary
  3
BTDETID
360
1000017C
1001
ACAD
1000
TREAT_AS_HARD
1070
     1
  0
DICTIONARY
  5
1000017E
330
1000017D
100
AcDbDictionary
  3
BTDETID
360
1000017F
1001
ACAD
1000
TREAT_AS_HARD
1070
     1
  0
DICTIONARY
  5
10000181
330
10000180
100
AcDbDictionary
  3
BTDETID
360
10000182
1001
ACAD
1000
TREAT_AS_HARD
1070
     1
  0
DICTIONARY
  5
10000184
330
10000183
100
AcDbDictionary
  3
BTDETID
360
10000185
1001
ACAD
1000
TREAT_AS_HARD
1070
     1
  0
DICTIONARY
  5
10000187
330
10000186
100
AcDbDictionary
  3
BTDETID
360
10000188
1001
ACAD
1000
TREAT_AS_HARD
1070
     1
  0
DICTIONARY
  5
1000018A
330
10000189
100
AcDbDictionary
  3
BTDETID
360
1000018B
1001
ACAD
1000
TREAT_AS_HARD
1070
     1
  0
DICTIONARY
  5
1000018D
330
1000018C
100
AcDbDictionary
  3
BTDETID
360
1000018E
1001
ACAD
1000
TREAT_AS_HARD
1070
     1
  0
DICTIONARY
  5
10000190
330
1000018F
100
AcDbDictionary
  3
BTDETID
360
10000191
1001
ACAD
1000
TREAT_AS_HARD
1070
     1
  0
DICTIONARY
  5
10000193
330
10000192
100
AcDbDictionary
  3
BTDETID
360
10000194
1001
ACAD
1000
TREAT_AS_HARD
1070
     1
  0
DICTIONARY
  5
10000196
330
10000195
100
AcDbDictionary
  3
BTDETID
360
10000197
1001
ACAD
1000
TREAT_AS_HARD
1070
     1
  0
DICTIONARY
  5
10000199
330
10000198
100
AcDbDictionary
  3
BTDETID
360
1000019A
1001
ACAD
1000
TREAT_AS_HARD
1070
     1
  0
DICTIONARY
  5
1000019C
330
1000019B
100
AcDbDictionary
  3
BTDETID
360
1000019D
1001
ACAD
1000
TREAT_AS_HARD
1070
     1
  0
DICTIONARY
  5
1000019F
330
1000019E
100
AcDbDictionary
  3
BTDETID
360
100001A0
1001
ACAD
1000
TREAT_AS_HARD
1070
     1
  0
DICTIONARY
  5
100001A2
330
100001A1
100
AcDbDictionary
  3
BTDETID
360
100001A3
1001
ACAD
1000
TREAT_AS_HARD
1070
     1
  0
DICTIONARY
  5
100001A5
330
100001A4
100
AcDbDictionary
  3
BTDETID
360
100001A6
1001
ACAD
1000
TREAT_AS_HARD
1070
     1
  0
DICTIONARY
  5
100001A8
330
100001A7
100
AcDbDictionary
  3
BTDETID
360
100001A9
1001
ACAD
1000
TREAT_AS_HARD
1070
     1
  0
DICTIONARY
  5
100001AB
330
100001AA
100
AcDbDictionary
  3
BTDETID
360
100001AC
1001
ACAD
1000
TREAT_AS_HARD
1070
     1
  0
DICTIONARY
  5
100001AE
330
100001AD
100
AcDbDictionary
  3
BTDETID
360
100001AF
1001
ACAD
1000
TREAT_AS_HARD
1070
     1
  0
DICTIONARY
  5
100001B1
330
100001B0
100
AcDbDictionary
  3
BTDETID
360
100001B2
1001
ACAD
1000
TREAT_AS_HARD
1070
     1
  0
DICTIONARY
  5
100001B4
330
100001B3
100
AcDbDictionary
  3
BTDETID
360
100001B5
1001
ACAD
1000
TREAT_AS_HARD
1070
     1
  0
DICTIONARY
  5
100001B7
330
100001B6
100
AcDbDictionary
  3
BTDETID
360
100001B8
1001
ACAD
1000
TREAT_AS_HARD
1070
     1
  0
DICTIONARY
  5
100001BA
330
100001B9
100
AcDbDictionary
  3
BTDETID
360
100001BB
1001
ACAD
1000
TREAT_AS_HARD
1070
     1
  0
DICTIONARY
  5
100001BD
330
100001BC
100
AcDbDictionary
  3
BTDETID
360
100001BE
1001
ACAD
1000
TREAT_AS_HARD
1070
     1
  0
DICTIONARY
  5
100001C0
330
100001BF
100
AcDbDictionary
  3
BTDETID
360
100001C1
1001
ACAD
1000
TREAT_AS_HARD
1070
     1
  0
DICTIONARY
  5
100001C3
330
100001C2
100
AcDbDictionary
  3
BTDETID
360
100001C4
1001
ACAD
1000
TREAT_AS_HARD
1070
     1
  0
DICTIONARY
  5
100001C6
330
100001C5
100
AcDbDictionary
  3
BTDETID
360
100001C7
1001
ACAD
1000
TREAT_AS_HARD
1070
     1
  0
DICTIONARY
  5
100001C9
330
100001C8
100
AcDbDictionary
  3
BTDETID
360
100001CA
1001
ACAD
1000
TREAT_AS_HARD
1070
     1
  0
DICTIONARY
  5
100001CC
330
100001CB
100
AcDbDictionary
  3
BTDETID
360
100001CD
1001
ACAD
1000
TREAT_AS_HARD
1070
     1
  0
DICTIONARY
  5
100001CF
330
100001CE
100
AcDbDictionary
  3
BTDETID
360
100001D0
1001
ACAD
1000
TREAT_AS_HARD
1070
     1
  0
DICTIONARY
  5
100001D2
330
100001D1
100
AcDbDictionary
  3
BTDETID
360
100001D3
1001
ACAD
1000
TREAT_AS_HARD
1070
     1
  0
DICTIONARY
  5
100001D5
330
100001D4
100
AcDbDictionary
  3
BTDETID
360
100001D6
1001
ACAD
1000
TREAT_AS_HARD
1070
     1
  0
DICTIONARY
  5
100001D8
330
100001D7
100
AcDbDictionary
  3
BTDETID
360
100001D9
1001
ACAD
1000
TREAT_AS_HARD
1070
     1
  0
DICTIONARY
  5
100001DB
330
100001DA
100
AcDbDictionary
  3
BTDETID
360
100001DC
1001
ACAD
1000
TREAT_AS_HARD
1070
     1
  0
DICTIONARY
  5
100001DE
330
100001DD
100
AcDbDictionary
  3
BTDETID
360
100001DF
1001
ACAD
1000
TREAT_AS_HARD
1070
     1
  0
DICTIONARY
  5
100001E1
330
100001E0
100
AcDbDictionary
  3
BTDETID
360
100001E2
1001
ACAD
1000
TREAT_AS_HARD
1070
     1
  0
DICTIONARY
  5
100001E4
330
100001E3
100
AcDbDictionary
  3
BTDETID
360
100001E5
1001
ACAD
1000
TREAT_AS_HARD
1070
     1
  0
DICTIONARY
  5
100001E7
330
100001E6
100
AcDbDictionary
  3
BTDETID
360
100001E8
1001
ACAD
1000
TREAT_AS_HARD
1070
     1
  0
DICTIONARY
  5
100001EA
330
100001E9
100
AcDbDictionary
  3
BTDETID
360
100001EB
1001
ACAD
1000
TREAT_AS_HARD
1070
     1
  0
DICTIONARY
  5
100001ED
330
100001EC
100
AcDbDictionary
  3
BTDETID
360
100001EE
1001
ACAD
1000
TREAT_AS_HARD
1070
     1
  0
DICTIONARY
  5
100001F0
330
100001EF
100
AcDbDictionary
  3
BTDETID
360
100001F1
1001
ACAD
1000
TREAT_AS_HARD
1070
     1
  0
DICTIONARY
  5
100001F3
330
100001F2
100
AcDbDictionary
  3
BTDETID
360
100001F4
1001
ACAD
1000
TREAT_AS_HARD
1070
     1
  0
DICTIONARY
  5
100001F6
330
100001F5
100
AcDbDictionary
  3
BTDETID
360
100001F7
1001
ACAD
1000
TREAT_AS_HARD
1070
     1
  0
DICTIONARY
  5
100001F9
330
100001F8
100
AcDbDictionary
  3
BTDETID
360
100001FA
1001
ACAD
1000
TREAT_AS_HARD
1070
     1
  0
DICTIONARY
  5
100001FC
330
100001FB
100
AcDbDictionary
  3
BTDETID
360
100001FD
1001
ACAD
1000
TREAT_AS_HARD
1070
     1
  0
DICTIONARY
  5
100001FF
330
100001FE
100
AcDbDictionary
  3
BTDETID
360
10000200
1001
ACAD
1000
TREAT_AS_HARD
1070
     1
  0
DICTIONARY
  5
10000202
330
10000201
100
AcDbDictionary
  3
BTDETID
360
10000203
1001
ACAD
1000
TREAT_AS_HARD
1070
     1
  0
DICTIONARY
  5
10000205
330
10000204
100
AcDbDictionary
  3
BTDETID
360
10000206
1001
ACAD
1000
TREAT_AS_HARD
1070
     1
  0
DICTIONARY
  5
10000208
330
10000207
100
AcDbDictionary
  3
BTDETID
360
10000209
1001
ACAD
1000
TREAT_AS_HARD
1070
     1
  0
DICTIONARY
  5
1000020B
330
1000020A
100
AcDbDictionary
  3
BTDETID
360
1000020C
1001
ACAD
1000
TREAT_AS_HARD
1070
     1
  0
DICTIONARY
  5
1000020E
330
1000020D
100
AcDbDictionary
  3
BTDETID
360
1000020F
1001
ACAD
1000
TREAT_AS_HARD
1070
     1
  0
DICTIONARY
  5
10000211
330
10000210
100
AcDbDictionary
  3
BTDETID
360
10000212
1001
ACAD
1000
TREAT_AS_HARD
1070
     1
  0
DICTIONARY
  5
10000214
330
10000213
100
AcDbDictionary
  3
BTDETID
360
10000215
1001
ACAD
1000
TREAT_AS_HARD
1070
     1
  0
DICTIONARY
  5
10000217
330
10000216
100
AcDbDictionary
  3
BTDETID
360
10000218
1001
ACAD
1000
TREAT_AS_HARD
1070
     1
  0
DICTIONARY
  5
1000021A
330
10000219
100
AcDbDictionary
  3
BTDETID
360
1000021B
1001
ACAD
1000
TREAT_AS_HARD
1070
     1
  0
DICTIONARY
  5
1000021D
330
1000021C
100
AcDbDictionary
  3
BTDETID
360
1000021E
1001
ACAD
1000
TREAT_AS_HARD
1070
     1
  0
DICTIONARY
  5
10000220
330
1000021F
100
AcDbDictionary
  3
BTDETID
360
10000221
1001
ACAD
1000
TREAT_AS_HARD
1070
     1
  0
DICTIONARY
  5
10000223
330
10000222
100
AcDbDictionary
  3
BTDETID
360
10000224
1001
ACAD
1000
TREAT_AS_HARD
1070
     1
  0
DICTIONARY
  5
10000226
330
10000225
100
AcDbDictionary
  3
BTDETID
360
10000227
1001
ACAD
1000
TREAT_AS_HARD
1070
     1
  0
DICTIONARY
  5
10000229
330
10000228
100
AcDbDictionary
  3
BTDETID
360
1000022A
1001
ACAD
1000
TREAT_AS_HARD
1070
     1
  0
DICTIONARY
  5
1000022C
330
1000022B
100
AcDbDictionary
  3
BTDETID
360
1000022D
1001
ACAD
1000
TREAT_AS_HARD
1070
     1
  0
DICTIONARY
  5
1000022F
330
1000022E
100
AcDbDictionary
  3
BTDETID
360
10000230
1001
ACAD
1000
TREAT_AS_HARD
1070
     1
  0
DICTIONARY
  5
10000232
330
10000231
100
AcDbDictionary
  3
BTDETID
360
10000233
1001
ACAD
1000
TREAT_AS_HARD
1070
     1
  0
DICTIONARY
  5
10000235
330
10000234
100
AcDbDictionary
  3
BTDETID
360
10000236
1001
ACAD
1000
TREAT_AS_HARD
1070
     1
  0
DICTIONARY
  5
10000238
330
10000237
100
AcDbDictionary
  3
BTDETID
360
10000239
1001
ACAD
1000
TREAT_AS_HARD
1070
     1
  0
DICTIONARY
  5
1000023B
330
1000023A
100
AcDbDictionary
  3
BTDETID
360
1000023C
1001
ACAD
1000
TREAT_AS_HARD
1070
     1
  0
DICTIONARY
  5
1000023E
330
1000023D
100
AcDbDictionary
  3
BTDETID
360
1000023F
1001
ACAD
1000
TREAT_AS_HARD
1070
     1
  0
DICTIONARY
  5
10000241
330
10000240
100
AcDbDictionary
  3
BTDETID
360
10000242
1001
ACAD
1000
TREAT_AS_HARD
1070
     1
  0
DICTIONARY
  5
10000244
330
10000243
100
AcDbDictionary
  3
BTDETID
360
10000245
1001
ACAD
1000
TREAT_AS_HARD
1070
     1
  0
DICTIONARY
  5
10000247
330
10000246
100
AcDbDictionary
  3
BTDETID
360
10000248
1001
ACAD
1000
TREAT_AS_HARD
1070
     1
  0
DICTIONARY
  5
1000024A
330
10000249
100
AcDbDictionary
  3
BTDETID
360
1000024B
1001
ACAD
1000
TREAT_AS_HARD
1070
     1
  0
DICTIONARY
  5
1000024D
330
1000024C
100
AcDbDictionary
  3
BTDETID
360
1000024E
1001
ACAD
1000
TREAT_AS_HARD
1070
     1
  0
DICTIONARY
  5
10000250
330
1000024F
100
AcDbDictionary
  3
BTDETID
360
10000251
1001
ACAD
1000
TREAT_AS_HARD
1070
     1
  0
DICTIONARY
  5
10000253
330
10000252
100
AcDbDictionary
  3
BTDETID
360
10000254
1001
ACAD
1000
TREAT_AS_HARD
1070
     1
  0
DICTIONARY
  5
D
102
{ACAD_REACTORS
330
C
102
}
330
C
100
AcDbDictionary
1001
ACAD
1000
TREAT_AS_HARD
1070
     0
  0
DICTIONARY
  5
1A
102
{ACAD_REACTORS
330
C
102
}
330
C
100
AcDbDictionary
1001
ACAD
1000
TREAT_AS_HARD
1070
     0
  0
DICTIONARY
  5
43
102
{ACAD_REACTORS
330
C
102
}
330
C
100
AcDbDictionary
  3
BYBLOCK
350
45
  3
BYLAYER
350
44
  3
GLOBAL
350
46
1001
ACAD
1000
TREAT_AS_HARD
1070
     0
  0
DICTIONARY
  5
6B
102
{ACAD_REACTORS
330
C
102
}
330
C
100
AcDbDictionary
  3
STANDARD
350
6C
1001
ACAD
1000
TREAT_AS_HARD
1070
     0
  0
DICTIONARY
  5
17
102
{ACAD_REACTORS
330
C
102
}
330
C
100
AcDbDictionary
  3
STANDARD
350
18
1001
ACAD
1000
TREAT_AS_HARD
1070
     0
  0
DICTIONARY
  5
19
102
{ACAD_REACTORS
330
C
102
}
330
C
100
AcDbDictionary
1001
ACAD
1000
TREAT_AS_HARD
1070
     0
  0
DICTIONARY
  5
47
102
{ACAD_REACTORS
330
C
102
}
330
C
100
AcDbDictionary
  3
SCALE100_1
350
10000023
  3
SCALE10_1
350
1000001D
  3
SCALE12_1
350
1000001E
  3
SCALE16_1
350
1000001F
  3
SCALE1_1
350
10000006
  3
SCALE1_10
350
1000000D
  3
SCALE1_100
350
10000016
  3
SCALE1_12
350
1000000E
  3
SCALE1_16
350
1000000F
  3
SCALE1_2
350
10000007
  3
SCALE1_20
350
10000010
  3
SCALE1_25
350
10000011
  3
SCALE1_3
350
10000008
  3
SCALE1_32
350
10000012
  3
SCALE1_4
350
10000009
  3
SCALE1_40
350
10000013
  3
SCALE1_5
350
1000000A
  3
SCALE1_50
350
10000014
  3
SCALE1_6
350
1000000B
  3
SCALE1_8
350
1000000C
  3
SCALE1_80
350
10000015
  3
SCALE20_1
350
10000020
  3
SCALE2_1
350
10000017
  3
SCALE32_1
350
10000021
  3
SCALE3_1
350
10000018
  3
SCALE4_1
350
10000019
  3
SCALE50_1
350
10000022
  3
SCALE5_1
350
1000001A
  3
SCALE6_1
350
1000001B
  3
SCALE8_1
350
1000001C
1001
ACAD
1000
TREAT_AS_HARD
1070
     0
  0
DICTIONARY
  5
2A
102
{ACAD_REACTORS
330
C
102
}
330
C
100
AcDbDictionary
  3
2DWIREFRAME
350
2F
  3
BASIC
350
32
  3
BRIGHTEN
350
36
  3
COLORCHANGE
350
3A
  3
CONCEPTUAL
350
34
  3
DIM
350
35
  3
EDGECOLOROFF
350
3D
  3
FACEPATTERN
350
39
  3
FLAT
350
2B
  3
FLATWITHEDGES
350
2C
  3
GOURAUD
350
2D
  3
GOURAUDWITHEDGES
350
2E
  3
HIDDEN
350
31
  3
JITTEROFF
350
3B
  3
LINEPATTERN
350
38
  3
OVERHANGOFF
350
3C
  3
REALISTIC
350
33
  3
SHADED
350
42
  3
SHADED_WITH_EDGES
350
41
  3
SHADES_OF_GRAY
350
3E
  3
SKETCHY
350
3F
  3
THICKEN
350
37
  3
WIREFRAME
350
30
  3
X-RAY
350
40
1001
ACAD
1000
TREAT_AS_HARD
1070
     0
  0
DICTIONARY
  5
10000257
102
{ACAD_REACTORS
330
C
102
}
330
C
100
AcDbDictionary
  3
CANNOSCALE
350
1000032E
  3
CMLEADERSTYLE
350
10000259
  3
CTABLESTYLE
350
10000258
  3
DIMASSOC
350
1000025C
  3
HIDETEXT
350
1000025D
  3
MSLTSCALE
350
1000032F
1001
ACAD
1000
TREAT_AS_HARD
1070
     0
  0
XRECORD
  5
1000025E
102
{ACAD_REACTORS
330
C
102
}
330
C
100
AcDbXrecord
  1
DWGPROPS COOKIE
  2

  3

  4

  6
File was created by BTDwgCreate
  7

  8

  9

300
=
301
=
302
=
303
=
304
=
305
=
306
=
307
=
308
=
309
=
 40
0.0
 41
2460750.696894942
 42
2460750.696894953
  1

 90
        0
  0
DICTIONARY
  5
10000001
102
{ACAD_REACTORS
330
C
102
}
330
C
100
AcDbDictionary
  3
DIM_UNITS
360
10000003
  3
DWGGEN_VERSION
360
10000002
  3
FIRST_ANGLE
360
10000005
1001
ACAD
1000
TREAT_AS_HARD
1070
     1
  0
SORTENTSTABLE
  5
10000256
102
{ACAD_REACTORS
330
10000255
102
}
330
10000255
100
AcDbSortentsTable
330
1F
  0
XRECORD
  5
10000059
102
{ACAD_REACTORS
330
10000058
102
}
330
10000058
100
AcDbXrecord
1000
KSNb
  0
XRECORD
  5
1000005C
102
{ACAD_REACTORS
330
1000005B
102
}
330
1000005B
100
AcDbXrecord
1000
KSlb
  0
XRECORD
  5
1000005F
102
{ACAD_REACTORS
330
1000005E
102
}
330
1000005E
100
AcDbXrecord
1000
KSVb
  0
XRECORD
  5
10000062
102
{ACAD_REACTORS
330
10000061
102
}
330
10000061
100
AcDbXrecord
1000
KSdb
  0
XRECORD
  5
10000067
102
{ACAD_REACTORS
330
10000064
102
}
330
10000064
100
AcDbXrecord
 40
0.0590551181102363
  0
XRECORD
  5
10000065
102
{ACAD_REACTORS
330
10000064
102
}
330
10000064
100
AcDbXrecord
1000
KStb
  0
XRECORD
  5
10000066
102
{ACAD_REACTORS
330
10000064
102
}
330
10000064
100
AcDbXrecord
1000
JSK
  0
XRECORD
  5
1000006C
102
{ACAD_REACTORS
330
10000069
102
}
330
10000069
100
AcDbXrecord
 40
0.0590551181102363
  0
XRECORD
  5
1000006A
102
{ACAD_REACTORS
330
10000069
102
}
330
10000069
100
AcDbXrecord
1000
KS1b
  0
XRECORD
  5
1000006B
102
{ACAD_REACTORS
330
10000069
102
}
330
10000069
100
AcDbXrecord
1000
JSK
  0
XRECORD
  5
10000071
102
{ACAD_REACTORS
330
1000006E
102
}
330
1000006E
100
AcDbXrecord
 40
0.0590551181102363
  0
XRECORD
  5
1000006F
102
{ACAD_REACTORS
330
1000006E
102
}
330
1000006E
100
AcDbXrecord
1000
KS9b
  0
XRECORD
  5
10000070
102
{ACAD_REACTORS
330
1000006E
102
}
330
1000006E
100
AcDbXrecord
1000
JSK
  0
XRECORD
  5
10000076
102
{ACAD_REACTORS
330
10000073
102
}
330
10000073
100
AcDbXrecord
 40
0.0590551181102363
  0
XRECORD
  5
10000074
102
{ACAD_REACTORS
330
10000073
102
}
330
10000073
100
AcDbXrecord
1000
KSFc
  0
XRECORD
  5
10000075
102
{ACAD_REACTORS
330
10000073
102
}
330
10000073
100
AcDbXrecord
1000
JSK
  0
XRECORD
  5
10000079
102
{ACAD_REACTORS
330
10000078
102
}
330
10000078
100
AcDbXrecord
1000
KSFe
  0
XRECORD
  5
1000007E
102
{ACAD_REACTORS
330
1000007B
102
}
330
1000007B
100
AcDbXrecord
 40
0.0787401574803156
  0
XRECORD
  5
1000007C
102
{ACAD_REACTORS
330
1000007B
102
}
330
1000007B
100
AcDbXrecord
1000
KSFd
  0
XRECORD
  5
1000007D
102
{ACAD_REACTORS
330
1000007B
102
}
330
1000007B
100
AcDbXrecord
1000
JSK
  0
XRECORD
  5
10000081
102
{ACAD_REACTORS
330
10000080
102
}
330
10000080
100
AcDbXrecord
1000
KStc
  0
XRECORD
  5
10000086
102
{ACAD_REACTORS
330
10000083
102
}
330
10000083
100
AcDbXrecord
 40
0.0787401574803158
  0
XRECORD
  5
10000084
102
{ACAD_REACTORS
330
10000083
102
}
330
10000083
100
AcDbXrecord
1000
KSdd
  0
XRECORD
  5
10000085
102
{ACAD_REACTORS
330
10000083
102
}
330
10000083
100
AcDbXrecord
1000
JSK
  0
XRECORD
  5
10000089
102
{ACAD_REACTORS
330
10000088
102
}
330
10000088
100
AcDbXrecord
1000
KSlc
  0
XRECORD
  5
1000008E
102
{ACAD_REACTORS
330
1000008B
102
}
330
1000008B
100
AcDbXrecord
 40
0.0393700787401583
  0
XRECORD
  5
1000008C
102
{ACAD_REACTORS
330
1000008B
102
}
330
1000008B
100
AcDbXrecord
1000
KSld
  0
XRECORD
  5
1000008D
102
{ACAD_REACTORS
330
1000008B
102
}
330
1000008B
100
AcDbXrecord
1000
JSK
  0
XRECORD
  5
10000091
102
{ACAD_REACTORS
330
10000090
102
}
330
10000090
100
AcDbXrecord
1000
KSdc
  0
XRECORD
  5
10000096
102
{ACAD_REACTORS
330
10000093
102
}
330
10000093
100
AcDbXrecord
 40
0.0787401574803161
  0
XRECORD
  5
10000094
102
{ACAD_REACTORS
330
10000093
102
}
330
10000093
100
AcDbXrecord
1000
KS9d
  0
XRECORD
  5
10000095
102
{ACAD_REACTORS
330
10000093
102
}
330
10000093
100
AcDbXrecord
1000
JSK
  0
XRECORD
  5
10000099
102
{ACAD_REACTORS
330
10000098
102
}
330
10000098
100
AcDbXrecord
1000
KSVc
  0
XRECORD
  5
1000009E
102
{ACAD_REACTORS
330
1000009B
102
}
330
1000009B
100
AcDbXrecord
 40
0.078740157480315
  0
XRECORD
  5
1000009C
102
{ACAD_REACTORS
330
1000009B
102
}
330
1000009B
100
AcDbXrecord
1000
KS1d
  0
XRECORD
  5
1000009D
102
{ACAD_REACTORS
330
1000009B
102
}
330
1000009B
100
AcDbXrecord
1000
JSK
  0
XRECORD
  5
100000A1
102
{ACAD_REACTORS
330
100000A0
102
}
330
100000A0
100
AcDbXrecord
1000
KSNc
  0
XRECORD
  5
100000A6
102
{ACAD_REACTORS
330
100000A3
102
}
330
100000A3
100
AcDbXrecord
 40
0.0393700787401607
  0
XRECORD
  5
100000A4
102
{ACAD_REACTORS
330
100000A3
102
}
330
100000A3
100
AcDbXrecord
1000
KStd
  0
XRECORD
  5
100000A5
102
{ACAD_REACTORS
330
100000A3
102
}
330
100000A3
100
AcDbXrecord
1000
JSK
  0
XRECORD
  5
100000A9
102
{ACAD_REACTORS
330
100000A8
102
}
330
100000A8
100
AcDbXrecord
1000
KS1c
  0
XRECORD
  5
100000AE
102
{ACAD_REACTORS
330
100000AB
102
}
330
100000AB
100
AcDbXrecord
 40
0.0787401574803161
  0
XRECORD
  5
100000AC
102
{ACAD_REACTORS
330
100000AB
102
}
330
100000AB
100
AcDbXrecord
1000
KSVd
  0
XRECORD
  5
100000AD
102
{ACAD_REACTORS
330
100000AB
102
}
330
100000AB
100
AcDbXrecord
1000
JSK
  0
XRECORD
  5
100000B1
102
{ACAD_REACTORS
330
100000B0
102
}
330
100000B0
100
AcDbXrecord
1000
KS9c
  0
XRECORD
  5
100000B6
102
{ACAD_REACTORS
330
100000B3
102
}
330
100000B3
100
AcDbXrecord
 40
0.078740157480315
  0
XRECORD
  5
100000B4
102
{ACAD_REACTORS
330
100000B3
102
}
330
100000B3
100
AcDbXrecord
1000
KSNd
  0
XRECORD
  5
100000B5
102
{ACAD_REACTORS
330
100000B3
102
}
330
100000B3
100
AcDbXrecord
1000
JSK
  0
XRECORD
  5
100000B9
102
{ACAD_REACTORS
330
100000B8
102
}
330
100000B8
100
AcDbXrecord
1000
KSFb
  0
XRECORD
  5
100000BC
102
{ACAD_REACTORS
330
100000BB
102
}
330
100000BB
100
AcDbXrecord
1000
KSNa
  0
XRECORD
  5
100000BF
102
{ACAD_REACTORS
330
100000BE
102
}
330
100000BE
100
AcDbXrecord
1000
KSVa
  0
XRECORD
  5
100000C2
102
{ACAD_REACTORS
330
100000C1
102
}
330
100000C1
100
AcDbXrecord
1000
KSda
  0
XRECORD
  5
100000C5
102
{ACAD_REACTORS
330
100000C4
102
}
330
100000C4
100
AcDbXrecord
1000
KSla
  0
XRECORD
  5
100000C8
102
{ACAD_REACTORS
330
100000C7
102
}
330
100000C7
100
AcDbXrecord
1000
KSta
  0
XRECORD
  5
100000CB
102
{ACAD_REACTORS
330
100000CA
102
}
330
100000CA
100
AcDbXrecord
1000
KS1a
  0
XRECORD
  5
100000CE
102
{ACAD_REACTORS
330
100000CD
102
}
330
100000CD
100
AcDbXrecord
1000
KS9a
  0
XRECORD
  5
100000D1
102
{ACAD_REACTORS
330
100000D0
102
}
330
100000D0
100
AcDbXrecord
1000
KSFa
  0
XRECORD
  5
100000D4
102
{ACAD_REACTORS
330
100000D3
102
}
330
100000D3
100
AcDbXrecord
1000
KSNZ
  0
XRECORD
  5
100000D7
102
{ACAD_REACTORS
330
100000D6
102
}
330
100000D6
100
AcDbXrecord
1000
KSVZ
  0
XRECORD
  5
100000DA
102
{ACAD_REACTORS
330
100000D9
102
}
330
100000D9
100
AcDbXrecord
1000
KSdZ
  0
XRECORD
  5
100000DD
102
{ACAD_REACTORS
330
100000DC
102
}
330
100000DC
100
AcDbXrecord
1000
KSlZ
  0
XRECORD
  5
100000E0
102
{ACAD_REACTORS
330
100000DF
102
}
330
100000DF
100
AcDbXrecord
1000
KStZ
  0
XRECORD
  5
100000E3
102
{ACAD_REACTORS
330
100000E2
102
}
330
100000E2
100
AcDbXrecord
1000
KS1Z
  0
XRECORD
  5
100000E6
102
{ACAD_REACTORS
330
100000E5
102
}
330
100000E5
100
AcDbXrecord
1000
KS9Z
  0
XRECORD
  5
100000E9
102
{ACAD_REACTORS
330
100000E8
102
}
330
100000E8
100
AcDbXrecord
1000
KSFZ
  0
XRECORD
  5
100000EC
102
{ACAD_REACTORS
330
100000EB
102
}
330
100000EB
100
AcDbXrecord
1000
KSNW
  0
XRECORD
  5
100000EF
102
{ACAD_REACTORS
330
100000EE
102
}
330
100000EE
100
AcDbXrecord
1000
KSVW
  0
XRECORD
  5
100000F2
102
{ACAD_REACTORS
330
100000F1
102
}
330
100000F1
100
AcDbXrecord
1000
KSdW
  0
XRECORD
  5
100000F5
102
{ACAD_REACTORS
330
100000F4
102
}
330
100000F4
100
AcDbXrecord
1000
KSlW
  0
XRECORD
  5
100000F8
102
{ACAD_REACTORS
330
100000F7
102
}
330
100000F7
100
AcDbXrecord
1000
KStW
  0
XRECORD
  5
100000FB
102
{ACAD_REACTORS
330
100000FA
102
}
330
100000FA
100
AcDbXrecord
1000
KS1W
  0
XRECORD
  5
100000FE
102
{ACAD_REACTORS
330
100000FD
102
}
330
100000FD
100
AcDbXrecord
1000
KS9W
  0
XRECORD
  5
10000101
102
{ACAD_REACTORS
330
10000100
102
}
330
10000100
100
AcDbXrecord
1000
KSFX
  0
XRECORD
  5
10000104
102
{ACAD_REACTORS
330
10000103
102
}
330
10000103
100
AcDbXrecord
1000
KSNX
  0
XRECORD
  5
10000107
102
{ACAD_REACTORS
330
10000106
102
}
330
10000106
100
AcDbXrecord
1000
KSVX
  0
XRECORD
  5
1000010A
102
{ACAD_REACTORS
330
10000109
102
}
330
10000109
100
AcDbXrecord
1000
KSdX
  0
XRECORD
  5
1000010D
102
{ACAD_REACTORS
330
1000010C
102
}
330
1000010C
100
AcDbXrecord
1000
KSlX
  0
XRECORD
  5
10000110
102
{ACAD_REACTORS
330
1000010F
102
}
330
1000010F
100
AcDbXrecord
1000
KStX
  0
XRECORD
  5
10000113
102
{ACAD_REACTORS
330
10000112
102
}
330
10000112
100
AcDbXrecord
1000
KS1X
  0
XRECORD
  5
10000116
102
{ACAD_REACTORS
330
10000115
102
}
330
10000115
100
AcDbXrecord
1000
KS9X
  0
XRECORD
  5
10000119
102
{ACAD_REACTORS
330
10000118
102
}
330
10000118
100
AcDbXrecord
1000
KSFY
  0
XRECORD
  5
1000011C
102
{ACAD_REACTORS
330
1000011B
102
}
330
1000011B
100
AcDbXrecord
1000
KSNY
  0
XRECORD
  5
1000011F
102
{ACAD_REACTORS
330
1000011E
102
}
330
1000011E
100
AcDbXrecord
1000
KSVY
  0
XRECORD
  5
10000122
102
{ACAD_REACTORS
330
10000121
102
}
330
10000121
100
AcDbXrecord
1000
KSdY
  0
XRECORD
  5
10000125
102
{ACAD_REACTORS
330
10000124
102
}
330
10000124
100
AcDbXrecord
1000
KSlY
  0
XRECORD
  5
10000128
102
{ACAD_REACTORS
330
10000127
102
}
330
10000127
100
AcDbXrecord
1000
KStY
  0
XRECORD
  5
1000012B
102
{ACAD_REACTORS
330
1000012A
102
}
330
1000012A
100
AcDbXrecord
1000
KS1Y
  0
XRECORD
  5
1000012E
102
{ACAD_REACTORS
330
1000012D
102
}
330
1000012D
100
AcDbXrecord
1000
KS9Y
  0
XRECORD
  5
10000131
102
{ACAD_REACTORS
330
10000130
102
}
330
10000130
100
AcDbXrecord
1000
KSFW
  0
XRECORD
  5
10000134
102
{ACAD_REACTORS
330
10000133
102
}
330
10000133
100
AcDbXrecord
1000
KSlU
  0
XRECORD
  5
10000137
102
{ACAD_REACTORS
330
10000136
102
}
330
10000136
100
AcDbXrecord
1000
KStU
  0
XRECORD
  5
1000013A
102
{ACAD_REACTORS
330
10000139
102
}
330
10000139
100
AcDbXrecord
1000
KS1U
  0
XRECORD
  5
1000013D
102
{ACAD_REACTORS
330
1000013C
102
}
330
1000013C
100
AcDbXrecord
1000
KS9U
  0
XRECORD
  5
10000140
102
{ACAD_REACTORS
330
1000013F
102
}
330
1000013F
100
AcDbXrecord
1000
KSFV
  0
XRECORD
  5
10000143
102
{ACAD_REACTORS
330
10000142
102
}
330
10000142
100
AcDbXrecord
1000
KSNV
  0
XRECORD
  5
10000146
102
{ACAD_REACTORS
330
10000145
102
}
330
10000145
100
AcDbXrecord
1000
KSVV
  0
XRECORD
  5
10000149
102
{ACAD_REACTORS
330
10000148
102
}
330
10000148
100
AcDbXrecord
1000
KSdV
  0
XRECORD
  5
1000014C
102
{ACAD_REACTORS
330
1000014B
102
}
330
1000014B
100
AcDbXrecord
1000
KSlV
  0
XRECORD
  5
1000014F
102
{ACAD_REACTORS
330
1000014E
102
}
330
1000014E
100
AcDbXrecord
1000
KStV
  0
XRECORD
  5
10000152
102
{ACAD_REACTORS
330
10000151
102
}
330
10000151
100
AcDbXrecord
1000
KS1V
  0
XRECORD
  5
10000155
102
{ACAD_REACTORS
330
10000154
102
}
330
10000154
100
AcDbXrecord
1000
KS9V
  0
XRECORD
  5
10000158
102
{ACAD_REACTORS
330
10000157
102
}
330
10000157
100
AcDbXrecord
1000
KSdU
  0
XRECORD
  5
1000015B
102
{ACAD_REACTORS
330
1000015A
102
}
330
1000015A
100
AcDbXrecord
1000
KSlT
  0
XRECORD
  5
1000015E
102
{ACAD_REACTORS
330
1000015D
102
}
330
1000015D
100
AcDbXrecord
1000
KStT
  0
XRECORD
  5
10000161
102
{ACAD_REACTORS
330
10000160
102
}
330
10000160
100
AcDbXrecord
1000
KS1T
  0
XRECORD
  5
10000164
102
{ACAD_REACTORS
330
10000163
102
}
330
10000163
100
AcDbXrecord
1000
KS9T
  0
XRECORD
  5
10000167
102
{ACAD_REACTORS
330
10000166
102
}
330
10000166
100
AcDbXrecord
1000
KSFU
  0
XRECORD
  5
1000016A
102
{ACAD_REACTORS
330
10000169
102
}
330
10000169
100
AcDbXrecord
1000
KSNU
  0
XRECORD
  5
1000016D
102
{ACAD_REACTORS
330
1000016C
102
}
330
1000016C
100
AcDbXrecord
1000
KSVU
  0
XRECORD
  5
10000170
102
{ACAD_REACTORS
330
1000016F
102
}
330
1000016F
100
AcDbXrecord
1000
KSdT
  0
XRECORD
  5
10000173
102
{ACAD_REACTORS
330
10000172
102
}
330
10000172
100
AcDbXrecord
1000
KSFT
  0
XRECORD
  5
10000176
102
{ACAD_REACTORS
330
10000175
102
}
330
10000175
100
AcDbXrecord
1000
KSNT
  0
XRECORD
  5
10000179
102
{ACAD_REACTORS
330
10000178
102
}
330
10000178
100
AcDbXrecord
1000
KSVT
  0
XRECORD
  5
1000017C
102
{ACAD_REACTORS
330
1000017B
102
}
330
1000017B
100
AcDbXrecord
1000
KS9S
  0
XRECORD
  5
1000017F
102
{ACAD_REACTORS
330
1000017E
102
}
330
1000017E
100
AcDbXrecord
1000
KSdS
  0
XRECORD
  5
10000182
102
{ACAD_REACTORS
330
10000181
102
}
330
10000181
100
AcDbXrecord
1000
KSlS
  0
XRECORD
  5
10000185
102
{ACAD_REACTORS
330
10000184
102
}
330
10000184
100
AcDbXrecord
1000
KStS
  0
XRECORD
  5
10000188
102
{ACAD_REACTORS
330
10000187
102
}
330
10000187
100
AcDbXrecord
1000
KS1S
  0
XRECORD
  5
1000018B
102
{ACAD_REACTORS
330
1000018A
102
}
330
1000018A
100
AcDbXrecord
1000
KSVS
  0
XRECORD
  5
1000018E
102
{ACAD_REACTORS
330
1000018D
102
}
330
1000018D
100
AcDbXrecord
1000
KS1R
  0
XRECORD
  5
10000191
102
{ACAD_REACTORS
330
10000190
102
}
330
10000190
100
AcDbXrecord
1000
KS9R
  0
XRECORD
  5
10000194
102
{ACAD_REACTORS
330
10000193
102
}
330
10000193
100
AcDbXrecord
1000
KSFS
  0
XRECORD
  5
10000197
102
{ACAD_REACTORS
330
10000196
102
}
330
10000196
100
AcDbXrecord
1000
KSNS
  0
XRECORD
  5
1000019A
102
{ACAD_REACTORS
330
10000199
102
}
330
10000199
100
AcDbXrecord
1000
KStR
  0
XRECORD
  5
1000019D
102
{ACAD_REACTORS
330
1000019C
102
}
330
1000019C
100
AcDbXrecord
1000
KS1Q
  0
XRECORD
  5
100001A0
102
{ACAD_REACTORS
330
1000019F
102
}
330
1000019F
100
AcDbXrecord
1000
KS9Q
  0
XRECORD
  5
100001A3
102
{ACAD_REACTORS
330
100001A2
102
}
330
100001A2
100
AcDbXrecord
1000
KSFR
  0
XRECORD
  5
100001A6
102
{ACAD_REACTORS
330
100001A5
102
}
330
100001A5
100
AcDbXrecord
1000
KSNR
  0
XRECORD
  5
100001A9
102
{ACAD_REACTORS
330
100001A8
102
}
330
100001A8
100
AcDbXrecord
1000
KSVR
  0
XRECORD
  5
100001AC
102
{ACAD_REACTORS
330
100001AB
102
}
330
100001AB
100
AcDbXrecord
1000
KSdR
  0
XRECORD
  5
100001AF
102
{ACAD_REACTORS
330
100001AE
102
}
330
100001AE
100
AcDbXrecord
1000
KSlR
  0
XRECORD
  5
100001B2
102
{ACAD_REACTORS
330
100001B1
102
}
330
100001B1
100
AcDbXrecord
1000
KStQ
  0
XRECORD
  5
100001B5
102
{ACAD_REACTORS
330
100001B4
102
}
330
100001B4
100
AcDbXrecord
1000
KSVQ
  0
XRECORD
  5
100001B8
102
{ACAD_REACTORS
330
100001B7
102
}
330
100001B7
100
AcDbXrecord
1000
KSdQ
  0
XRECORD
  5
100001BB
102
{ACAD_REACTORS
330
100001BA
102
}
330
100001BA
100
AcDbXrecord
1000
KSlQ
  0
XRECORD
  5
100001BE
102
{ACAD_REACTORS
330
100001BD
102
}
330
100001BD
100
AcDbXrecord
1000
KSNQ
  0
XRECORD
  5
100001C1
102
{ACAD_REACTORS
330
100001C0
102
}
330
100001C0
100
AcDbXrecord
1000
KSFO
  0
XRECORD
  5
100001C4
102
{ACAD_REACTORS
330
100001C3
102
}
330
100001C3
100
AcDbXrecord
1000
KSNO
  0
XRECORD
  5
100001C7
102
{ACAD_REACTORS
330
100001C6
102
}
330
100001C6
100
AcDbXrecord
1000
KSVO
  0
XRECORD
  5
100001CA
102
{ACAD_REACTORS
330
100001C9
102
}
330
100001C9
100
AcDbXrecord
1000
KSdO
  0
XRECORD
  5
100001CD
102
{ACAD_REACTORS
330
100001CC
102
}
330
100001CC
100
AcDbXrecord
1000
KSlO
  0
XRECORD
  5
100001D0
102
{ACAD_REACTORS
330
100001CF
102
}
330
100001CF
100
AcDbXrecord
1000
KStO
  0
XRECORD
  5
100001D3
102
{ACAD_REACTORS
330
100001D2
102
}
330
100001D2
100
AcDbXrecord
1000
KS1O
  0
XRECORD
  5
100001D6
102
{ACAD_REACTORS
330
100001D5
102
}
330
100001D5
100
AcDbXrecord
1000
KS9O
  0
XRECORD
  5
100001D9
102
{ACAD_REACTORS
330
100001D8
102
}
330
100001D8
100
AcDbXrecord
1000
KSFP
  0
XRECORD
  5
100001DC
102
{ACAD_REACTORS
330
100001DB
102
}
330
100001DB
100
AcDbXrecord
1000
KSNP
  0
XRECORD
  5
100001DF
102
{ACAD_REACTORS
330
100001DE
102
}
330
100001DE
100
AcDbXrecord
1000
KSVP
  0
XRECORD
  5
100001E2
102
{ACAD_REACTORS
330
100001E1
102
}
330
100001E1
100
AcDbXrecord
1000
KSdP
  0
XRECORD
  5
100001E5
102
{ACAD_REACTORS
330
100001E4
102
}
330
100001E4
100
AcDbXrecord
1000
KSlP
  0
XRECORD
  5
100001E8
102
{ACAD_REACTORS
330
100001E7
102
}
330
100001E7
100
AcDbXrecord
1000
KStP
  0
XRECORD
  5
100001EB
102
{ACAD_REACTORS
330
100001EA
102
}
330
100001EA
100
AcDbXrecord
1000
KS1P
  0
XRECORD
  5
100001EE
102
{ACAD_REACTORS
330
100001ED
102
}
330
100001ED
100
AcDbXrecord
1000
KS9P
  0
XRECORD
  5
100001F1
102
{ACAD_REACTORS
330
100001F0
102
}
330
100001F0
100
AcDbXrecord
1000
KSFQ
  0
XRECORD
  5
100001F4
102
{ACAD_REACTORS
330
100001F3
102
}
330
100001F3
100
AcDbXrecord
1000
KS9N
  0
XRECORD
  5
100001F7
102
{ACAD_REACTORS
330
100001F6
102
}
330
100001F6
100
AcDbXrecord
1000
KSdN
  0
XRECORD
  5
100001FA
102
{ACAD_REACTORS
330
100001F9
102
}
330
100001F9
100
AcDbXrecord
1000
KSlN
  0
XRECORD
  5
100001FD
102
{ACAD_REACTORS
330
100001FC
102
}
330
100001FC
100
AcDbXrecord
1000
KStN
  0
XRECORD
  5
10000200
102
{ACAD_REACTORS
330
100001FF
102
}
330
100001FF
100
AcDbXrecord
1000
KS1N
  0
XRECORD
  5
10000203
102
{ACAD_REACTORS
330
10000202
102
}
330
10000202
100
AcDbXrecord
1000
KSVN
  0
XRECORD
  5
10000206
102
{ACAD_REACTORS
330
10000205
102
}
330
10000205
100
AcDbXrecord
1000
KSdM
  0
XRECORD
  5
10000209
102
{ACAD_REACTORS
330
10000208
102
}
330
10000208
100
AcDbXrecord
1000
KSlM
  0
XRECORD
  5
1000020C
102
{ACAD_REACTORS
330
1000020B
102
}
330
1000020B
100
AcDbXrecord
1000
KStM
  0
XRECORD
  5
1000020F
102
{ACAD_REACTORS
330
1000020E
102
}
330
1000020E
100
AcDbXrecord
1000
KS1M
  0
XRECORD
  5
10000212
102
{ACAD_REACTORS
330
10000211
102
}
330
10000211
100
AcDbXrecord
1000
KS9M
  0
XRECORD
  5
10000215
102
{ACAD_REACTORS
330
10000214
102
}
330
10000214
100
AcDbXrecord
1000
KSFN
  0
XRECORD
  5
10000218
102
{ACAD_REACTORS
330
10000217
102
}
330
10000217
100
AcDbXrecord
1000
KSNN
  0
XRECORD
  5
1000021B
102
{ACAD_REACTORS
330
1000021A
102
}
330
1000021A
100
AcDbXrecord
1000
KSVM
  0
XRECORD
  5
1000021E
102
{ACAD_REACTORS
330
1000021D
102
}
330
1000021D
100
AcDbXrecord
1000
KS9L
  0
XRECORD
  5
10000221
102
{ACAD_REACTORS
330
10000220
102
}
330
10000220
100
AcDbXrecord
1000
KSFM
  0
XRECORD
  5
10000224
102
{ACAD_REACTORS
330
10000223
102
}
330
10000223
100
AcDbXrecord
1000
KSNM
  0
XRECORD
  5
10000227
102
{ACAD_REACTORS
330
10000226
102
}
330
10000226
100
AcDbXrecord
1000
KS1L
  0
XRECORD
  5
1000022A
102
{ACAD_REACTORS
330
10000229
102
}
330
10000229
100
AcDbXrecord
1000
KS9K
  0
XRECORD
  5
1000022D
102
{ACAD_REACTORS
330
1000022C
102
}
330
1000022C
100
AcDbXrecord
1000
KSFL
  0
XRECORD
  5
10000230
102
{ACAD_REACTORS
330
1000022F
102
}
330
1000022F
100
AcDbXrecord
1000
KSNL
  0
XRECORD
  5
10000233
102
{ACAD_REACTORS
330
10000232
102
}
330
10000232
100
AcDbXrecord
1000
KSVL
  0
XRECORD
  5
10000236
102
{ACAD_REACTORS
330
10000235
102
}
330
10000235
100
AcDbXrecord
1000
KSdL
  0
XRECORD
  5
10000239
102
{ACAD_REACTORS
330
10000238
102
}
330
10000238
100
AcDbXrecord
1000
KSlL
  0
XRECORD
  5
1000023C
102
{ACAD_REACTORS
330
1000023B
102
}
330
1000023B
100
AcDbXrecord
1000
KStL
  0
XRECORD
  5
1000023F
102
{ACAD_REACTORS
330
1000023E
102
}
330
1000023E
100
AcDbXrecord
1000
KS1K
  0
XRECORD
  5
10000242
102
{ACAD_REACTORS
330
10000241
102
}
330
10000241
100
AcDbXrecord
1000
KS9J
  0
XRECORD
  5
10000245
102
{ACAD_REACTORS
330
10000244
102
}
330
10000244
100
AcDbXrecord
1000
KSFK
  0
XRECORD
  5
10000248
102
{ACAD_REACTORS
330
10000247
102
}
330
10000247
100
AcDbXrecord
1000
KSNK
  0
XRECORD
  5
1000024B
102
{ACAD_REACTORS
330
1000024A
102
}
330
1000024A
100
AcDbXrecord
1000
KSVK
  0
XRECORD
  5
1000024E
102
{ACAD_REACTORS
330
1000024D
102
}
330
1000024D
100
AcDbXrecord
1000
KSdK
  0
XRECORD
  5
10000251
102
{ACAD_REACTORS
330
10000250
102
}
330
10000250
100
AcDbXrecord
1000
KSlK
  0
XRECORD
  5
10000254
102
{ACAD_REACTORS
330
10000253
102
}
330
10000253
100
AcDbXrecord
1000
KStK
  0
MATERIAL
  5
45
102
{ACAD_REACTORS
330
43
102
}
102
{ACAD_XDICTIONARY
360
10000332
102
}
330
43
100
AcDbMaterial
  1
BYBLOCK
  0
MATERIAL
  5
44
102
{ACAD_REACTORS
330
43
102
}
102
{ACAD_XDICTIONARY
360
10000330
102
}
330
43
100
AcDbMaterial
  1
BYLAYER
  0
MATERIAL
  5
46
102
{ACAD_REACTORS
330
43
102
}
102
{ACAD_XDICTIONARY
360
10000334
102
}
330
43
100
AcDbMaterial
  1
GLOBAL
  0
ACAD_PROXY_OBJECT
  5
6C
102
{ACAD_REACTORS
330
6B
102
}
330
6B
100
AcDbZombieObject
 90
      499
 91
      505
 93
      610
310
40901902A4063FBFFFFFE056BD1B81E855B9FC0AD7A3703D0AD73F4214DD185B99185C9900AD7A3703D0AC73F90141901A02B5E8DC0F42B1CFC02B5E8DC0F42B1CFE5764000000000000300FC0
340
14
340
0
340
11
340
0
 94
        0
1001
ACAD_MLEADERVER
1070
     2
  0
MLINESTYLE
  5
18
102
{ACAD_REACTORS
330
17
102
}
330
17
100
AcDbMlineStyle
  2
Standard
 70
     0
  3

 62
   256
 51
90.0
 52
90.0
 71
     2
 49
0.5
 62
   256
  6
BYLAYER
 49
-0.5
 62
   256
  6
BYLAYER
  0
ACAD_PROXY_OBJECT
  5
10000023
102
{ACAD_REACTORS
330
47
102
}
330
47
100
AcDbZombieObject
 90
      499
 91
      503
 93
      121
310
9053130303A310000000000001650100
  0
ACAD_PROXY_OBJECT
  5
1000001D
102
{ACAD_REACTORS
330
47
102
}
330
47
100
AcDbZombieObject
 90
      499
 91
      503
 93
      113
310
90431303A310000000000000910100
  0
ACAD_PROXY_OBJECT
  5
1000001E
102
{ACAD_REACTORS
330
47
102
}
330
47
100
AcDbZombieObject
 90
      499
 91
      503
 93
      113
310
90431323A310000000000000A10100
  0
ACAD_PROXY_OBJECT
  5
1000001F
102
{ACAD_REACTORS
330
47
102
}
330
47
100
AcDbZombieObject
 90
      499
 91
      503
 93
      113
310
90431363A310000000000000C10100
  0
ACAD_PROXY_OBJECT
  5
10000006
102
{ACAD_REACTORS
330
47
102
}
330
47
100
AcDbZombieObject
 90
      499
 91
      503
 93
       41
310
903313A31500
  0
ACAD_PROXY_OBJECT
  5
1000000D
102
{ACAD_REACTORS
330
47
102
}
330
47
100
AcDbZombieObject
 90
      499
 91
      503
 93
      113
310
904313A31304000000000000244000
  0
ACAD_PROXY_OBJECT
  5
10000016
102
{ACAD_REACTORS
330
47
102
}
330
47
100
AcDbZombieObject
 90
      499
 91
      503
 93
      121
310
905313A3130304000000000000594000
  0
ACAD_PROXY_OBJECT
  5
1000000E
102
{ACAD_REACTORS
330
47
102
}
330
47
100
AcDbZombieObject
 90
      499
 91
      503
 93
      113
310
904313A31324000000000000284000
  0
ACAD_PROXY_OBJECT
  5
1000000F
102
{ACAD_REACTORS
330
47
102
}
330
47
100
AcDbZombieObject
 90
      499
 91
      503
 93
      113
310
904313A31364000000000000304000
  0
ACAD_PROXY_OBJECT
  5
10000007
102
{ACAD_REACTORS
330
47
102
}
330
47
100
AcDbZombieObject
 90
      499
 91
      503
 93
      105
310
903313A324000000000000004000
  0
ACAD_PROXY_OBJECT
  5
10000010
102
{ACAD_REACTORS
330
47
102
}
330
47
100
AcDbZombieObject
 90
      499
 91
      503
 93
      113
310
904313A32304000000000000344000
  0
ACAD_PROXY_OBJECT
  5
10000011
102
{ACAD_REACTORS
330
47
102
}
330
47
100
AcDbZombieObject
 90
      499
 91
      503
 93
      113
310
904313A32354000000000000394000
  0
ACAD_PROXY_OBJECT
  5
10000008
102
{ACAD_REACTORS
330
47
102
}
330
47
100
AcDbZombieObject
 90
      499
 91
      503
 93
      105
310
903313A334000000000000084000
  0
ACAD_PROXY_OBJECT
  5
10000012
102
{ACAD_REACTORS
330
47
102
}
330
47
100
AcDbZombieObject
 90
      499
 91
      503
 93
      113
310
904313A33324000000000000404000
  0
ACAD_PROXY_OBJECT
  5
10000009
102
{ACAD_REACTORS
330
47
102
}
330
47
100
AcDbZombieObject
 90
      499
 91
      503
 93
      105
310
903313A344000000000000104000
  0
ACAD_PROXY_OBJECT
  5
10000013
102
{ACAD_REACTORS
330
47
102
}
330
47
100
AcDbZombieObject
 90
      499
 91
      503
 93
      113
310
904313A34304000000000000444000
  0
ACAD_PROXY_OBJECT
  5
1000000A
102
{ACAD_REACTORS
330
47
102
}
330
47
100
AcDbZombieObject
 90
      499
 91
      503
 93
      105
310
903313A354000000000000144000
  0
ACAD_PROXY_OBJECT
  5
10000014
102
{ACAD_REACTORS
330
47
102
}
330
47
100
AcDbZombieObject
 90
      499
 91
      503
 93
      113
310
904313A35304000000000000494000
  0
ACAD_PROXY_OBJECT
  5
1000000B
102
{ACAD_REACTORS
330
47
102
}
330
47
100
AcDbZombieObject
 90
      499
 91
      503
 93
      105
310
903313A364000000000000184000
  0
ACAD_PROXY_OBJECT
  5
1000000C
102
{ACAD_REACTORS
330
47
102
}
330
47
100
AcDbZombieObject
 90
      499
 91
      503
 93
      105
310
903313A384000000000000204000
  0
ACAD_PROXY_OBJECT
  5
10000015
102
{ACAD_REACTORS
330
47
102
}
330
47
100
AcDbZombieObject
 90
      499
 91
      503
 93
      113
310
904313A38304000000000000544000
  0
ACAD_PROXY_OBJECT
  5
10000020
102
{ACAD_REACTORS
330
47
102
}
330
47
100
AcDbZombieObject
 90
      499
 91
      503
 93
      113
310
90432303A310000000000000D10100
  0
ACAD_PROXY_OBJECT
  5
10000017
102
{ACAD_REACTORS
330
47
102
}
330
47
100
AcDbZombieObject
 90
      499
 91
      503
 93
      105
310
903323A310000000000000010100
  0
ACAD_PROXY_OBJECT
  5
10000021
102
{ACAD_REACTORS
330
47
102
}
330
47
100
AcDbZombieObject
 90
      499
 91
      503
 93
      113
310
90433323A310000000000001010100
  0
ACAD_PROXY_OBJECT
  5
10000018
102
{ACAD_REACTORS
330
47
102
}
330
47
100
AcDbZombieObject
 90
      499
 91
      503
 93
      105
310
903333A310000000000000210100
  0
ACAD_PROXY_OBJECT
  5
10000019
102
{ACAD_REACTORS
330
47
102
}
330
47
100
AcDbZombieObject
 90
      499
 91
      503
 93
      105
310
903343A310000000000000410100
  0
ACAD_PROXY_OBJECT
  5
10000022
102
{ACAD_REACTORS
330
47
102
}
330
47
100
AcDbZombieObject
 90
      499
 91
      503
 93
      113
310
90435303A310000000000001250100
  0
ACAD_PROXY_OBJECT
  5
1000001A
102
{ACAD_REACTORS
330
47
102
}
330
47
100
AcDbZombieObject
 90
      499
 91
      503
 93
      105
310
903353A310000000000000510100
  0
ACAD_PROXY_OBJECT
  5
1000001B
102
{ACAD_REACTORS
330
47
102
}
330
47
100
AcDbZombieObject
 90
      499
 91
      503
 93
      105
310
903363A310000000000000610100
  0
ACAD_PROXY_OBJECT
  5
1000001C
102
{ACAD_REACTORS
330
47
102
}
330
47
100
AcDbZombieObject
 90
      499
 91
      503
 93
      105
310
903383A310000000000000810100
  0
ACAD_PROXY_OBJECT
  5
2F
102
{ACAD_REACTORS
330
2A
102
}
330
2A
100
AcDbZombieObject
 90
      499
 91
      501
 93
      436
310
42CC9915DA5C99599C985B595049028333333333333E33F0000000000000F90107901411070040501600405405064090741402480A0340
1001
ACAD
1000
AcDbSavedByObjectVersion
1070
     0
  0
ACAD_PROXY_OBJECT
  5
32
102
{ACAD_REACTORS
330
2A
102
}
330
2A
100
AcDbZombieObject
 90
      499
 91
      501
 93
      388
310
4150985CDA58D07406404333333333333E33F0000000000000F90107A41107004050150841D405064090741402480A0350
1001
ACAD
1000
AcDbSavedByObjectVersion
1070
     0
  0
ACAD_PROXY_OBJECT
  5
36
102
{ACAD_REACTORS
330
2A
102
}
330
2A
100
AcDbZombieObject
 90
      499
 91
      501
 93
      428
310
42109C9A59DA1D195B90C409028333333333333E33F0000000000000F9010790141107004050150841D405064090741402480A029950
1001
ACAD
1000
AcDbSavedByObjectVersion
1070
     0
  0
ACAD_PROXY_OBJECT
  5
3A
102
{ACAD_REACTORS
330
2A
102
}
330
2A
100
AcDbZombieObject
 90
      499
 91
      501
 93
      452
310
42D0DBDB1BDC90DA185B99D95104090240C333333333333E33F0000000000000F90108901411070040501508421405064090741402480A0350
1001
ACAD
1000
AcDbSavedByObjectVersion
1070
     0
  0
ACAD_PROXY_OBJECT
  5
34
102
{ACAD_REACTORS
330
2A
102
}
330
2A
100
AcDbZombieObject
 90
      499
 91
      501
 93
      500
310
4290DBDB98D95C1D1D585B10940D028333333333333E33F0000000000000F90107902409070040501000000000018199010841D405064090740C02480A0340
1001
ACAD
1000
AcDbSavedByObjectVersion
1070
     0
  0
ACAD_PROXY_OBJECT
  5
35
102
{ACAD_REACTORS
330
2A
102
}
330
2A
100
AcDbZombieObject
 90
      499
 91
      501
 93
      412
310
40D11A5B50B409028333333333333E33F0000000000000F9010790141107004050150841D405064090741402480A02677FFFFFD0
1001
ACAD
1000
AcDbSavedByObjectVersion
1070
     0
  0
ACAD_PROXY_OBJECT
  5
3D
102
{ACAD_REACTORS
330
2A
102
}
330
2A
100
AcDbZombieObject
 90
      499
 91
      501
 93
      452
310
43115919D950DBDB1BDC93D999916409028333333333333E33F0000000000000F9010790141107004050150841D405064090741402480A0350
1001
ACAD
1000
AcDbSavedByObjectVersion
1070
     0
  0
ACAD_PROXY_OBJECT
  5
39
102
{ACAD_REACTORS
330
2A
102
}
330
2A
100
AcDbZombieObject
 90
      499
 91
      501
 93
      444
310
42D19858D95C185D1D195C9B90F409028333333333333E33F0000000000000F9010790141107004050150841D405064090741402480A0350
1001
ACAD
1000
AcDbSavedByObjectVersion
1070
     0
  0
ACAD_PROXY_OBJECT
  5
2B
102
{ACAD_REACTORS
330
2A
102
}
330
2A
100
AcDbZombieObject
 90
      499
 91
      501
 93
      380
310
41119B185D240901404333333333333E33F0000000000000F9010740A907004050150841D405064090741402480A1B50
1001
ACAD
1000
AcDbSavedByObjectVersion
1070
     0
  0
ACAD_PROXY_OBJECT
  5
2C
102
{ACAD_REACTORS
330
2A
102
}
330
2A
100
AcDbZombieObject
 90
      499
 91
      501
 93
      468
310
43519B185D15DA5D1A115919D95CD0140901404333333333333E33F0000000000000F90107409019070040501600405405064090741402480A1B50
1001
ACAD
1000
AcDbSavedByObjectVersion
1070
     0
  0
ACAD_PROXY_OBJECT
  5
2D
102
{ACAD_REACTORS
330
2A
102
}
330
2A
100
AcDbZombieObject
 90
      499
 91
      501
 93
      404
310
41D1DBDD5C985D5910240902404333333333333E33F0000000000000F9010740A9070040501641D405064090741402480A1B50
1001
ACAD
1000
AcDbSavedByObjectVersion
1070
     0
  0
ACAD_PROXY_OBJECT
  5
2E
102
{ACAD_REACTORS
330
2A
102
}
330
2A
100
AcDbZombieObject
 90
      499
 91
      501
 93
      492
310
4411DBDD5C985D5915DA5D1A115919D95CD0340902404333333333333E33F0000000000000F90107409019070040501600405405064090741402480A1B50
1001
ACAD
1000
AcDbSavedByObjectVersion
1070
     0
  0
ACAD_PROXY_OBJECT
  5
31
102
{ACAD_REACTORS
330
2A
102
}
330
2A
100
AcDbZombieObject
 90
      499
 91
      501
 93
      476
310
41921A5919195B90640502408333333333333E33F0000000000000F901079024090700405020000000000001110200405405064090740C02480A0340
1001
ACAD
1000
AcDbSavedByObjectVersion
1070
     0
  0
ACAD_PROXY_OBJECT
  5
3B
102
{ACAD_REACTORS
330
2A
102
}
330
2A
100
AcDbZombieObject
 90
      499
 91
      501
 93
      428
310
42529A5D1D195C93D999914409028333333333333E33F0000000000000F9010790141107004050150A41D405064090741402480A0350
1001
ACAD
1000
AcDbSavedByObjectVersion
1070
     0
  0
ACAD_PROXY_OBJECT
  5
38
102
{ACAD_REACTORS
330
2A
102
}
330
2A
100
AcDbZombieObject
 90
      499
 91
      501
 93
      444
310
42D31A5B995C185D1D195C9B90E409028333333333333E33F0000000000000F9010790141107004050750841D405064090741402483A0350
1001
ACAD
1000
AcDbSavedByObjectVersion
1070
     0
  0
ACAD_PROXY_OBJECT
  5
3C
102
{ACAD_REACTORS
330
2A
102
}
330
2A
100
AcDbZombieObject
 90
      499
 91
      501
 93
      444
310
42D3DD995C9A185B99D3D999915409028333333333333E33F0000000000000F9010790141107004050150941D405064090741402480A0350
1001
ACAD
1000
AcDbSavedByObjectVersion
1070
     0
  0
ACAD_PROXY_OBJECT
  5
33
102
{ACAD_REACTORS
330
2A
102
}
330
2A
100
AcDbZombieObject
 90
      499
 91
      501
 93
      428
310
425499585B1A5CDD1A58D08409038333333333333E33F0000000000000F9010740A907004050150800405405064090740C02480A1B40
1001
ACAD
1000
AcDbSavedByObjectVersion
1070
     0
  0
ACAD_PROXY_OBJECT
  5
42
102
{ACAD_REACTORS
330
2A
102
}
330
2A
100
AcDbZombieObject
 90
      499
 91
      501
 93
      420
310
4194DA1859195911B40902404333333333333E33F0000000000000F9010740A41107004050150800405405064090840C02480A0B40
1001
ACAD
1000
AcDbSavedByObjectVersion
1070
     0
  0
ACAD_PROXY_OBJECT
  5
41
102
{ACAD_REACTORS
330
2A
102
}
330
2A
100
AcDbZombieObject
 90
      499
 91
      501
 93
      516
310
4454DA18591959081DDA5D1A08195919D95CD1A40902404333333333333E33F0000000000000F901074090142907004050250800405405064090740C02480A0B40
1001
ACAD
1000
AcDbSavedByObjectVersion
1070
     0
  0
ACAD_PROXY_OBJECT
  5
3E
102
{ACAD_REACTORS
330
2A
102
}
330
2A
100
AcDbZombieObject
 90
      499
 91
      501
 93
      532
310
4394DA1859195CC81BD98811DC985E5174090240C333333333333E33F0000000000000F901079024090741D01000000000000111010841D405064090740C02480A0340
1001
ACAD
1000
AcDbSavedByObjectVersion
1070
     0
  0
ACAD_PROXY_OBJECT
  5
3F
102
{ACAD_REACTORS
330
2A
102
}
330
2A
100
AcDbZombieObject
 90
      499
 91
      501
 93
      476
310
41D4DAD95D18DA1E51840502408333333333333E33F0000000000000F901079024090741D01000000000000111010B41D405064090741802480A0340
1001
ACAD
1000
AcDbSavedByObjectVersion
1070
     0
  0
ACAD_PROXY_OBJECT
  5
37
102
{ACAD_REACTORS
330
2A
102
}
330
2A
100
AcDbZombieObject
 90
      499
 91
      501
 93
      412
310
41D51A1A58DAD95B90D409028333333333333E33F0000000000000F9010790141107004050150C41D405064090741402480A0350
1001
ACAD
1000
AcDbSavedByObjectVersion
1070
     0
  0
ACAD_PROXY_OBJECT
  5
30
102
{ACAD_REACTORS
330
2A
102
}
330
2A
100
AcDbZombieObject
 90
      499
 91
      501
 93
      420
310
4255DA5C99599C985B595059028333333333333E33F0000000000000F90107901411070040501600405405064090740C02480A0340
1001
ACAD
1000
AcDbSavedByObjectVersion
1070
     0
  0
ACAD_PROXY_OBJECT
  5
40
102
{ACAD_REACTORS
330
2A
102
}
330
2A
100
AcDbZombieObject
 90
      499
 91
      501
 93
      404
310
41560B54985E51940902404000000000000E03F0000000000000F9010740501907004050150841D405064090740C02480A1B40
1001
ACAD
1000
AcDbSavedByObjectVersion
1070
     0
  0
DICTIONARYVAR
  5
1000032E
102
{ACAD_REACTORS
330
10000257
102
}
330
10000257
100
DictionaryVariables
280
     0
  1
1:1
  0
DICTIONARYVAR
  5
10000259
102
{ACAD_REACTORS
330
10000257
102
}
330
10000257
100
DictionaryVariables
280
     0
  1
Standard
  0
DICTIONARYVAR
  5
10000258
102
{ACAD_REACTORS
330
10000257
102
}
330
10000257
100
DictionaryVariables
280
     0
  1
Standard
  0
DICTIONARYVAR
  5
1000025C
102
{ACAD_REACTORS
330
10000257
102
}
330
10000257
100
DictionaryVariables
280
     0
  1
2
  0
DICTIONARYVAR
  5
1000025D
102
{ACAD_REACTORS
330
10000257
102
}
330
10000257
100
DictionaryVariables
280
     0
  1
1
  0
DICTIONARYVAR
  5
1000032F
102
{ACAD_REACTORS
330
10000257
102
}
330
10000257
100
DictionaryVariables
280
     0
  1
1
  0
XRECORD
  5
10000003
102
{ACAD_REACTORS
330
10000001
102
}
330
10000001
100
AcDbXrecord
 70
     1
  0
XRECORD
  5
10000002
102
{ACAD_REACTORS
330
10000001
102
}
330
10000001
100
AcDbXrecord
1040
89.0
  0
ACAD_PROXY_OBJECT
  5
10000005
102
{ACAD_REACTORS
330
10000001
102
}
330
10000001
100
AcDbZombieObject
 90
      499
 91
      509
 93
       34
310
40C8804000
  0
DICTIONARY
  5
10000332
330
45
100
AcDbDictionary
  3
ACAD_XREC_ROUNDTRIP
360
10000333
1001
ACAD
1000
TREAT_AS_HARD
1070
     1
  0
DICTIONARY
  5
10000330
330
44
100
AcDbDictionary
  3
ACAD_XREC_ROUNDTRIP
360
10000331
1001
ACAD
1000
TREAT_AS_HARD
1070
     1
  0
DICTIONARY
  5
10000334
330
46
100
AcDbDictionary
  3
ACAD_XREC_ROUNDTRIP
360
10000335
1001
ACAD
1000
TREAT_AS_HARD
1070
     1
  0
XRECORD
  5
10000333
102
{ACAD_REACTORS
330
10000332
102
}
330
10000332
100
AcDbXrecord
102
MATERIAL
148
0.0
149
0.0
149
0.0
 93
        0
 94
      127
282
     0
 72
     1
 77
     1
171
     1
175
     1
179
     1
273
     0
  0
XRECORD
  5
10000331
102
{ACAD_REACTORS
330
10000330
102
}
330
10000330
100
AcDbXrecord
102
MATERIAL
148
0.0
149
0.0
149
0.0
 93
        0
 94
      127
282
     0
 72
     1
 77
     1
171
     1
175
     1
179
     1
273
     0
  0
XRECORD
  5
10000335
102
{ACAD_REACTORS
330
10000334
102
}
330
10000334
100
AcDbXrecord
102
MATERIAL
148
0.0
149
0.0
149
0.0
 93
        0
 94
      127
282
     0
 72
     1
 77
     1
171
     1
175
     1
179
     1
273
     0
  0
ENDSEC
  0
EOF
